<svg xmlns="http://www.w3.org/2000/svg" width="107.161" height="32.366" viewBox="0 0 107.161 32.366">
  <g id="Group_102" data-name="Group 102" transform="translate(-2899.342 690.891)">
    <path id="Path_278" data-name="Path 278" d="M3100.991-685.794a.728.728,0,0,0,.163-.308,5.422,5.422,0,0,1,.813-1.342,4.078,4.078,0,0,1,2.795-1.456,5.261,5.261,0,0,1,1.928.122,3.932,3.932,0,0,1,2.22,1.585,7.463,7.463,0,0,1,.65,1.116.555.555,0,0,0,.146.249l.11-.251a4.7,4.7,0,0,1,4.659-2.849,4.837,4.837,0,0,1,2.422.728,4.139,4.139,0,0,1,1.957,3.072,12.407,12.407,0,0,1,.112,1.8c-.008,4.044-.021,8.088-.014,12.132,0,.662-.325.876-.861.865-.966-.019-1.933-.005-2.9-.005a1.166,1.166,0,0,1-.335-.031.608.608,0,0,1-.458-.572c0-.084,0-.169,0-.253q0-5.165.008-10.33a8.887,8.887,0,0,0-.095-1.6,1.739,1.739,0,0,0-2.12-1.52,2.186,2.186,0,0,0-1.948,1.8,7.2,7.2,0,0,0-.169,1.563c-.009,1.36-.007,2.721-.008,4.081q0,2.97,0,5.939c0,.075,0,.15,0,.225a.637.637,0,0,1-.674.7c-.356.011-.713,0-1.07,0-.686,0-1.371-.01-2.056,0a.7.7,0,0,1-.76-.765c.013-3.321.01-6.643.012-9.964a9.2,9.2,0,0,0-.122-1.878,3.2,3.2,0,0,0-.25-.773,1.625,1.625,0,0,0-1.22-.94,2.588,2.588,0,0,0-.952,0,1.817,1.817,0,0,0-1.354,1.074,4.794,4.794,0,0,0-.394,1.688c-.052.618-.05,1.237-.05,1.856q0,4.462,0,8.923c0,.066,0,.132,0,.2a.6.6,0,0,1-.457.541,1.026,1.026,0,0,1-.25.032q-1.562,0-3.125,0a.958.958,0,0,1-.25-.032.575.575,0,0,1-.448-.487,1.852,1.852,0,0,1-.016-.308q0-8.276-.007-16.551c0-.561.215-.878.86-.859.891.026,1.783.007,2.675.007.056,0,.113,0,.169,0a.6.6,0,0,1,.636.637c.007.619,0,1.239,0,1.858A.592.592,0,0,0,3100.991-685.794Z" transform="translate(-179.006 -1.773)" fill="#fff"/>
    <path id="Path_279" data-name="Path 279" d="M3379.212-674.1a.691.691,0,0,0-.231.19,10.256,10.256,0,0,1-1.468,1.223,5.8,5.8,0,0,1-2.822.937,7.728,7.728,0,0,1-2.02-.054,4.353,4.353,0,0,1-3.685-3.343,6.473,6.473,0,0,1,.036-3.583,5.491,5.491,0,0,1,3.078-3.5,10.282,10.282,0,0,1,2.66-.784c1.072-.19,2.155-.293,3.238-.4.083-.008.167-.021.251-.032.282-.037.285-.037.282-.334,0-.413-.01-.825-.015-1.238a2.633,2.633,0,0,0-.079-.556,1.906,1.906,0,0,0-1.571-1.534,2.978,2.978,0,0,0-1.949.227,2.323,2.323,0,0,0-1.292,1.611,1.714,1.714,0,0,1-.084.3.6.6,0,0,1-.643.391c-.81-.1-1.623-.176-2.434-.262-.186-.02-.374-.035-.559-.063-.469-.072-.66-.325-.569-.784a5.581,5.581,0,0,1,2.312-3.628,7.314,7.314,0,0,1,2.841-1.16,10.412,10.412,0,0,1,4.658.091,6.6,6.6,0,0,1,1.688.679,4.439,4.439,0,0,1,2.241,3.33,13.261,13.261,0,0,1,.117,1.992c0,2.036.009,4.072-.008,6.108a4.2,4.2,0,0,0,.863,2.674c.114.149.223.3.333.454a1.66,1.66,0,0,1,.138.212.615.615,0,0,1-.148.806c-.635.528-1.253,1.075-1.877,1.616q-.266.23-.527.466a.731.731,0,0,1-1.056-.009,7.9,7.9,0,0,1-1.358-1.532C3379.443-673.763,3379.326-673.929,3379.212-674.1Zm-.679-5.51c0-.338-.005-.675,0-1.013,0-.141-.031-.2-.188-.193-.336.026-.675.027-1.011.058a6.283,6.283,0,0,0-1.909.439,2.732,2.732,0,0,0-1.443,1.237,3.323,3.323,0,0,0-.131,2.88,1.753,1.753,0,0,0,1.665,1.134,2.413,2.413,0,0,0,1.955-.883,3.986,3.986,0,0,0,.868-1.652A7.547,7.547,0,0,0,3378.533-679.608Z" transform="translate(-425.937 -0.174)" fill="#fff"/>
    <path id="Path_280" data-name="Path 280" d="M2909.8-674.276a.882.882,0,0,0-.243.21,10.035,10.035,0,0,1-1.471,1.22,5.785,5.785,0,0,1-2.8.923,7.79,7.79,0,0,1-1.993-.048,4.374,4.374,0,0,1-3.752-3.483,6.385,6.385,0,0,1,.159-3.715,5.578,5.578,0,0,1,3.25-3.348,11.608,11.608,0,0,1,2.737-.726c1.075-.176,2.16-.262,3.241-.384.148-.017.21-.052.207-.213a11.117,11.117,0,0,0-.089-1.824,1.9,1.9,0,0,0-1.585-1.617,2.956,2.956,0,0,0-1.974.24,2.279,2.279,0,0,0-1.244,1.516,2.979,2.979,0,0,1-.111.376.558.558,0,0,1-.64.386c-.635-.061-1.269-.132-1.9-.2-.354-.038-.71-.068-1.063-.117-.511-.071-.692-.342-.586-.843a5.548,5.548,0,0,1,3.513-4.227,9.81,9.81,0,0,1,6.988-.19,5.15,5.15,0,0,1,1.853,1.092,4.424,4.424,0,0,1,1.359,2.59,14.361,14.361,0,0,1,.131,2.47q0,2.914,0,5.828a4.028,4.028,0,0,0,.788,2.474q.2.271.4.546a1.9,1.9,0,0,1,.154.235.572.572,0,0,1-.156.8l-2.34,2.029a1.894,1.894,0,0,1-.153.123.677.677,0,0,1-.921-.05,7,7,0,0,1-1.387-1.544C2910.044-673.927,2909.921-674.1,2909.8-674.276Zm-.667-5.367c0-.425,0-.771,0-1.118,0-.223,0-.229-.237-.221-.318.011-.637.022-.955.052a6.245,6.245,0,0,0-1.936.448,2.778,2.778,0,0,0-1.621,1.656,3.353,3.353,0,0,0-.175.879,3.088,3.088,0,0,0,.307,1.72,1.77,1.77,0,0,0,1.56.987,2.4,2.4,0,0,0,1.984-.877,3.987,3.987,0,0,0,.861-1.624A7.7,7.7,0,0,0,2909.134-679.643Z" transform="translate(0 0)" fill="#fff"/>
    <path id="Path_281" data-name="Path 281" d="M3913.494-685.486a.431.431,0,0,0,.168-.261,6.928,6.928,0,0,1,1.049-1.756,3.941,3.941,0,0,1,2.767-1.384,5.346,5.346,0,0,1,2.144.194,4.128,4.128,0,0,1,2.829,2.989,10.4,10.4,0,0,1,.335,2.532c.022.769.017,1.539.017,2.308,0,3.284,0,6.569.008,9.853a.657.657,0,0,1-.654.688c-.065,0-.131,0-.2,0h-2.394c-.2,0-.395,0-.591,0a.64.64,0,0,1-.721-.732q0-4.842,0-9.684a10.859,10.859,0,0,0-.138-2.187,3.63,3.63,0,0,0-.171-.593,1.839,1.839,0,0,0-2.618-.988,2.293,2.293,0,0,0-1.042,1.105,5.794,5.794,0,0,0-.505,2.006c-.042.505-.052,1.012-.052,1.519q0,4.349,0,8.7c0,.084,0,.169,0,.253a.61.61,0,0,1-.462.569,1.106,1.106,0,0,1-.306.033h-3.014a.984.984,0,0,1-.307-.034.589.589,0,0,1-.439-.5,2.1,2.1,0,0,1-.015-.309q0-8.291-.015-16.581a.719.719,0,0,1,.815-.818c.91.024,1.821.007,2.731.007a2.2,2.2,0,0,1,.225.005.592.592,0,0,1,.547.6c0,.7,0,1.408,0,2.111Z" transform="translate(-916.308 -1.792)" fill="#fff"/>
    <path id="Path_282" data-name="Path 282" d="M3735.119-679.552a11.389,11.389,0,0,1-1.206,5.373,7.393,7.393,0,0,1-3.155,3.265,6.861,6.861,0,0,1-3.84.743,6.721,6.721,0,0,1-5.676-3.994,10.833,10.833,0,0,1-1.021-3.4,14.647,14.647,0,0,1-.106-3.2,11.154,11.154,0,0,1,1.355-4.773,6.475,6.475,0,0,1,3.647-3.139,7.011,7.011,0,0,1,6.811,1.078,7.576,7.576,0,0,1,2.327,3.26,12.161,12.161,0,0,1,.793,3.352C3735.1-680.5,3735.1-680.017,3735.119-679.552Zm-10.154-.008a17.084,17.084,0,0,0,.27,3.213,4.758,4.758,0,0,0,.7,1.822,1.931,1.931,0,0,0,2.146.8,2.135,2.135,0,0,0,1.373-1.08,4.845,4.845,0,0,0,.515-1.419,12.97,12.97,0,0,0,.249-2.6,21.043,21.043,0,0,0-.251-4.175,5.87,5.87,0,0,0-.4-1.373,1.928,1.928,0,0,0-1.034-1.06,2.461,2.461,0,0,0-1.544-.106,2.051,2.051,0,0,0-1.31,1.071,5.237,5.237,0,0,0-.561,1.786A19.468,19.468,0,0,0,3724.966-679.56Z" transform="translate(-744.719 -1.617)" fill="#fff"/>
    <path id="Path_283" data-name="Path 283" d="M3090.568-456.179a43.839,43.839,0,0,1-4.719-.27,41.389,41.389,0,0,1-14.356-4.3,41.2,41.2,0,0,1-8.833-6.075,1.225,1.225,0,0,1-.3-.333.486.486,0,0,1,.026-.556.487.487,0,0,1,.506-.169,1.3,1.3,0,0,1,.409.181,52.781,52.781,0,0,0,6.693,3.263,56.746,56.746,0,0,0,9.863,2.972q2.33.478,4.689.765c1.183.143,2.37.245,3.56.312,1.4.079,2.795.119,4.194.086q2.38-.055,4.746-.312a56.548,56.548,0,0,0,10.448-2.154,53.653,53.653,0,0,0,5.046-1.826,2.653,2.653,0,0,1,.5-.179.951.951,0,0,1,.8.179.743.743,0,0,1,.2.96,1.391,1.391,0,0,1-.443.463,30.49,30.49,0,0,1-4.4,2.663,40.827,40.827,0,0,1-9.285,3.264q-1.962.444-3.956.709c-1.116.147-2.237.251-3.363.305C3091.919-456.2,3091.244-456.176,3090.568-456.179Z" transform="translate(-147.852 -202.346)" fill="#ffd84f"/>
    <path id="Path_284" data-name="Path 284" d="M3567.831-673.214c.417,0,.811-.016,1.2,0a11.268,11.268,0,0,1,4.709,1.175c.058.03.115.063.174.092a1.153,1.153,0,0,1,.672,1.139c-.006.788,0,1.577,0,2.365a.839.839,0,0,1-.029.278.569.569,0,0,1-.829.354,10.705,10.705,0,0,0-2.163-.861,12.4,12.4,0,0,0-9.185.85.563.563,0,0,1-.876-.516c-.009-.985-.029-1.971.013-2.956a2.434,2.434,0,0,1,.461-1.307q3.13-4.489,6.253-8.984c.058-.083.113-.167.181-.269a.629.629,0,0,0-.291-.028h-5.154c-.076,0-.15,0-.226,0a.584.584,0,0,1-.62-.617c-.006-.244,0-.488,0-.732,0-.535,0-1.07,0-1.6,0-.49.216-.712.7-.712q5.366,0,10.731,0a.615.615,0,0,1,.707.705c0,.629,0,1.257,0,1.886a1.323,1.323,0,0,1-.163.646,7.685,7.685,0,0,1-.515.8q-2.8,4-5.595,8A.715.715,0,0,0,3567.831-673.214Z" transform="translate(-600.826 -4.85)" fill="#fff"/>
    <path id="Path_285" data-name="Path 285" d="M3566.217-477.779a34.925,34.925,0,0,0-3.975.289c-.186.023-.372.047-.559.063a.849.849,0,0,1-.251-.008.311.311,0,0,1-.239-.467.956.956,0,0,1,.376-.407,8.586,8.586,0,0,1,2.377-1.13,13.214,13.214,0,0,1,4.836-.526,9.206,9.206,0,0,1,2.046.345,3.308,3.308,0,0,1,.5.2.76.76,0,0,1,.422.562,4.441,4.441,0,0,1,.04,1.373,13.415,13.415,0,0,1-1.786,5.461,8.808,8.808,0,0,1-1.867,2.272,1.14,1.14,0,0,1-.406.246c-.328.1-.547-.1-.469-.433a2.345,2.345,0,0,1,.114-.317,39.825,39.825,0,0,0,1.4-3.972,10.391,10.391,0,0,0,.357-1.789,2.672,2.672,0,0,0-.028-.756.874.874,0,0,0-.5-.666,3.21,3.21,0,0,0-.945-.256A10.435,10.435,0,0,0,3566.217-477.779Z" transform="translate(-600.521 -191.358)" fill="#ffd84f"/>
  </g>
</svg>
