<svg xmlns="http://www.w3.org/2000/svg" width="478.129" height="555.213" viewBox="0 0 478.129 555.213">
  <g id="Group_24" data-name="Group 24" transform="translate(-152.426 -50.925)">
    <path id="Path_1" data-name="Path 1" d="M567.866,420.1c-6.444-62.441-13.4-124.88-18.656-187.4-9.748-98.208-88.353-178.275-186.994-178.275h-.054c-98.67-.028-177.3,80.04-187.05,178.275-5.225,62.521-12.184,124.961-18.628,187.4-7.067,64.2,52.665,148.03,132.217,150.684q73.475,1.95,146.948,0C515.2,568.131,574.933,484.3,567.866,420.1Z" transform="translate(1.918 1.923)" fill="#ff959e"/>
    <path id="Path_2" data-name="Path 2" d="M400.438,501.155c-35.4,1.06-70.618,1.06-106.046,0C238.421,499,185.23,449.383,183.089,398c-2.157-51.744,5.519-103.926,13.176-155.832,8.078-54,27.749-125.343,85-126.2,21.286-.361,43.09,15.1,56.032,25.362a17.168,17.168,0,0,0,21.216.1c18.559-14.4,36.618-27.3,56.714-24.414,51.012,7.277,75.173,71.919,83.372,125.154C506.25,294.072,511.642,346.21,511.769,398,511.4,451.29,456.436,499,400.438,501.155Z" transform="translate(16.647 35.735)" fill="#fff"/>
    <path id="Path_3" data-name="Path 3" d="M420.1,210.024c7.056,49.947-54.672,79.335-86.041,105.365-15.706,13.033,66.769,46.375,134.966-.223" transform="translate(98.741 87.427)" fill="#ff959e"/>
    <path id="Path_4" data-name="Path 4" d="M206.642,210.024c-7.056,49.947,54.672,79.335,86.041,105.365,15.706,13.033-66.769,46.375-134.966-.223" transform="translate(2.908 87.427)" fill="#ff959e"/>
    <path id="Path_5" data-name="Path 5" d="M449.856,160.575a411.248,411.248,0,0,1-7,80.057c-4.831,25.666-7.445,38.783-17.1,52.671-16.724,24.061-41.9,34.409-53.748,39.276a146.7,146.7,0,0,1-38.645,9.984,20.646,20.646,0,0,0,4.359,11.671c4.63,5.609,11.516,6.72,18.063,7.682,20.565,3.018,30.848,4.528,36.81,4.39a142.553,142.553,0,0,0,61.006-15.215,136.433,136.433,0,0,0,14.728-8.752Q459.1,251.456,449.856,160.575Z" transform="translate(99.432 60.254)" fill="#ff7e9f"/>
    <path id="Path_6" data-name="Path 6" d="M283.255,57.087C389.688,75.807,452.823,163.88,470.077,200.994a140.5,140.5,0,0,0-16.95-59.325c-15.748-28.53-37.636-43.56-56.78-56.706-15.323-10.521-30.727-21.1-54.371-26.8A137.492,137.492,0,0,0,283.255,57.087Z" transform="translate(71.893 1.923)" fill="#ff7e9f"/>
    <path id="Path_7" data-name="Path 7" d="M473.3,302.053c-.907,9.776-4.134,28.962-18.142,46.692-10.038,12.7-21.348,19.267-31.021,24.757-17.485,9.923-25.621,9.671-52.267,18.7-22.435,7.6-22.057,9.605-54.9,22.6-13.583,5.374-33.442,12.863-58.229,20.858.9,3.184,2.713,7.523,6.7,10.149,5.451,3.586,11.019,1.374,22.855.237,3.119-.3-.245.141,27.794.036,11.858-.045,22.728-.163,25.59-.214,46.884-.854,83.923-17.161,83.923-17.161,12.351-5.439,31.063-13.676,48.752-31.866,24.171-24.856,30.578-51.664,36.3-75.432,2.788-11.581,7.571-32.241-.361-37.252-2.718-1.717-6.02-1.026-10.261-.074C486.627,287.081,477.749,296.4,473.3,302.053Z" transform="translate(58.422 127.585)" fill="#ff7e9f"/>
    <path id="Path_8" data-name="Path 8" d="M305.218,71.446A317.4,317.4,0,0,0,255,110.32c-14.747,13.987-37.728,36.16-56.238,71.983a242.821,242.821,0,0,0-23.994,73.484,99.855,99.855,0,0,1-5.843-42.323c2.372-27.936,16.688-47.756,30.806-67.3a195.539,195.539,0,0,1,31.032-34.729A193.531,193.531,0,0,1,305.218,71.446Z" transform="translate(8.883 11.277)" fill="#ffabb9"/>
    <path id="Path_9" data-name="Path 9" d="M176.826,160.575a411.247,411.247,0,0,0,7,80.057c4.831,25.666,7.445,38.783,17.1,52.671,16.724,24.061,41.9,34.409,53.746,39.276a146.728,146.728,0,0,0,38.646,9.984,20.658,20.658,0,0,1-4.359,11.671c-4.63,5.609-11.516,6.72-18.063,7.682-20.567,3.018-30.849,4.528-36.81,4.39a142.553,142.553,0,0,1-61.006-15.215,136.425,136.425,0,0,1-14.728-8.752Q167.585,251.456,176.826,160.575Z" transform="translate(3.253 60.254)" fill="#ff7e9f"/>
    <g id="Group_1" data-name="Group 1" transform="translate(314.533 245.421)">
      <path id="Path_10" data-name="Path 10" d="M257.044,211.713c0-10.69,24.323-25.02,38.89-32.644a23,23,0,0,1,21.338,0c14.567,7.624,38.89,21.954,38.89,32.644,0,15.258-22.189,27.628-49.56,27.628S257.044,226.971,257.044,211.713Z" transform="translate(-257.044 -176.445)" fill="#ecc00b"/>
    </g>
    <g id="Group_2" data-name="Group 2" transform="translate(326.186 248.514)">
      <path id="Path_11" data-name="Path 11" d="M347.85,213.708c0,15.263-22.189,27.628-49.553,27.628-13.045,0-24.885-2.8-33.733-7.391a85.148,85.148,0,0,0,16.364,1.549c27.363,0,49.554-12.365,49.554-27.628,0-9.313-18.517-21.414-32.912-29.41a22.849,22.849,0,0,1,11.389,2.6C323.525,188.683,347.85,203.016,347.85,213.708Z" transform="translate(-264.564 -178.442)" fill="#ef9c06"/>
    </g>
    <g id="Group_3" data-name="Group 3" transform="translate(320.855 297.569)">
      <path id="Path_12" data-name="Path 12" d="M347.6,210.1s-19.358,45.639-43.238,45.639S261.124,210.1,261.124,210.1c11.748,10.351,27.6,9.883,43.236,10.747,7.244.4,13.485,1.257,20.63,0,4.8-.846,6.915-2,11.091-4.521S347,214.942,347.6,210.1Z" transform="translate(-261.124 -210.1)"/>
    </g>
    <g id="Group_4" data-name="Group 4" transform="translate(309.11 240)">
      <path id="Path_13" data-name="Path 13" d="M308.527,246.687c-30.832,0-54.983-14.517-54.983-33.051,0-3.852,0-15.573,41.8-37.449a28.444,28.444,0,0,1,26.368,0c41.8,21.876,41.8,33.6,41.8,37.449C363.508,232.169,339.358,246.687,308.527,246.687Zm0-62.893a17.581,17.581,0,0,0-8.155,2c-28.4,14.866-35.981,24.493-35.981,27.839,0,13.086,23.26,22.2,44.136,22.2s44.135-9.119,44.135-22.2c0-3.345-7.579-12.973-35.981-27.839A17.58,17.58,0,0,0,308.527,183.794Z" transform="translate(-253.544 -172.947)"/>
    </g>
    <g id="Group_5" data-name="Group 5" transform="translate(343.516 314.026)">
      <path id="Path_14" data-name="Path 14" d="M314.876,222.3a2.411,2.411,0,0,1,1.515,3.812c-3.886,5.271-12.449,15.618-19.8,15.618-7.414,0-16.361-10.521-20.348-15.749a2.409,2.409,0,0,1,1.4-3.816C288.414,219.861,305.5,220.623,314.876,222.3Z" transform="translate(-275.748 -220.721)" fill="#da006d"/>
    </g>
    <circle id="Ellipse_1" data-name="Ellipse 1" cx="20.304" cy="20.304" r="20.304" transform="translate(245.098 246.759)" fill="#ff959e"/>
    <circle id="Ellipse_2" data-name="Ellipse 2" cx="20.304" cy="20.304" r="20.304" transform="translate(440.587 246.759)" fill="#ff959e"/>
    <path id="Path_15" data-name="Path 15" d="M369.387,338.707c-41.426,35.379-84.244,45-98.365,47.282a188.624,188.624,0,0,1-58.209.243,135.614,135.614,0,0,0,39.21,20.883c15.534,5.2,28.032,5.718,56.763,5.959,31.587.265,47.874,1.673,71.024-.491,21.156-1.979,32.014-3.079,45.81-8.5a118.149,118.149,0,0,0,71.414-78.762c4-14.344,3.4-30.626,1.951-31.777-3.4-2.7-41.277,4.309-56.615,5.082-26.591,1.342-31.562-18.067-38.394-12.743C400.534,288.567,386.935,323.72,369.387,338.707Z" transform="translate(33.184 128.604)" fill="#d0e5f2"/>
    <g id="Group_7" data-name="Group 7" transform="translate(256.28 349.886)">
      <g id="Group_6" data-name="Group 6">
        <path id="Path_16" data-name="Path 16" d="M359.477,353.407,339.49,251.3a9.2,9.2,0,0,0-10.3-7.349l-101.8,14.156a9.207,9.207,0,0,0-7.9,9.894l.064.745a75.108,75.108,0,0,0,11.561,10.93,3.825,3.825,0,0,1,5.756-.046c5.919,6.248,18.007,11.332,20.517,20.147a11.876,11.876,0,0,1,.353,1.7,4.3,4.3,0,0,1-.305,3.689c-2.016,5.967-11.4,7.594-17.026,9.176-4.309,1.212-9.088,2.513-13.555,2.645a6.173,6.173,0,0,1-1.638.451c-.508.068-1.018.118-1.528.163l4.576,54.05a46.684,46.684,0,0,0,52.67,39.809l38.741-5.388A46.685,46.685,0,0,0,359.477,353.407Z" transform="translate(-219.45 -243.864)" fill="#fff"/>
      </g>
    </g>
    <g id="Group_9" data-name="Group 9" transform="translate(260.665 516.824)">
      <g id="Group_8" data-name="Group 8">
        <path id="Path_17" data-name="Path 17" d="M250.083,351.663c-10.179-.762-18.236,5.546-18.827,6.021a27.472,27.472,0,0,0-8.814,13.017,3.318,3.318,0,0,0,3.672,4.28l54.87-8.259a3.328,3.328,0,0,0,1.76-5.742,23.36,23.36,0,0,0-10.218-5.633c-2.7-.651-3.626-.287-10.007-1.255C254.383,352.857,253.7,351.932,250.083,351.663Z" transform="translate(-222.279 -351.599)" fill="#ecc00b"/>
      </g>
    </g>
    <g id="Group_11" data-name="Group 11" transform="translate(356.963 501.811)">
      <g id="Group_10" data-name="Group 10">
        <path id="Path_18" data-name="Path 18" d="M313.818,343.374c9.584-3.511,19.056.359,19.755.655a27.5,27.5,0,0,1,12.032,10.118,3.321,3.321,0,0,1-2.366,5.121L288.2,366.293a3.327,3.327,0,0,1-3.26-5.044,23.372,23.372,0,0,1,8.293-8.206c2.417-1.362,3.41-1.266,9.283-3.937C310.007,345.7,310.411,344.621,313.818,343.374Z" transform="translate(-284.427 -341.91)" fill="#ecc00b"/>
      </g>
    </g>
    <g id="Group_13" data-name="Group 13" transform="translate(256.207 345.965)">
      <g id="Group_12" data-name="Group 12">
        <path id="Path_19" data-name="Path 19" d="M339.443,248.771a9.207,9.207,0,0,0-10.3-7.349l-101.8,14.158a9.2,9.2,0,0,0-7.9,9.894l.423,5a75.737,75.737,0,0,0,11.274,10.6,3.824,3.824,0,0,1,5.756-.048c5.919,6.248,18.007,11.332,20.517,20.147a11.876,11.876,0,0,1,.353,1.7,4.3,4.3,0,0,1-.305,3.689c-2.016,5.967-11.4,7.594-17.026,9.176-4.308,1.212-9.082,2.509-13.547,2.64a6.114,6.114,0,0,1-1.646.456c-.423.057-.848.095-1.272.136l2.769,32.71c22.208-.079,44.925-.738,66.936-3.775,11.175-1.543,22.144-4.187,33.09-6.875,9.554-2.348,20.446-2.532,29.571-5.987Z" transform="translate(-219.402 -241.333)" fill="#f50"/>
      </g>
    </g>
    <g id="Group_15" data-name="Group 15" transform="translate(263.161 350.83)">
      <g id="Group_14" data-name="Group 14">
        <path id="Path_20" data-name="Path 20" d="M275.85,316.746c-9.159,8.181-26.147,20.815-51.96,28.753a124.805,124.805,0,0,0,21.058,4.27c14.869,1.7,27.966.451,59.907-6.37,13.132-2.8,29.844-6.635,49.2-11.741-10.363-24.555-12.585-43.935-12.5-57.634.054-8.38,1.027-22.776-6.909-27.668-2.913-1.794-6.627-1.824-14.054-1.883C310.621,244.394,329.644,268.69,275.85,316.746Z" transform="translate(-223.89 -244.473)" fill="#fd4500"/>
      </g>
    </g>
    <g id="Group_17" data-name="Group 17" transform="translate(259.516 517.937)">
      <g id="Group_16" data-name="Group 16">
        <path id="Path_21" data-name="Path 21" d="M234.012,352.413c.736.505-.686,2.444-.009,4.808.928,3.243,5.078,4.721,6.981,5.371,6.65,2.273,12.254,1.006,21.394-.355,4.168-.621,10.38-1.457,18.126-2.145a5.672,5.672,0,0,1-1.192,4c-2.045,2.278-6.073,1.469-9.371,1.154-.919-.088-6.66.662-18.142,2.16-9.144,1.193-10.774,1.646-18.106,2.439-4.269.46-7.769.745-10.044.914a5.458,5.458,0,0,1-1.954-2.749c-.776-2.783,1.429-5.5,4.3-8.928C228.269,356.366,232.8,351.584,234.012,352.413Z" transform="translate(-221.538 -352.318)" fill="#ef9c06"/>
      </g>
    </g>
    <g id="Group_19" data-name="Group 19" transform="translate(357.615 501.368)">
      <g id="Group_18" data-name="Group 18">
        <path id="Path_22" data-name="Path 22" d="M328.021,341.833c-.59.669,1.266,2.2,1.192,4.656-.1,3.373-3.761,5.828-5.443,6.925-5.888,3.84-11.631,3.99-20.824,4.918-4.195.425-10.422,1.144-18.1,2.382a5.67,5.67,0,0,0,2.14,3.589c2.543,1.7,6.248-.071,9.368-1.187.869-.311,6.618-1,18.115-2.371,9.156-1.092,10.848-1.055,18.15-2.09,4.25-.6,7.713-1.189,9.96-1.585a5.459,5.459,0,0,0,1.218-3.144c.067-2.89-2.738-4.975-6.365-7.6C334.56,344.252,328.993,340.731,328.021,341.833Z" transform="translate(-284.847 -341.624)" fill="#ef9c06"/>
      </g>
    </g>
    <path id="Path_23" data-name="Path 23" d="M386.426,406.645a32.183,32.183,0,0,0-13.774-11.367,35.275,35.275,0,0,0-17.446-2.165c.178-.226.363-.445.536-.676a51,51,0,0,0,9.892-38.024L345.605,252.058A13.863,13.863,0,0,0,330.1,241L228.3,255.154a13.854,13.854,0,0,0-11.679,11.039,4.294,4.294,0,0,1,2.442,1.644,63.182,63.182,0,0,0,7.162,8.009l-.558-6.585a4.558,4.558,0,0,1,3.914-4.9l101.8-14.158a4.544,4.544,0,0,1,5.1,3.638l14.107,72.065a5.529,5.529,0,0,1-3.919,6.393A412.47,412.47,0,0,1,292.5,343.206c-26.185,3.643-45.17,4.133-55.215,4.032a5.531,5.531,0,0,1-5.45-5.075l-2-23.584-.685-.346a5.763,5.763,0,0,1-2.4.857,49.32,49.32,0,0,1-6.176.366L225.18,373.7l.026.248a51.2,51.2,0,0,0,20.664,34.419,35.411,35.411,0,0,0-14.42,6.55,32.175,32.175,0,0,0-10.152,14.7,8.319,8.319,0,0,0,.835,7.438,7.964,7.964,0,0,0,6.572,3.474,8.171,8.171,0,0,0,1.21-.091l54.868-8.26a7.921,7.921,0,0,0,6.444-5.546c.879-2.839-.522-6.757-2.774-8.7-.325-.279-.651-.55-.981-.814l31.878-4.433c-.256.359-.508.727-.755,1.1a8.317,8.317,0,0,0-.485,8.708,7.926,7.926,0,0,0,6.9,4.009,8.074,8.074,0,0,0,1.037-.067l55.042-7.026a7.946,7.946,0,0,0,6.427-5A8.32,8.32,0,0,0,386.426,406.645ZM230.755,430.9a22.493,22.493,0,0,1,6.527-8.747c.27-.217,6.376-5.058,14.178-5.058.456,0,.917.016,1.384.051h0a17.113,17.113,0,0,1,3.4.64,78.234,78.234,0,0,0,8.687,1.751c3.384.514,5.329.671,6.748.789a16.167,16.167,0,0,1,2.865.389,17.231,17.231,0,0,1,5.863,2.71Zm88.956-27.66-37.87,5.268a42.036,42.036,0,0,1-47.409-35.724l-1.08-12.773a3.2,3.2,0,0,1,3.232-3.468q1.483.021,3.225.022a397.177,397.177,0,0,0,53.976-4.151,419.189,419.189,0,0,0,55.46-11.16,3.95,3.95,0,0,1,4.945,3.049l2.255,11.514a41.793,41.793,0,0,1-9.088,32.247A43.179,43.179,0,0,1,319.711,403.241Zm8.158,13.585a17.231,17.231,0,0,1,4.9-4.205,16.311,16.311,0,0,1,2.653-1.159c1.334-.5,3.161-1.182,6.276-2.6a77.945,77.945,0,0,0,7.881-4.053,17.119,17.119,0,0,1,3.1-1.545c7.966-2.916,16.253.535,16.338.572a22.466,22.466,0,0,1,8.665,6.632Z" transform="translate(35.277 104.374)" fill="#001d27"/>
    <g id="Group_21" data-name="Group 21" transform="translate(284.124 482.714)">
      <g id="Group_20" data-name="Group 20">
        <path id="Path_24" data-name="Path 24" d="M269.108,349.483a22.655,22.655,0,0,1-14.19,1.176c-8.888-2.323-15.72-10.6-17.5-21.073" transform="translate(-237.419 -329.586)" fill="#d0e5f2"/>
      </g>
    </g>
    <path id="Path_25" data-name="Path 25" d="M575.176,421.453q-2.236-21.671-4.528-43.345c-4.957-47.169-10.084-95.943-14.125-144.02-4.9-49.414-26.842-95.339-61.776-129.318-35.7-34.723-82.084-53.846-130.666-53.846h-.053c-48.523,0-94.9,19.115-130.6,53.824-34.943,33.979-56.89,79.913-61.8,129.423-4.027,48.17-9.17,97.12-14.144,144.458q-2.252,21.421-4.47,42.8c-3.758,34.126,10.741,74.756,37.836,106.035,27.236,31.437,62.6,49.43,99.628,50.663,24.42.649,49.008.973,73.607.973s49.217-.324,73.664-.973c36.987-1.233,72.355-19.226,99.59-50.663C564.427,496.2,578.924,455.575,575.176,421.453ZM168.268,379.765c4.98-47.4,10.131-96.4,14.158-144.605,4.652-46.884,25.451-90.436,58.562-122.633,33.662-32.732,77.353-50.754,123.1-50.754h.048c45.688,0,89.388,18.032,123.05,50.775,33.1,32.2,53.894,75.742,58.539,122.531,4.043,48.111,9.175,96.941,14.138,144.165q.909,8.642,1.805,17.283a5.459,5.459,0,0,1-2.608,5.22c-42.26,25.841-87.455,20.8-108.2,13.355a56.954,56.954,0,0,1-8.2-3.607,5.416,5.416,0,0,1-.671-9.049c5.056-3.869,10.681-7.859,16.538-12.013,31.956-22.672,71.722-50.886,65.687-93.716h0l0-.016,0-.008h0c-1.086-7.941-2.3-16.285-3.618-24.834-3.41-21.233-10.743-52.076-26.315-78.433-16.062-27.185-36.813-42.694-61.672-46.095-21.721-2.987-40.338,9.3-60.7,24.444a12.319,12.319,0,0,1-14.685-.074c-22.871-17.387-42.344-25.7-59.391-25.426-47.006.679-77.381,42.939-90.279,125.621-1.314,8.535-2.527,16.876-3.61,24.789l.073.009c-5.925,42.751,33.786,70.929,65.706,93.575,5.922,4.2,11.607,8.234,16.705,12.142a5.413,5.413,0,0,1-.544,8.976l-.259.15c-25.125,14.316-64.159,10.935-84.32,5.161l.016-.049a131.7,131.7,0,0,1-32.362-14.232,5.392,5.392,0,0,1-2.513-5.166Q167.355,388.508,168.268,379.765Zm360.87,140.6c-25.235,29.128-57.82,45.793-91.716,46.924-48.659,1.291-98,1.291-146.623,0-33.933-1.133-66.518-17.8-91.753-46.925-25.183-29.069-38.691-66.522-35.25-97.782q.177-1.724.358-3.451a5.43,5.43,0,0,1,7.881-4.287,141.1,141.1,0,0,0,22.494,9.447,5.413,5.413,0,0,1,3.807,4.731c2.623,37.709,27.677,77.611,61.178,100.3,2.552,1.728,3.183-1.7,4.8-4.322l0,0c1.523-2.47,4.119-2.763,1.714-4.39-28.118-19.028-50.861-52.036-55.851-83.336a5.453,5.453,0,0,1,6.218-6.249,146.883,146.883,0,0,0,21.591,1.6c31.551,0,57.645-10.128,63.476-21.159a10.049,10.049,0,0,0-2.56-12.98c-6.672-5.536-14.561-11.133-22.911-17.057-31.1-22.065-66.352-47.074-61.224-83.378l-.068-.009c1.071-7.819,2.27-16.058,3.565-24.481C230.23,196.883,257.051,157.708,298,157.118c.214,0,.425,0,.637,0,21.482,0,44.432,17.449,52,23.2a23.032,23.032,0,0,0,27.764.153c18.4-13.688,35.079-24.817,52.741-22.391,57.115,7.814,74.718,90.382,78.746,115.467,1.012,6.575,1.966,13.047,2.848,19.305.417,2.955,1.071,7.413,1.195,10.173,1.531,33.727-31.963,57.489-61.671,78.565-8.352,5.924-16.239,11.521-22.913,17.059-4.678,3.882-5.2,9.7-1.336,14.831,7.084,9.4,31.179,18.481,61.094,18.481a148.963,148.963,0,0,0,30.191-3.113,5.445,5.445,0,0,1,6.541,6.045c-3.194,23.447-14.617,46.707-32.39,65.359-20.593,21.608-47.142,34.656-72.788,35.8-35.047,1.213-70.6,1.213-105.618,0a89.524,89.524,0,0,1-17.544-2.58,5.436,5.436,0,0,0-6.534,3.661h0c-.9,2.956-10.91,3.728-8.1,5.019,5.935,2.73,25.178,4.446,31.753,4.737,17.654.61,35.425.917,53.2.917s35.589-.307,53.271-.919c58.948-2.619,113.068-58.925,116.328-119.581a5.331,5.331,0,0,1,3.441-4.689,140.709,140.709,0,0,0,15.416-6.866,5.413,5.413,0,0,1,7.856,4.261q.132,1.288.266,2.575l0,.036C567.829,453.841,554.321,491.294,529.138,520.363Z" transform="translate(0)" fill="#001d27"/>
    <path id="Path_26" data-name="Path 26" d="M383.388,372.047c26.435-6.215,50.217,7.029,51.965,8.034A73.129,73.129,0,0,1,463.9,410.642a8.833,8.833,0,0,1-7.882,12.77l-147.607.993a8.852,8.852,0,0,1-7-14.361c8.776-10.771,17.508-16.124,24.518-19.028,6.819-2.825,9.412-2.255,25.776-7.439C372.585,376.965,374,374.255,383.388,372.047Z" transform="translate(80.792 175.553)" fill="#ecc00b"/>
    <path id="Path_27" data-name="Path 27" d="M428.626,373.842c-1.887,1.613,2.623,6.551,1.457,13.286-1.6,9.244-12.635,14.567-17.7,16.928-17.712,8.265-33.576,6.429-59.252,5.388-11.71-.476-29.132-.936-50.75-.53.265,3.4,1.213,7.776,4.484,10.715,6.333,5.688,17.227,2.25,26.253.4,2.515-.516,18.61-.153,50.8.572,25.634.576,30.276,1.342,50.781,1.35,11.937,0,21.7-.251,28.038-.465a15.149,15.149,0,0,0,4.585-8.178c1.317-7.926-5.586-14.768-14.545-23.4C445.678,383.06,431.731,371.188,428.626,373.842Z" transform="translate(82.404 177.239)" fill="#ef9c06"/>
    <path id="Path_28" data-name="Path 28" d="M313.108,432.227a14.2,14.2,0,0,1-12.9-8.152,14.032,14.032,0,0,1,1.765-15.06c7.814-9.588,16.778-16.522,26.645-20.61a59.869,59.869,0,0,1,10-3.071c3.429-.831,8.127-1.968,16.211-4.528a189.474,189.474,0,0,0,20.43-7.568,62.026,62.026,0,0,1,11.649-4.074h0c28.246-6.638,53.161,7.033,55.908,8.614a78.894,78.894,0,0,1,30.679,32.8,14.057,14.057,0,0,1-.541,13.771,14.238,14.238,0,0,1-12.139,6.88l-147.607.993Zm76.283-52.5a51.935,51.935,0,0,0-9.835,3.472,201.589,201.589,0,0,1-21.452,7.949c-8.443,2.674-13.351,3.861-16.933,4.729a50.043,50.043,0,0,0-8.4,2.549c-8.189,3.393-15.723,9.263-22.39,17.444a3.218,3.218,0,0,0-.389,3.519,3.439,3.439,0,0,0,3.121,1.993h.028l147.607-.993a3.434,3.434,0,0,0,2.947-1.673,3.215,3.215,0,0,0,.136-3.215,68.075,68.075,0,0,0-26.418-28.317c-.944-.542-23.407-13.244-48.018-7.456Z" transform="translate(80.426 173.885)"/>
    <path id="Path_29" data-name="Path 29" d="M243.069,371.779c-26.542-5.738-50.082,7.93-51.811,8.967a73.13,73.13,0,0,0-27.994,31.069,8.832,8.832,0,0,0,8.11,12.625q73.8-.83,147.6-1.658a8.854,8.854,0,0,0,6.74-14.486c-8.969-10.609-17.8-15.805-24.856-18.583-6.87-2.7-9.452-2.086-25.906-6.974C253.96,376.5,252.5,373.818,243.069,371.779Z" transform="translate(5.469 175.544)" fill="#ecc00b"/>
    <path id="Path_30" data-name="Path 30" d="M204.169,373.842c1.887,1.613-2.625,6.551-1.458,13.286,1.6,9.244,12.635,14.567,17.7,16.928,17.711,8.265,33.576,6.429,59.25,5.388,11.711-.476,29.134-.936,50.75-.53-.263,3.4-1.212,7.776-4.483,10.715-6.333,5.688-17.229,2.25-26.253.4-2.516-.516-18.61-.153-50.8.572-25.634.576-30.274,1.342-50.779,1.35-11.937,0-21.7-.251-28.04-.465a15.169,15.169,0,0,1-4.585-8.178c-1.316-7.926,5.588-14.768,14.547-23.4C187.116,383.06,201.062,371.188,204.169,373.842Z" transform="translate(7.08 177.239)" fill="#ef9c06"/>
    <path id="Path_31" data-name="Path 31" d="M176.027,432.262a14.234,14.234,0,0,1-12.092-6.66,14.061,14.061,0,0,1-.79-13.76,78.925,78.925,0,0,1,30.082-33.35c2.723-1.629,27.4-15.745,55.747-9.616a62.044,62.044,0,0,1,11.722,3.861,189.064,189.064,0,0,0,20.561,7.2c8.13,2.416,12.847,3.468,16.29,4.236a59.718,59.718,0,0,1,10.056,2.891c9.939,3.908,19.028,10.681,27.013,20.128a14.025,14.025,0,0,1,2.035,15.026,14.2,14.2,0,0,1-12.855,8.384l-147.6,1.658ZM234.482,378.2c-19.4,0-34.9,9.13-35.679,9.6a68.077,68.077,0,0,0-25.9,28.785,3.214,3.214,0,0,0,.2,3.214,3.43,3.43,0,0,0,2.93,1.619h.045l147.6-1.658a3.438,3.438,0,0,0,3.111-2.05,3.218,3.218,0,0,0-.452-3.511c-6.813-8.061-14.451-13.794-22.7-17.038a50.19,50.19,0,0,0-8.448-2.4c-3.6-.8-8.528-1.9-17.018-4.425a201.362,201.362,0,0,1-21.586-7.562,51.907,51.907,0,0,0-9.9-3.3h0A57.7,57.7,0,0,0,234.482,378.2Z" transform="translate(5.104 173.876)"/>
    <path id="Path_32" data-name="Path 32" d="M198.613,73.164c-6.99-2.82-14.26,1.642-16.237,9.97-.062.256-.113.533-.158.829-.119-.274-.242-.53-.366-.761-4.044-7.541-12.215-9.994-18.25-5.479s-7.648,14.291-3.6,21.833,27.1,21.978,27.1,21.978l-.006-.163.034.158s18.588-19.859,20.567-28.186S205.6,75.982,198.613,73.164Z" transform="translate(2.936 11.756)" fill="#00caf6"/>
    <path id="Path_33" data-name="Path 33" d="M188.318,126.932a7.3,7.3,0,0,1-3.926-1.145c-6.764-4.306-22.913-15.1-26.817-22.386-5.326-9.931-2.946-22.728,5.194-27.944,7.676-4.915,15-2.51,20.263,2.087,4.226-5.857,10.8-10.089,18.873-7.089,9.156,3.395,14.53,14.885,11.982,25.612-1.912,8.045-14.755,22.615-20.189,28.506A7.307,7.307,0,0,1,188.318,126.932ZM171.539,82.1a6.882,6.882,0,0,0-3.754,1.188c-4.069,2.606-5.03,10.1-2.016,15.721,1.991,3.711,12.439,11.7,22.217,18.036,7.827-8.632,15.881-19.025,16.856-23.127,1.449-6.1-1.433-12.99-6.17-14.747h0c-5.5-2.045-9.2,5.228-10.2,7.5a5.113,5.113,0,0,1-8.86.879C178,85.267,175.11,82.1,171.539,82.1Z" transform="translate(1.265 10.188)" fill="#001d27"/>
    <path id="Path_34" data-name="Path 34" d="M244.324,72.418c-4.48-6.062-13.011-6.063-19.054,0-.186.186-.375.4-.569.623q.065-.444.088-.84c.5-8.542-5.177-14.909-12.683-14.22s-14,8.172-14.5,16.715S209.192,107.6,209.192,107.6l.079-.143-.053.155s26.233-7.193,32.276-13.251S248.805,78.479,244.324,72.418Z" transform="translate(24.819 3.847)" fill="#ecc00b"/>
    <path id="Path_35" data-name="Path 35" d="M212.319,113.312a7.36,7.36,0,0,1-6.62-4.147c-3.5-7.2-11.6-24.829-11.11-33.07.66-11.251,9.385-20.908,19.051-21.09,9.111-.183,14.094,5.713,16.172,12.385,6.668-2.78,14.48-2.946,19.792,3.838h0c6.023,7.687,4.588,20.291-3.2,28.1-5.825,5.84-24.375,11.533-32.081,13.71A7.408,7.408,0,0,1,212.319,113.312ZM213.991,64.3c-.059,0-.116,0-.175,0-4.831.091-9.573,5.972-9.946,12.34-.223,3.8,3.646,14.768,9.488,27,13.019-3.779,23.785-8.192,26.467-10.881,4.429-4.439,5.578-11.82,2.464-15.8h0c-3.612-4.608-10.572-.358-12.619,1.054a5.112,5.112,0,0,1-8.009-3.886C221.422,70.443,220.108,64.3,213.991,64.3Z" transform="translate(23.158 2.24)" fill="#001d27"/>
    <path id="Path_36" data-name="Path 36" d="M437.755,352.306c7.34-1.717,13.842,3.807,14.522,12.337.022.262.029.545.029.844q.239-.381.477-.7c5.151-6.833,13.6-8.006,18.873-2.62s5.372,15.292.221,22.127-30.143,17.572-30.143,17.572l.031-.16-.059.152s-15.329-22.471-16.01-31S430.417,354.023,437.755,352.306Z" transform="translate(150.136 165.441)" fill="#00caf6"/>
    <path id="Path_37" data-name="Path 37" d="M444.365,407.4a7.309,7.309,0,0,1-6.076-3.242c-4.466-6.654-14.928-23.02-15.587-31.258-.877-10.991,6.193-21.523,15.76-23.478h0c8.434-1.72,14.285,3.46,17.567,9.9,5.9-3.737,13.51-4.994,20.342,1.04,7.249,6.4,7.641,19.408.857,28.407-4.974,6.6-22.584,14.8-29.924,18.018A7.3,7.3,0,0,1,444.365,407.4Zm-2.888-48.989a5.706,5.706,0,0,0-1.151.121h0c-4.948,1.012-8.852,7.38-8.353,13.63.336,4.2,6.7,15.7,13.12,25.434,10.63-4.769,22.178-11.06,24.713-14.426,3.84-5.093,4.038-12.646.415-15.844-4.7-4.148-9.75-.271-12.343,2.409a5.112,5.112,0,0,1-8.618-2.23C448.657,365.275,446.409,358.414,441.477,358.414Z" transform="translate(148.481 163.847)" fill="#001d27"/>
    <path id="Path_38" data-name="Path 38" d="M395.735,335.592c5.355-5.306,13.786-4,18.83,2.91.156.212.311.449.466.705,0-.3.019-.583.043-.844.81-8.519,7.4-13.941,14.71-12.113s12.582,10.219,11.77,18.738-16.485,30.75-16.485,30.75l-.056-.152.028.16s-24.823-11.121-29.868-18.033S390.38,340.9,395.735,335.592Z" transform="translate(131.401 151.1)" fill="#ecc00b"/>
    <path id="Path_39" data-name="Path 39" d="M425.769,381.228a7.356,7.356,0,0,1-3.063-.669c-7.281-3.328-24.741-11.792-29.607-18.456-6.5-8.905-5.989-21.58,1.139-28.255h0c6.288-5.887,13.983-4.528,20.145-.762,3.076-6.274,8.9-11.328,17.878-9.765,9.526,1.66,16.67,12.539,15.6,23.757-.781,8.217-11.479,24.4-16.042,30.981A7.353,7.353,0,0,1,425.769,381.228Zm-25.177-40.594c-3.688,3.452-3.68,10.923.017,15.986,2.241,3.071,12.2,9.079,24.49,14.8,7.645-11.192,13.148-21.444,13.509-25.229.6-6.35-3.181-12.886-7.941-13.716-6.179-1.071-8.451,4.872-9.255,8.513a5.114,5.114,0,0,1-8.51,2.614c-1.807-1.709-8.037-6.974-12.309-2.972Z" transform="translate(129.748 149.527)" fill="#001d27"/>
    <path id="Path_40" data-name="Path 40" d="M251.669,143.063c-15.331,0-27.76,15.45-27.76,34.508s12.429,34.508,27.76,34.508,27.76-15.45,27.76-34.508S267,143.063,251.669,143.063Zm-7.078,56.554a6.055,6.055,0,1,1,6.054-6.054A6.055,6.055,0,0,1,244.59,199.617Zm13.75-12.712a11.053,11.053,0,1,1,11.053-11.053A11.053,11.053,0,0,1,258.341,186.9Z" transform="translate(39.281 50.631)"/>
    <path id="Path_41" data-name="Path 41" d="M344.855,143.063c-15.331,0-27.76,15.45-27.76,34.508s12.429,34.508,27.76,34.508,27.76-15.45,27.76-34.508S360.185,143.063,344.855,143.063ZM338.182,186.9a11.053,11.053,0,1,1,11.053-11.053A11.054,11.054,0,0,1,338.182,186.9Zm13.752,12.712a6.055,6.055,0,1,1,6.054-6.054A6.054,6.054,0,0,1,351.934,199.617Z" transform="translate(90.488 50.631)"/>
    <g id="Group_23" data-name="Group 23" transform="translate(281.43 372.719)">
      <path id="Path_42" data-name="Path 42" d="M268.982,269.484c-.04-.1-.088-.2-.132-.307l.012.011a7.867,7.867,0,0,0-1.026-1.886c-.033-.05-.064-.1-.1-.149l-.014-.006a9.536,9.536,0,0,0-1.759-1.766,12.369,12.369,0,0,0-4.441-2.163,13.229,13.229,0,0,0-2.467-.418,17.161,17.161,0,0,0-2.476-.019,21.94,21.94,0,0,0-4.768.9c-.762.236-1.512.5-2.247.779s-1.453.6-2.143.922c-1.379.641-2.671,1.269-3.97,1.726a12.322,12.322,0,0,1-1.954.511,8.238,8.238,0,0,1-2.005.065,5.876,5.876,0,0,1-3.816-1.756,4.6,4.6,0,0,0,1.264,2.059,6.716,6.716,0,0,0,2.132,1.351,8.486,8.486,0,0,0,2.5.566,11.253,11.253,0,0,0,2.533-.141,25.177,25.177,0,0,0,4.576-1.331c1.405-.519,2.76-1.013,4.136-1.421a21.944,21.944,0,0,1,8.228-1.111c.13.011.26.025.39.039a5.428,5.428,0,0,1,3.379,1.658,9.1,9.1,0,0,1,2.064,3.675,8.91,8.91,0,0,1,.344,2.561,4.822,4.822,0,0,0-5.95-2.084,4.623,4.623,0,0,0-.68.335.429.429,0,0,0-.082.654,1.33,1.33,0,0,1,.3.66,1.345,1.345,0,0,1-1.867,1.438.425.425,0,0,0-.586.285,4.812,4.812,0,0,0,5.323,5.893,8.907,8.907,0,0,1-1.3.835,9.136,9.136,0,0,1-12.78-4.712,10.058,10.058,0,0,1-.245-6.373.268.268,0,0,0-.344-.338,11.258,11.258,0,0,1-1.68.422.875.875,0,0,0-.714.676,11.7,11.7,0,1,0,22.359-2.039Z" transform="translate(-235.68 -256.321)" fill="#192233"/>
      <path id="Path_43" data-name="Path 43" d="M289.668,261.3a8.254,8.254,0,0,1-1.951.466,12.346,12.346,0,0,1-2.021.022c-1.373-.1-2.784-.363-4.284-.617-.75-.127-1.531-.229-2.31-.324-.784-.076-1.576-.13-2.374-.157a21.955,21.955,0,0,0-4.836.392,16.784,16.784,0,0,0-2.383.672,13.162,13.162,0,0,0-2.268,1.054,12.38,12.38,0,0,0-3.713,3.26,9.48,9.48,0,0,0-1.229,2.168l-.012.009c-.02.056-.036.113-.054.169a7.905,7.905,0,0,0-.493,2.09l.009-.014c-.015.11-.033.218-.045.33a11.7,11.7,0,1,0,22.1-3.937.875.875,0,0,0-.866-.463,11.007,11.007,0,0,1-1.734.037.269.269,0,0,0-.242.417,10.049,10.049,0,0,1,1.447,6.212,9.137,9.137,0,0,1-11.084,7.92,8.956,8.956,0,0,1-1.469-.463,4.811,4.811,0,0,0,3.556-7.125.389.389,0,0,0-.589-.112,1.337,1.337,0,0,1-1.219.279,1.356,1.356,0,0,1-.993-1.145,1.327,1.327,0,0,1,.135-.755.391.391,0,0,0-.231-.559,4.632,4.632,0,0,0-.786-.155,4.823,4.823,0,0,0-5.188,3.582,8.938,8.938,0,0,1-.346-2.563,9.1,9.1,0,0,1,1.02-4.088,5.432,5.432,0,0,1,2.823-2.493c.121-.048.243-.1.366-.141a21.934,21.934,0,0,1,8.229-1.1c1.435.029,2.871.149,4.363.279a25.281,25.281,0,0,0,4.765.076,11.369,11.369,0,0,0,2.481-.535,8.483,8.483,0,0,0,2.262-1.206,6.722,6.722,0,0,0,1.7-1.866,4.622,4.622,0,0,0,.676-2.321A5.875,5.875,0,0,1,289.668,261.3Z" transform="translate(-221.418 -258.599)" fill="#192233"/>
      <path id="Path_44" data-name="Path 44" d="M264.038,275.25c-1.8,5.019-8.727,7.241-10.407,7.7a.307.307,0,0,0-.175.459c3.318,5.588,21.87,3.612,23.6-3.2a.308.308,0,0,0-.3-.392c-1.773.057-9.124-.22-12.193-4.639A.3.3,0,0,0,264.038,275.25Z" transform="translate(-225.937 -249.558)" fill="#ef9c06"/>
      <g id="Group_22" data-name="Group 22" transform="translate(14.696 32.481)">
        <path id="Path_45" data-name="Path 45" d="M249.247,287.166a6.835,6.835,0,0,0-.465-1.122,5.893,5.893,0,0,0-.451-.651,3.829,3.829,0,0,0-.44-.4,3.843,3.843,0,0,1-.789.947l.028.016a.545.545,0,0,1,.192.181,1.34,1.34,0,0,1,.178.248,6.109,6.109,0,0,1,.324.795,4.633,4.633,0,0,1,.215,1.6,4.024,4.024,0,0,1-.318,1.237.246.246,0,0,0,.079.307c.332.229.665.457,1,.683a.241.241,0,0,0,.356-.1,4.931,4.931,0,0,0,.386-1.559A5.59,5.59,0,0,0,249.247,287.166Z" transform="translate(-244.099 -276.575)" fill="#fff"/>
        <path id="Path_46" data-name="Path 46" d="M252.2,297.513a5.07,5.07,0,0,0-.273-1.134,9.864,9.864,0,0,0-1.08-2.084c-.425-.646-.9-1.278-1.36-1.867-.493-.618-.975-1.168-1.385-1.729-.229-.285-.435-.567-.617-.843s-.336-.566-.49-.834l-.009-.017a6.758,6.758,0,0,1-.347-.824,3.8,3.8,0,0,1-.232-.854,2.822,2.822,0,0,1-.062-.558,3.723,3.723,0,0,1-1.178,1.148c.026.081.036.155.067.239a7.981,7.981,0,0,0,.482,1.1,7.351,7.351,0,0,0,.615,1.044c.211.333.446.672.68.986.465.628.975,1.215,1.41,1.78s.871,1.13,1.237,1.7a8.613,8.613,0,0,1,.852,1.678,2.3,2.3,0,0,1,.178.79,3.755,3.755,0,0,1,.029.759,1.512,1.512,0,0,1-.187.576.326.326,0,0,1-.144.183.271.271,0,0,1-.161.062A.547.547,0,0,1,250,298.8a1.355,1.355,0,0,1-.276-.082l-.028-.029-.014.067c.017-.043-.082.288.014-.067a.122.122,0,0,0-.053-.036l-.026-.03-.026,0c-.028-.029-.053-.034-.056-.059a.221.221,0,0,1-.081-.065.128.128,0,0,0-.053-.034.383.383,0,0,0-.115-.143,3.393,3.393,0,0,1-.406-.7c-.105-.256-.214-.533-.3-.807l-.006-.025c-.06-.268-.122-.559-.161-.846a5.089,5.089,0,0,1-.043-.659.239.239,0,0,0-.158-.229q-.507-.179-1.01-.364a.241.241,0,0,0-.325.237c.009.22.029.445.059.662a8.739,8.739,0,0,0,.214,1.06,5.305,5.305,0,0,0,.389,1.125,4.9,4.9,0,0,0,.707,1.178A3.728,3.728,0,0,0,249.493,300a3.8,3.8,0,0,0,.691.263l.034.009a2.346,2.346,0,0,0,.685.02,1.487,1.487,0,0,0,.617-.257,1.378,1.378,0,0,0,.378-.428,2.445,2.445,0,0,0,.321-1.018l0-.022A5.054,5.054,0,0,0,252.2,297.513Z" transform="translate(-245.164 -275.6)" fill="#fff"/>
        <path id="Path_47" data-name="Path 47" d="M252.8,300.632c.79.105,1.581.2,2.372.274a.24.24,0,0,1,.215.208l.132.982a.243.243,0,0,1-.265.274q-1.33-.132-2.659-.318a1.805,1.805,0,0,1-1.447-1.416c-.081-.505-.16-1.01-.24-1.515-.088-.654-.2-1.336-.294-2.013-.2-1.336-.386-2.692-.566-4.023-.322-2.575-.623-5.148-.834-7.706a.242.242,0,0,1,.29-.257c.336.067.671.13,1.007.192a.242.242,0,0,1,.2.215c.229,2.586.508,5.178.857,7.78.155,1.328.333,2.659.541,4.018.088.654.2,1.336.316,1.993l.17,1.106A.243.243,0,0,0,252.8,300.632Z" transform="translate(-242.936 -276.508)" fill="#fff"/>
        <path id="Path_48" data-name="Path 48" d="M257.151,285.81a.24.24,0,0,1,.239.2q.646,4,1.147,8c.184,1.379.321,2.758.431,4.137.045.336.067.672.09,1.032v.017c0,.356,0,.711-.025,1.089l0,.025a3.973,3.973,0,0,1-.27,1.117l-.056.143c-.022.023-.019.048-.04.071l-.04.071-.081.143a.521.521,0,0,0-.105.141,1.906,1.906,0,0,1-.267.232.774.774,0,0,1-.16.115c-.046.023-.09.07-.136.091-.025,0-.046.022-.071.022l-.046.022c-.022.023-.071.022-.095.045-.071.02-.121.019-.192.039a.951.951,0,0,1-.391.053,1.846,1.846,0,0,1-.885-.122,1.2,1.2,0,0,1-.237-.112,2.2,2.2,0,0,1-.212-.11,1.137,1.137,0,0,0-.217-.136l-.084-.077-.11-.081c-.031-.051-.113-.105-.147-.18l-.144-.155a1.332,1.332,0,0,1-.149-.178c-.031-.051-.088-.1-.119-.153a5.5,5.5,0,0,1-.593-1.3c-.13-.418-.232-.81-.335-1.2-.328-1.537-.581-3.042-.779-4.52q-.339-2.255-.6-4.5c-.163-1.374-.327-2.772-.47-4.148a.242.242,0,0,1,.267-.265c.336.036.671.068,1.007.1a.24.24,0,0,1,.217.215c.147,1.43.313,2.839.479,4.249.174,1.475.375,2.977.6,4.455s.471,2.96.792,4.421c.07.336.167.7.259,1.015l.006.02a4.163,4.163,0,0,0,.409.857.789.789,0,0,0,.237.279l.031.05.025,0c0,.023.028.025.056.051,0,0,.026,0,.029.025l.05,0a.507.507,0,0,0,.277.04.3.3,0,0,0,.147-.017c.025,0,.046-.022.071-.02l.022-.023.025,0a.711.711,0,0,0,.346-.392,2.822,2.822,0,0,0,.17-.764,5.143,5.143,0,0,0,0-.914c.008-.313-.04-.677-.057-.99-.108-1.353-.265-2.709-.422-4.063-.328-2.617-.707-5.258-1.13-7.9a.24.24,0,0,1,.242-.279C256.483,285.8,256.818,285.808,257.151,285.81Z" transform="translate(-241.411 -276.362)" fill="#fff"/>
        <path id="Path_49" data-name="Path 49" d="M263.4,297.855a4.509,4.509,0,0,1,.274,1.1,5.418,5.418,0,0,1,.022,1.1,3.164,3.164,0,0,1-.322,1.151,2,2,0,0,1-.982.962l-.034.015a2.417,2.417,0,0,1-.669.152.151.151,0,0,1-.037,0,3.034,3.034,0,0,1-.7-.09,2.612,2.612,0,0,1-1.254-.764,3.566,3.566,0,0,1-.714-1.03,4.384,4.384,0,0,1-.392-1.061,7.79,7.79,0,0,1-.214-1.04,7.405,7.405,0,0,1-.064-.769.24.24,0,0,1,.271-.242c.342.039.686.074,1.029.108a.241.241,0,0,1,.217.243,5.093,5.093,0,0,0,.042.628c.039.285.1.57.161.832l.008.028a7.88,7.88,0,0,0,.3.755,2.453,2.453,0,0,0,.409.617.281.281,0,0,1,.115.118.094.094,0,0,1,.054.022c.028.023.056.046.081.045,0,.025.028.023.057.047h.025l.028.022a.091.091,0,0,1,.053.023c-.1.394,0,.023-.015.073l.015-.073.028.023a1.248,1.248,0,0,0,.277.011.555.555,0,0,0,.222-.036.375.375,0,0,0,.161-.105.482.482,0,0,0,.144-.228,1.957,1.957,0,0,0,.189-.646,3.918,3.918,0,0,0-.029-.779,2.044,2.044,0,0,0-.178-.77,6.521,6.521,0,0,0-.855-1.512,17.354,17.354,0,0,0-1.244-1.43c-.44-.471-.953-.942-1.424-1.467-.236-.263-.474-.55-.688-.84a5.558,5.558,0,0,1-.623-.916,6.121,6.121,0,0,1-.485-1.016,5.768,5.768,0,0,1-.319-1.066,5.261,5.261,0,0,1,.057-2.179,5.01,5.01,0,0,1,.44-.995,1.322,1.322,0,0,0,.17-.22,1.643,1.643,0,0,1,.2-.222.726.726,0,0,1,.2-.2c.068-.06.136-.121.2-.183l.037-.028a2.861,2.861,0,0,1,1.145-.462,2.344,2.344,0,0,1,.7-.031,2.207,2.207,0,0,1,.751.178,2.383,2.383,0,0,1,.634.423,4.118,4.118,0,0,1,.451.555,5.82,5.82,0,0,1,.759,3.218,6.329,6.329,0,0,1-.412,1.785.245.245,0,0,1-.325.133c-.321-.141-.643-.284-.964-.428a.246.246,0,0,1-.124-.318,5.078,5.078,0,0,0,.319-1.364,4.378,4.378,0,0,0-.215-1.6,4.9,4.9,0,0,0-.325-.738.959.959,0,0,0-.178-.211.383.383,0,0,0-.194-.136,1.761,1.761,0,0,0-.209-.062,1.132,1.132,0,0,0-.27.036,1.262,1.262,0,0,0-.569.24l-.048.026-.065.076a.523.523,0,0,0-.132.125l-.108.124a.553.553,0,0,1-.105.149,2.814,2.814,0,0,0-.285.621l-.009.036a3.534,3.534,0,0,0-.012,1.536,3.308,3.308,0,0,0,.235.821,5.25,5.25,0,0,0,.349.758l.012.02c.155.237.313.5.493.731a7.526,7.526,0,0,0,.621.708c.414.473.9.914,1.393,1.424a19.039,19.039,0,0,1,1.367,1.574A7.383,7.383,0,0,1,263.4,297.855Z" transform="translate(-239.069 -276.287)" fill="#fff"/>
        <path id="Path_50" data-name="Path 50" d="M266.973,293.325c.342,2.735.752,5.434,1.209,8.126a.241.241,0,0,1-.189.277q-.509.107-1.018.2a.243.243,0,0,1-.287-.2c-.459-2.712-.848-5.434-1.19-8.163-.09-.668-.177-1.317-.248-1.983a.24.24,0,0,0-.273-.212q-1.027.146-2.059.262a.241.241,0,0,0-.214.266c.071.673.163,1.343.253,2.014.342,2.729.728,5.43,1.182,8.123a.241.241,0,0,1-.2.279c-.335.05-.668.1-1,.143a.245.245,0,0,1-.273-.2c-.46-2.721-.851-5.45-1.218-8.18-.341-2.729-.66-5.459-.888-8.2a.243.243,0,0,1,.229-.262c.336-.019.674-.039,1.01-.062a.241.241,0,0,1,.256.22q.184,2.1.428,4.188a.246.246,0,0,0,.27.215q1.037-.119,2.07-.265a.242.242,0,0,0,.206-.268c-.166-1.422-.313-2.85-.442-4.3a.242.242,0,0,1,.214-.263q.514-.058,1.023-.124a.242.242,0,0,1,.271.218C266.316,287.911,266.633,290.62,266.973,293.325Z" transform="translate(-236.706 -276.592)" fill="#fff"/>
        <path id="Path_51" data-name="Path 51" d="M268.665,284.3q.5-.079,1.006-.164a.24.24,0,0,1,.282.229c.1,2.716.174,5.439.229,8.188.014,1.4.029,2.823,0,4.26,0,.3-.022.6-.029.9l-.02.6-.039.614,0,.017c-.028.155-.029.327-.056.505a7.709,7.709,0,0,1-.118.979,2.327,2.327,0,0,1-.253.736,1.19,1.19,0,0,1-.3.394c-.047.036-.116.076-.186.118l-.1.022-.068.04-.1.022-.125,0c-.051-.012-.076-.008-.129-.02s-.127-.022-.18-.036a.872.872,0,0,1-.366-.3,4.206,4.206,0,0,1-.685-1.548c-.047-.164-.094-.328-.141-.494l-.107-.425-.121-.524c-.095-.328-.167-.686-.237-1.021-.308-1.354-.567-2.721-.8-4.091-.5-2.656-.937-5.326-1.348-8a.243.243,0,0,1,.189-.274c.328-.07.659-.143.987-.218a.241.241,0,0,1,.293.2c.428,2.637.858,5.295,1.333,7.92.259,1.364.514,2.7.793,4.036.07.333.139.668.234.995l.124.545.028-.53c.028-.355.031-.7.034-1.055.04-1.382.026-2.778.011-4.2-.047-2.715-.122-5.45-.242-8.175A.238.238,0,0,1,268.665,284.3Z" transform="translate(-234.442 -277.048)" fill="#fff"/>
        <path id="Path_52" data-name="Path 52" d="M271.005,291.99c.344,2.747.731,5.456,1.185,8.144a.241.241,0,0,1-.16.27q-.481.165-.965.325a.244.244,0,0,1-.316-.192c-.454-2.688-.841-5.4-1.205-8.11-.344-2.747-.666-5.5-.9-8.281a.241.241,0,0,1,.184-.256q.486-.116.968-.242a.241.241,0,0,1,.3.211C270.348,286.587,270.643,289.3,271.005,291.99Z" transform="translate(-232.261 -277.319)" fill="#fff"/>
        <path id="Path_53" data-name="Path 53" d="M274.025,298.2q1.011-.367,2.011-.765a.241.241,0,0,1,.328.192l.132.982a.243.243,0,0,1-.15.259q-1.248.5-2.512.948a1.1,1.1,0,0,1-1.5-.889c-.073-.46-.146-.919-.22-1.379-.087-.654-.2-1.323-.293-2-.2-1.323-.384-2.679-.564-4.01-.329-2.63-.637-5.267-.854-7.935a.243.243,0,0,1,.175-.253c.318-.091.637-.184.953-.28a.241.241,0,0,1,.31.209c.236,2.606.514,5.2.858,7.762.156,1.34.335,2.671.541,4.019.088.652.2,1.322.315,1.968l.15.982A.244.244,0,0,0,274.025,298.2Z" transform="translate(-231.297 -277.638)" fill="#fff"/>
        <path id="Path_54" data-name="Path 54" d="M276.9,297.031q.969-.43,1.924-.889a.241.241,0,0,1,.344.184l.132.973a.247.247,0,0,1-.136.253q-1.213.586-2.447,1.123a1.027,1.027,0,0,1-1.5-.818q-.107-.674-.214-1.35c-.088-.652-.2-1.322-.293-2-.2-1.322-.384-2.678-.564-4.009-.33-2.637-.638-5.282-.86-7.963a.244.244,0,0,1,.16-.248q.465-.17.925-.344a.241.241,0,0,1,.325.2c.237,2.606.518,5.192.862,7.752.156,1.342.335,2.673.541,4.018.088.654.2,1.322.311,1.966l.149.959A.243.243,0,0,0,276.9,297.031Z" transform="translate(-229.709 -278.26)" fill="#fff"/>
        <path id="Path_55" data-name="Path 55" d="M276.235,281.465q1.764-.883,3.486-1.872a.241.241,0,0,1,.36.177l.126.936a.245.245,0,0,1-.119.243q-1.239.714-2.5,1.376l0,.023.009.254.108.981c.062.64.124,1.281.189,1.946l.026.2q1.12-.574,2.225-1.192a.24.24,0,0,1,.356.178l.13.959a.25.25,0,0,1-.124.246q-1.123.621-2.265,1.2a.242.242,0,0,0-.132.242c.073.68.163,1.353.253,2.024q.225,1.943.517,3.849c.107.618.192,1.247.3,1.889l.149.933.033.242,0,.025q1.22-.637,2.417-1.325a.241.241,0,0,1,.359.177l.126.934a.243.243,0,0,1-.119.243q-1.773,1.025-3.6,1.94a.244.244,0,0,1-.35-.178l-.215-1.322-.175-.947c-.085-.629-.2-1.271-.284-1.925-.2-1.272-.367-2.555-.541-3.838s-.325-2.6-.452-3.906c-.065-.666-.15-1.3-.215-1.96l-.084-.99L276.1,281.7A.24.24,0,0,1,276.235,281.465Z" transform="translate(-228.163 -279.561)" fill="#fff"/>
      </g>
    </g>
  </g>
</svg>
