<svg version="1.2" xmlns="http://www.w3.org/2000/svg" viewBox="0 0 256 256" width="256" height="256">
	<title>down-svg</title>
	<style>
		.s0 { fill: #f5ff7a } 
	</style>
	<path id="Layer" fill-rule="evenodd" class="s0" d="m128 256c-70.6 0-128-57.4-128-128 0-70.6 57.4-128 128-128 70.6 0 128 57.4 128 128 0 70.6-57.4 128-128 128zm0-243.2c-63.5 0-115.2 51.7-115.2 115.2 0 63.5 51.7 115.2 115.2 115.2 63.5 0 115.2-51.7 115.2-115.2 0-63.5-51.7-115.2-115.2-115.2zm56.7 143.6c-1.6 0-3.2-0.7-4.5-1.9l-52.2-52.2-52.2 52.2c-2.5 2.5-6.6 2.5-9.1 0-2.5-2.5-2.5-6.6 0-9.1l56.8-56.7c1.2-1.2 2.8-1.9 4.5-1.9 1.7 0 3.3 0.7 4.5 1.9l56.8 56.7c2.5 2.5 2.5 6.6 0 9.1-1.3 1.2-2.9 1.9-4.6 1.9z"/>
</svg>