<svg xmlns="http://www.w3.org/2000/svg" width="44.978" height="50.639" viewBox="0 0 44.978 50.639">
  <g id="Group_109" data-name="Group 109" transform="translate(0 0)">
    <path id="Path_295" data-name="Path 295" d="M3724.01-292.092c-.2-.073-.4-.144-.591-.22a3.163,3.163,0,0,1-2.01-3.06c-.012-2.192,0-4.383,0-6.575q0-3.263,0-6.525a3.18,3.18,0,0,1,.024-.542.659.659,0,0,1,.636-.586.659.659,0,0,1,.76.487,2.234,2.234,0,0,1,.062.635q.006,5.635,0,11.271v.676l15.862-8.714-15.79-15.884c-.027.327-.069.591-.069.855q-.008,3.881,0,7.761c0,.788-.25,1.155-.771,1.138-.5-.016-.714-.351-.714-1.134,0-2.587.018-5.174-.008-7.761a3.6,3.6,0,0,1,1.183-2.815c.831-.776,1.636-1.58,2.428-2.4a1.014,1.014,0,0,0,.264-.635c.02-2.01.007-4.02.013-6.031a3.186,3.186,0,0,1,3.379-3.372q3.041-.012,6.082.005a1.106,1.106,0,0,0,.868-.344c1.941-1.927,3.9-3.838,5.851-5.755a3.191,3.191,0,0,1,4.846-.006c1.964,1.928,3.921,3.862,5.9,5.774a1.223,1.223,0,0,0,.765.31c2.027.025,4.054.01,6.082.015a3.2,3.2,0,0,1,3.437,3.416c0,.494.008.989,0,1.483a.738.738,0,0,1-.748.8.744.744,0,0,1-.732-.776c-.019-.527,0-1.054-.007-1.582a1.709,1.709,0,0,0-1.889-1.853q-7.713-.008-15.426-.007-7.441,0-14.882,0c-1.418,0-2.037.625-2.037,2.055q0,6.006,0,12.013a1,1,0,0,0,.318.777q6.431,6.4,12.84,12.819a.489.489,0,0,0,.715.092c.58-.345,1.175-.666,1.774-.975a3.05,3.05,0,0,1,2.9-.027q.949.475,1.862,1.019a.463.463,0,0,0,.671-.1q6.429-6.435,12.863-12.866a1.136,1.136,0,0,0,.284-.726c.021-2.389.008-4.779.02-7.168a1.042,1.042,0,0,1,.17-.688.962.962,0,0,1,.759-.256.909.909,0,0,1,.523.6c.086.428,0,.888.043,1.329a1.211,1.211,0,0,0,.286.676c.814.84,1.653,1.656,2.5,2.467a3.389,3.389,0,0,1,1.087,2.556q-.007,12.507-.005,25.014a3.13,3.13,0,0,1-2.481,3.252.5.5,0,0,0-.121.081h-8.8a.848.848,0,0,1-.484-1.022c.148-.449.546-.5.971-.5,2.488.008,4.976,0,7.464,0a1.885,1.885,0,0,0,1.479-.551c.464-.5.439-.647-.162-.977q-9.582-5.272-19.158-10.553a2.2,2.2,0,0,0-2.356-.006c-4.529,2.521-9.079,5-13.622,7.5-1.9,1.046-3.8,2.105-5.715,3.13-.406.217-.417.453-.148.716a3.184,3.184,0,0,0,.9.638,2.221,2.221,0,0,0,.873.1q13.149.007,26.3,0c.132,0,.265.008.4,0,.425-.03.823.042.974.491a.854.854,0,0,1-.479,1.025Zm40.823-29.046-15.784,15.9,15.784,8.666Zm-27.31-14.441h12.72a1.632,1.632,0,0,0-.138-.194c-1.666-1.64-3.325-3.288-5-4.915a1.636,1.636,0,0,0-2.458.033q-2.421,2.364-4.826,4.744C3737.728-335.823,3737.65-335.724,3737.523-335.579Zm-13.339,13.2,1.056,1.27v-2.371Zm38.37-1.185v2.393l1.2-1.16Z" transform="translate(-3721.397 342.731)"/>
    <path id="Path_296" data-name="Path 296" d="M3763.072-50.978a.854.854,0,0,0,.48-1.025c-.15-.448-.549-.521-.974-.491-.131.009-.264,0-.4,0q-13.149,0-26.3,0a2.22,2.22,0,0,1-.873-.1,3.177,3.177,0,0,1-.9-.638c-.269-.263-.258-.5.148-.716,1.915-1.025,3.812-2.084,5.715-3.13,4.542-2.5,9.092-4.98,13.622-7.5a2.2,2.2,0,0,1,2.356.006q9.568,5.3,19.158,10.553c.6.331.626.476.162.977a1.886,1.886,0,0,1-1.479.551c-2.488,0-4.976.007-7.464,0-.425,0-.823.047-.971.5a.849.849,0,0,0,.485,1.022Z" transform="translate(-3732.273 101.617)" fill="#fc8095"/>
    <path id="Path_297" data-name="Path 297" d="M3844.728-234.156c-1.791,1.269-3.456,1.158-4.654-.356a4.526,4.526,0,0,1-.65-4.748,3.416,3.416,0,0,1,2.432-2.132,3.044,3.044,0,0,1,2.536.45c.042-.054.073-.077.076-.1.087-.665.324-.936.8-.914s.7.33.7.994c0,1.8-.007,3.592-.02,5.389,0,.45.039.9.5,1.094a1.2,1.2,0,0,0,1.243-.269,3.5,3.5,0,0,0,1.028-2.186c.6-2.735-1.551-5.545-4.312-6.243a6.023,6.023,0,0,0-7.34,4.61,5.99,5.99,0,0,0,5.1,7.123c.2.024.394.043.589.068a.736.736,0,0,1,.724.775.762.762,0,0,1-.9.7,7.553,7.553,0,0,1-3.8-1.261,7.433,7.433,0,0,1-3.032-8.233,7.448,7.448,0,0,1,6.937-5.44,7.43,7.43,0,0,1,7.269,4.915,6.4,6.4,0,0,1-.5,5.343,2.993,2.993,0,0,1-2.538,1.648A2.241,2.241,0,0,1,3844.728-234.156Zm-.2-3.326a9.888,9.888,0,0,0-.294-1.287,1.679,1.679,0,0,0-1.368-1.208,1.824,1.824,0,0,0-1.764.768,3.168,3.168,0,0,0,.245,3.913,1.556,1.556,0,0,0,2.479-.145A3.653,3.653,0,0,0,3844.525-237.483Z" transform="translate(-3820.389 257.775)"/>
    <path id="Path_298" data-name="Path 298" d="M3843.485-325.709c.127-.144.2-.244.294-.332q2.411-2.374,4.826-4.744a1.637,1.637,0,0,1,2.458-.033c1.679,1.627,3.338,3.275,5,4.915a1.632,1.632,0,0,1,.138.194Z" transform="translate(-3827.359 332.86)" fill="#fc8095"/>
    <path id="Path_299" data-name="Path 299" d="M3877.916-205.623a3.652,3.652,0,0,1-.7,2.041,1.556,1.556,0,0,1-2.479.145,3.168,3.168,0,0,1-.245-3.913,1.824,1.824,0,0,1,1.764-.768,1.679,1.679,0,0,1,1.368,1.208A9.886,9.886,0,0,1,3877.916-205.623Z" transform="translate(-3853.78 225.916)" fill="#fc8095"/>
  </g>
</svg>
