<svg xmlns="http://www.w3.org/2000/svg" width="47.793" height="54" viewBox="0 0 47.793 54">
  <g id="Group_108" data-name="Group 108" transform="translate(-3792.496 355.454)">
    <g id="Group_106" data-name="Group 106" transform="translate(3792.496 -355.454)">
      <path id="Path_286" data-name="Path 286" d="M4280.2-355.454c1.111.238,2.244.4,3.329.729a11.72,11.72,0,0,1,5.1,3.139,6.961,6.961,0,0,0,.958.809,6.336,6.336,0,0,1,2.715,4.908c.163,2.433.093,4.88.139,7.321a3.751,3.751,0,0,0,.166,1.023,3.039,3.039,0,0,1-2.77,3.79c-.139.011-.278,0-.431,0-.146.624-.257,1.225-.427,1.808a9.982,9.982,0,0,1-4.171,5.7.982.982,0,0,0-.509.975c.07,1.9-.332,1.4,1.511,2.059a3.291,3.291,0,0,0,1.078.173q7.909.016,15.818,0a2.348,2.348,0,0,1,1.8.59,2.016,2.016,0,0,1,.61,1.468c0,.949.011,1.9,0,2.847-.006.581-.312.933-.774.936s-.785-.344-.8-.924c-.019-.808-.005-1.617-.007-2.425,0-.844-.059-.9-.895-.9H4286.2c-1.687,0-3.375,0-5.062,0-.684,0-.8.114-.8.8q0,6.881,0,13.762c0,.644.133.774.769.774q10.835,0,21.671,0c.67,0,.761-.09.762-.767q0-3.48,0-6.96c0-.84.271-1.244.818-1.229.523.014.763.393.764,1.215q0,3.844,0,7.682c.044.021.074.048.1.048a2,2,0,0,1,2.134,1.294,2.579,2.579,0,0,1-.859,2.7,3.047,3.047,0,0,1-2.06.654q-7.593-.011-15.185,0c-1.2,0-2.391,0-3.586,0-.66,0-1.033-.3-1.029-.8s.379-.781,1.045-.781q9.36,0,18.719,0a1.335,1.335,0,0,0,1.35-.623c.292-.536.12-.848-.477-.848q-13.34,0-26.68,0c-.573,0-.746.3-.479.816a1.168,1.168,0,0,0,1.12.65c.756,0,1.512,0,2.268,0,.627,0,.993.285,1.01.763.018.5-.363.816-1.009.817q-9.281,0-18.56,0a2.952,2.952,0,0,1-2.939-1.567,3.478,3.478,0,0,1-.243-2.265q1.121-5.682,2.257-11.361a5.3,5.3,0,0,1,3.82-4.217c2.563-.852,5.1-1.773,7.657-2.658a.647.647,0,0,0,.488-.647,2.139,2.139,0,0,0-1.077-2.262,9.741,9.741,0,0,1-4.205-6.786c-.025-.155-.062-.308-.1-.476a3.392,3.392,0,0,1-2.632-1.143,2.7,2.7,0,0,1-.568-2.749,2.674,2.674,0,0,0,.132-.767c.044-1.738,0-3.482.128-5.214a12.185,12.185,0,0,1,1.647-5.067.781.781,0,0,1,1.079-.353.815.815,0,0,1,.305,1.1c-.414,1.04-.908,2.057-1.217,3.128a18.853,18.853,0,0,0-.35,5.331l1.3-.221a13.377,13.377,0,0,1,1.23-2.022,3.794,3.794,0,0,1,3.547-1.164,12.955,12.955,0,0,0,7.975-1.308,17.98,17.98,0,0,0,2.1-1.4,1.608,1.608,0,0,1,2.561.421,3.358,3.358,0,0,0,2.39,1.637,1.262,1.262,0,0,1,1.185,1.423c.018.788,0,1.577,0,2.376l1.365.256c.02-.029.054-.055.054-.081-.025-2.054.045-4.116-.109-6.16a4.675,4.675,0,0,0-2.474-4.042,1.579,1.579,0,0,1-.39-.348c-2.889-3.156-6.52-4.161-10.655-3.631a11.338,11.338,0,0,0-6.072,2.82c-.093.081-.187.16-.286.233a.783.783,0,0,1-1.127-.071.763.763,0,0,1,.134-1.122,22.457,22.457,0,0,1,2.322-1.723,12.661,12.661,0,0,1,5.613-1.8,1.486,1.486,0,0,0,.3-.086Zm4.213,11.06a2.108,2.108,0,0,0-.194.124,14.248,14.248,0,0,1-11.265,2.982,2.313,2.313,0,0,0-2.8,2.412c-.022,1.492-.029,2.986.019,4.478a8.1,8.1,0,0,0,2.223,5.488,9,9,0,0,0,7.918,2.794,8.792,8.792,0,0,0,7.464-7.9c.078-2.509.04-5.021.069-7.532,0-.34-.134-.444-.437-.516a4.364,4.364,0,0,1-2.464-1.606C4284.767-343.9,4284.6-344.144,4284.417-344.395Zm-10.473,22.405a1.054,1.054,0,0,0-.132.024c-2.619.906-5.247,1.784-7.851,2.73a3.483,3.483,0,0,0-2.339,2.7c-.282,1.375-.557,2.751-.833,4.127-.192.956-.381,1.913-.575,2.884h4.712a9.1,9.1,0,0,1,.008-1.037.726.726,0,0,1,.775-.706.744.744,0,0,1,.774.712,3,3,0,0,1,.014.473q0,2.951,0,5.9v1.114h8.149a2.3,2.3,0,0,1,.115-2.195,2.184,2.184,0,0,1,1.982-.853v-12.4C4274.984-319.253,4274.315-319.737,4273.945-321.989Zm-7.048,14.113h-5.025c-.2,1.079-.434,2.138-.582,3.209-.128.926.266,1.521,1.137,1.567,1.48.079,2.967.022,4.47.022Zm11.82-12.2c.017-.246.035-.4.037-.552a2.13,2.13,0,0,1,2.417-2.386c.506,0,1.012,0,1.531,0v-2.072a10.6,10.6,0,0,1-7.133.1c0,1.043-.026,2.027.009,3.008a1.5,1.5,0,0,0,1.11,1.453C4277.333-320.331,4278.008-320.233,4278.717-320.081Zm10.731-15.233a1.644,1.644,0,0,0,1.515-.738,1.115,1.115,0,0,0-.044-1.33,1.6,1.6,0,0,0-1.471-.664Zm-20.9-2.738a1.61,1.61,0,0,0-1.548.787,1.108,1.108,0,0,0,.078,1.285,1.605,1.605,0,0,0,1.47.657Z" transform="translate(-4259.683 355.454)"/>
      <path id="Path_287" data-name="Path 287" d="M4489.461-56.921a2.6,2.6,0,0,1-2.618,2.6,2.6,2.6,0,0,1-2.592-2.619,2.6,2.6,0,0,1,2.616-2.6A2.6,2.6,0,0,1,4489.461-56.921Zm-1.585,0a1.02,1.02,0,0,0-.981-1.029,1.006,1.006,0,0,0-1.054,1,1.015,1.015,0,0,0,.974,1.034A1.029,1.029,0,0,0,4487.875-56.919Z" transform="translate(-4454.589 98.627)"/>
      <path id="Path_289" data-name="Path 289" d="M4290.587-102.1c.37,2.252,1.039,2.737,4.8,3.478v12.4a2.185,2.185,0,0,0-1.982.853,2.306,2.306,0,0,0-.114,2.195h-8.149v-1.114q0-2.951,0-5.9a3,3,0,0,0-.014-.473.745.745,0,0,0-.774-.712.726.726,0,0,0-.775.706,9.1,9.1,0,0,0-.008,1.037h-4.712c.193-.971.383-1.928.575-2.884.276-1.376.551-2.752.833-4.127a3.483,3.483,0,0,1,2.339-2.7c2.6-.946,5.232-1.824,7.85-2.73A1.085,1.085,0,0,1,4290.587-102.1Z" transform="translate(-4276.325 135.56)" fill="#fc7f8e"/>
      <path id="Path_290" data-name="Path 290" d="M4277.3,4.757v4.8c-1.5,0-2.99.057-4.47-.022-.872-.046-1.265-.641-1.137-1.567.148-1.071.382-2.13.582-3.209Z" transform="translate(-4270.088 42.821)" fill="#fff"/>
      <path id="Path_291" data-name="Path 291" d="M4383.046-120.567c-.709-.152-1.385-.25-2.028-.449a1.5,1.5,0,0,1-1.109-1.453c-.035-.981-.009-1.965-.009-3.008a10.6,10.6,0,0,0,7.133-.1v2.072c-.521,0-1.026,0-1.531,0a2.13,2.13,0,0,0-2.417,2.386C4383.081-120.965,4383.063-120.812,4383.046-120.567Z" transform="translate(-4364.013 155.94)" fill="#fc7f8e"/>
      <path id="Path_292" data-name="Path 292" d="M4485.037-220.941v-2.732a1.6,1.6,0,0,1,1.471.664,1.115,1.115,0,0,1,.044,1.33A1.644,1.644,0,0,1,4485.037-220.941Z" transform="translate(-4455.271 241.081)" fill="#fc7f8e"/>
      <path id="Path_293" data-name="Path 293" d="M4315.5-223.7v2.729a1.606,1.606,0,0,1-1.47-.657,1.107,1.107,0,0,1-.078-1.285A1.61,1.61,0,0,1,4315.5-223.7Z" transform="translate(-4306.638 241.101)" fill="#fc7f8e"/>
      <path id="Path_294" data-name="Path 294" d="M4498.324-46.453a1.029,1.029,0,0,1-1.061,1.007,1.015,1.015,0,0,1-.974-1.034,1.006,1.006,0,0,1,1.054-1A1.02,1.02,0,0,1,4498.324-46.453Z" transform="translate(-4465.037 88.16)" fill="#fc7f8e"/>
    </g>
  </g>
</svg>
