<svg xmlns="http://www.w3.org/2000/svg" width="1112.365" height="765.638" viewBox="0 0 1112.365 765.638">
  <g id="Group_133" data-name="Group 133" transform="translate(-415.817 -2021.997)">
    <g id="Group_132" data-name="Group 132">
      <g id="Group_114" data-name="Group 114" transform="translate(415.817 2352)">
        <g id="Group_86" data-name="Group 86" transform="translate(0 0)">
          <path id="Path_163" data-name="Path 163" d="M1466.305,300.655c8.776-22.716-.06-45.473-.738-47.149a65.569,65.569,0,0,0-23.632-29.123,7.921,7.921,0,0,0-12.313,5.429q-9.53,65.5-19.061,131a7.939,7.939,0,0,0,11.9,7.986c10.648-6.47,16.479-13.568,19.921-19.436,3.35-5.71,3.163-8.083,9.783-21.981C1460.607,309.647,1463.187,308.727,1466.305,300.655Z" transform="translate(-1382.914 -20.2)" fill="#ecc00b"/>
          <path id="Path_164" data-name="Path 164" d="M1468.579,265.877c-1.691,1.449-5.439-3.235-11.569-3.138-8.413.132-14.662,9.167-17.459,13.325-9.786,14.542-10.366,28.851-13.014,51.743-1.208,10.441-3.224,25.94-6.589,45.036-2.972-.707-6.722-2.157-8.87-5.464-4.158-6.4.4-15.575,3.3-23.313.807-2.158,2.725-16.465,6.56-45.083,3.054-22.791,3.022-27.008,5.868-45.176,1.656-10.576,3.241-19.19,4.311-24.777a13.592,13.592,0,0,1,7.885-2.925c7.205-.064,12.306,7.005,18.711,16.143C1462.784,249.488,1471.362,263.5,1468.579,265.877Z" transform="translate(-1383.33 -18.982)" fill="#ef9c06"/>
          <path id="Path_165" data-name="Path 165" d="M1433.628,347.259c0,32.03.528,76.738,21.511,97.735s62.463,18.283,94.507,18.283H1775.4c58.087.114,117.59-53.006,117.591-121.194,0-118.294-141.092-110.855-141.092-110.855a142.446,142.446,0,0,1-72.151-20.14c-21.385-12.577-47.682-19.992-76.113-19.992-46.724,0-87.7,20.039-110.576,50.112a72.5,72.5,0,0,1-13.724,13.765A115.792,115.792,0,0,0,1433.628,347.259Z" transform="translate(-1373.893 -32.622)" fill="#ff959e"/>
          <path id="Path_166" data-name="Path 166" d="M1453.792,325.933c-.535-24.346-17.369-42.024-18.635-43.317a65.581,65.581,0,0,0-32.939-17.933,7.92,7.92,0,0,0-9.319,9.709q16.123,64.193,32.249,128.388a7.939,7.939,0,0,0,14.041,2.856c7.382-10.037,10.072-18.819,11.021-25.557.923-6.555-.153-8.678.677-24.05C1451.944,336.417,1453.981,334.586,1453.792,325.933Z" transform="translate(-1389.857 -4.026)" fill="#ecc00b"/>
          <path id="Path_167" data-name="Path 167" d="M1807.441,235.057c23.758,10.951,27.2,35.292,27.506,37.793,2.517,20.534-11.919,35.949-17.364,41.763-36.137,38.586-111.253,41.346-201.574,44.665-50.83,1.868-86.327-.892-120.794-13.921-39.86-15.067-47.987-32.393-49.715-36.5-1.319-3.134-.835-12.166,5.467-25.884,4.8-10.451,11.452-17.61,24.319-27.119,3.912-2.89.361-5.678,13.027-14.328,17.633-12.042,19-13.6,25.7-17.869,6.856-4.361,13.568-16.532,29.865-21.718,16.453-5.235,35.69-7.148,51.6-7.659,15.979-.514,36.03,4.85,58.932,11.5,14.859,4.317,14.048,6.855,34.076,13.7a272.709,272.709,0,0,0,44.132,10.961C1776.608,237.342,1787.211,225.732,1807.441,235.057Z" transform="translate(-1369.501 -31.394)" fill="#fff"/>
          <path id="Path_168" data-name="Path 168" d="M1764.426,261.835a50.141,50.141,0,0,1-12.7,28.77c-15.6,16.943-37.461,15.992-40.579,15.8a48.927,48.927,0,0,0,13.6-19.1c5.8-14.842,2.284-28.017.843-33.124a57.662,57.662,0,0,0-14.866-25.091,77.585,77.585,0,0,1,19.57,5.294A81.193,81.193,0,0,1,1764.426,261.835Z" transform="translate(-1265.939 -17.816)" fill="#ffabb9"/>
          <path id="Path_169" data-name="Path 169" d="M1883.4,265.015c-4.89,143.59-229.14,143.693-255.314,106.9-6.906-9.711-6.487-19.17-18.208-28.534-11.445-9.144-21.7-7.994-46.343-10.81,0,0-47.923-5.474-87.3-23.031-19.521-8.706-25.348-16.418-27.012-18.768-4.009-5.66-5.98-11.428-8.571-11.1-3.353.42-4.758,10.653-5.654,19.582-2.265,22.577-3.723,37.1-.384,60.863,3.348,23.818,5.021,35.728,14.581,48.137a63.007,63.007,0,0,0,49.085,24.917c38.261,1.926,57.393,2.888,71.723,1.31,57.856-6.37,98.653,1.248,205.768,0a107.223,107.223,0,0,0,18.083-1.654,117.139,117.139,0,0,0,36.327-13.468,128.518,128.518,0,0,0,48.368-49.1,122.037,122.037,0,0,0,12.657-34.693,118.578,118.578,0,0,0-7.808-70.544Z" transform="translate(-1374.273 -3.823)" fill="#ff7e9f"/>
          <path id="Path_170" data-name="Path 170" d="M1442.338,293.257c-1.013,1.983-6.261-.921-11.892,1.5-7.729,3.327-10.068,14.06-11.071,18.969-3.513,17.173,1.4,30.625,7.667,52.8,2.858,10.115,6.9,25.214,11.053,44.153-3.017.478-7.036.564-10.28-1.674-6.284-4.337-5.558-14.556-5.828-22.814-.075-2.3-3.749-16.263-11.1-44.185-5.853-22.236-7.489-26.125-11.774-44.007-2.5-10.411-4.311-18.979-5.447-24.551a13.6,13.6,0,0,1,6.177-5.707c6.638-2.8,14.046,1.791,23.448,7.8C1430.74,280.307,1444,289.994,1442.338,293.257Z" transform="translate(-1389.462 -3.089)" fill="#ef9c06"/>
          <path id="Path_171" data-name="Path 171" d="M1666.37,261.306c-9.23-10.419-15.586-15.878-22.406-20.933-15.3-11.345-44.562-18.068-48.4-20.02-7.22-3.674-10.512-16-6.723-19.638.623-.6,2.922-2.387,14.769,1.961,7.681,2.82,19.632,8.313,33.53,20.306a116.411,116.411,0,0,1,20.438,22.418A140.34,140.34,0,0,1,1666.37,261.306Z" transform="translate(-1314.04 -29.215)" fill="#d0e5f2"/>
          <path id="Path_172" data-name="Path 172" d="M1587.295,317.357c-6.253-.147-85.071-18.183-83.165-38.349,2.214-23.419,61.954-36.972,81.857-41.692,2.112-.5-2.818,7.533,2.679-7.772,10.191-28.37,12.28-31.683,10.205-34.589-4.686-6.562-23.145-.6-41.746,5.408-28.953,9.352-46.263,14.942-57.367,31.277-5.428,7.986-5.913,13.449-14.467,22.234-8.8,9.035-11.556,6.619-22.259,16.545,0,0-15.388,14.271-19.018,31.8a17.57,17.57,0,0,0-.182,6.988c.342,1.818,1.6,6.755,7.99,12.048,24.065,19.924,57.407,28.451,57.407,28.451,29.688,7.593,25.565,1.346,64.479,9.756,13.089,2.828,27.153,6.474,29.355,2.247,1.577-3.024-4.265-7.5-9.247-17.255A62.055,62.055,0,0,1,1587.295,317.357Z" transform="translate(-1370.024 -32.234)" fill="#d0e5f2"/>
          <g id="Group_81" data-name="Group 81" transform="translate(0 254.601)">
            <path id="Path_173" data-name="Path 173" d="M1394.5,263.923a12.615,12.615,0,0,1,11.915-3.281,70.764,70.764,0,0,1,34.905,20.1,75.916,75.916,0,0,1,11.243,16.538,6.393,6.393,0,0,0-1.189,3.819c-.047,8.5-.493,16.982-.881,25.467-.521-22.047-15.625-38.482-16.281-39.183a61.049,61.049,0,0,0-30.118-17.294,2.865,2.865,0,0,0-2.779.774,3.079,3.079,0,0,0-.86,2.914l29.233,129.108a3.092,3.092,0,0,0,2.385,2.346,2.892,2.892,0,0,0,2.993-1.057c5.786-7.493,9.374-15.268,10.668-23.112a44.821,44.821,0,0,0,.511-7.86c.028-3.307.064-7.836.678-15.753a180.431,180.431,0,0,1,2.567-20.355c.317-1.759.576-3.213.756-4.7-.172,4.367-.3,8.735-.324,13.107-.064,14.552,3.177,28.331,4.14,42.73a64.058,64.058,0,0,1-11.3,21.886,12.535,12.535,0,0,1-9.975,4.919,13.12,13.12,0,0,1-2.817-.309,12.736,12.736,0,0,1-9.772-9.694l-29.236-129.109A12.766,12.766,0,0,1,1394.5,263.923Z" transform="translate(-1390.641 -260.272)" fill="#001d27"/>
          </g>
          <g id="Group_82" data-name="Group 82" transform="translate(34.361 199.832)">
            <path id="Path_174" data-name="Path 174" d="M1424.4,231.784a12.773,12.773,0,0,1,7.664-9.893,12.612,12.612,0,0,1,12.292,1.285,70.77,70.77,0,0,1,25.182,31.434c.236.593.871,2.265,1.6,4.762a5.444,5.444,0,0,0-5.082,3.43c-.942,1.991-1.823,4-2.672,6.023a62.132,62.132,0,0,0-2.889-10.619,61.079,61.079,0,0,0-21.747-27.078,2.838,2.838,0,0,0-1.661-.545,3.136,3.136,0,0,0-1.211.254,3.077,3.077,0,0,0-1.863,2.4l-9.415,62.21a22.67,22.67,0,0,0-9.238-3.971Z" transform="translate(-1415.368 -220.858)" fill="#001d27"/>
          </g>
          <g id="Group_83" data-name="Group 83" transform="translate(168.436)">
            <path id="Path_175" data-name="Path 175" d="M1565.83,223.968l35.044,1.483a41.867,41.867,0,0,0,43.6-40.059l-1.067-93.281a8.254,8.254,0,0,0-7.906-8.153l-92.092-3.9a8.254,8.254,0,0,0-8.565,7.444l-9.074,92.864A41.867,41.867,0,0,0,1565.83,223.968Z" transform="translate(-1506.445 -75.884)" fill="#fff"/>
            <path id="Path_176" data-name="Path 176" d="M1606.754,182.576c9.021-1.555,16.754,3.385,17.323,3.759a24.657,24.657,0,0,1,8.987,10.863,2.978,2.978,0,0,1-2.913,4.137l-49.689-2.662a2.985,2.985,0,0,1-2.065-4.975,20.973,20.973,0,0,1,8.638-5.9c2.351-.812,3.213-.568,8.824-1.98C1603.019,184.011,1603.548,183.127,1606.754,182.576Z" transform="translate(-1486.229 -36.059)" fill="#ecc00b"/>
            <path id="Path_177" data-name="Path 177" d="M1542.659,179.985c-8.857-2.311-16.981,1.958-17.579,2.282a24.65,24.65,0,0,0-9.872,10.066,2.978,2.978,0,0,0,2.553,4.368l49.737,1.545a2.985,2.985,0,0,0,2.478-4.783,20.967,20.967,0,0,0-8.107-6.613c-2.276-1.007-3.155-.838-8.627-2.718C1546.26,181.732,1545.808,180.807,1542.659,179.985Z" transform="translate(-1510.683 -37.216)" fill="#ecc00b"/>
            <path id="Path_178" data-name="Path 178" d="M1583.62,169.547a292.432,292.432,0,0,1-30.129-3.3c-8.731-1.274-18.471-.5-26.912-2.806l7.668-78.463a8.254,8.254,0,0,1,8.564-7.445l92.092,3.9a8.256,8.256,0,0,1,7.905,8.154l.888,77.582C1623.864,169.006,1603.527,170.369,1583.62,169.547Z" transform="translate(-1506.115 -76.867)" fill="#f50"/>
            <path id="Path_179" data-name="Path 179" d="M1594.885,140.91a124.643,124.643,0,0,0,48.853,21.205,111.986,111.986,0,0,1-18.433,5.621c-13.128,2.792-24.926,2.8-54.025-.543-11.963-1.376-27.208-3.36-44.93-6.256,7.143-22.809,7.462-40.3,6.206-52.521-.769-7.476-2.874-20.244,3.792-25.291,2.446-1.854,5.759-2.2,12.384-2.889C1557.634,79.309,1542.738,102.632,1594.885,140.91Z" transform="translate(-1506.204 -75.823)" fill="#fd4500"/>
            <path id="Path_180" data-name="Path 180" d="M1603.861,230.828c-.661,0-1.327-.014-1.993-.043l-35.046-1.481a46.088,46.088,0,0,1-44.048-47.941l.015-.229,9.075-92.864a12.419,12.419,0,0,1,12.89-11.2l92.092,3.9a12.427,12.427,0,0,1,11.9,12.272l1.068,93.394-.005.111a46.039,46.039,0,0,1-45.947,44.091Zm-36.686-9.855,35.046,1.481a37.7,37.7,0,0,0,39.252-35.96l-1.066-93.167a4.087,4.087,0,0,0-3.913-4.035l-92.092-3.9a4.124,4.124,0,0,0-4.241,3.685l-9.062,92.746a37.74,37.74,0,0,0,36.075,39.146Z" transform="translate(-1507.614 -77.053)"/>
            <path id="Path_181" data-name="Path 181" d="M1620.694,182.242c-.614.513.823,2.122.421,4.29-.55,2.977-4.129,4.651-5.77,5.394-5.743,2.6-10.853,1.951-19.129,1.52-3.774-.2-9.393-.409-16.365-.359a5.087,5.087,0,0,0,1.408,3.473c2.02,1.858,5.547.789,8.464.225.814-.157,6,.019,16.381.371,8.265.281,9.759.545,16.372.623,3.851.044,7,0,9.045-.047a4.888,4.888,0,0,0,1.509-2.621c.453-2.551-1.748-4.783-4.605-7.6C1626.16,185.277,1621.706,181.4,1620.694,182.242Z" transform="translate(-1485.36 -36.117)" fill="#ef9c06"/>
            <path id="Path_182" data-name="Path 182" d="M1603.835,151.069c-5.539,0-11.611-.115-18.207-.395-38.347-1.622-59.171-6.98-60.038-7.208l2.11-8.065c.206.053,20.934,5.364,58.281,6.942,36.16,1.536,56.718-2.054,56.921-2.09l1.474,8.206C1643.668,148.587,1629.528,151.069,1603.835,151.069Z" transform="translate(-1506.5 -54.32)"/>
            <path id="Path_183" data-name="Path 183" d="M1631.492,206.677c-.131,0-.261,0-.393-.011L1581.409,204a7.153,7.153,0,0,1-4.908-11.962,25.355,25.355,0,0,1,10.342-7.022,22.5,22.5,0,0,1,3.781-.921c1.2-.215,2.693-.482,5.387-1.16a61.607,61.607,0,0,0,6.8-2.064,23.193,23.193,0,0,1,4.4-1.24c10.525-1.815,19.352,3.746,20.324,4.387a28.942,28.942,0,0,1,10.515,12.682,7.148,7.148,0,0,1-6.564,9.973Zm-46.928-10.854,44.968,2.41a20.159,20.159,0,0,0-6.577-7.247c-.068-.047-6.826-4.423-14.321-3.134h0a15.317,15.317,0,0,0-2.982.864,70.159,70.159,0,0,1-7.6,2.307c-2.975.749-4.7,1.057-5.955,1.283a14.862,14.862,0,0,0-2.529.6A15.478,15.478,0,0,0,1584.563,195.823Z" transform="translate(-1487.399 -37.228)"/>
            <path id="Path_184" data-name="Path 184" d="M1529.151,179.636c.584.548-.942,2.072-.664,4.259.381,3,3.858,4.878,5.454,5.714,5.586,2.921,10.724,2.562,19.011,2.6,3.781.018,9.4.125,16.36.571a5.076,5.076,0,0,1-1.6,3.386c-2.123,1.741-5.584.474-8.464-.254-.8-.2-5.993-.322-16.375-.56-8.267-.189-9.775-.011-16.38-.309-3.847-.174-6.989-.4-9.027-.56a4.891,4.891,0,0,1-1.358-2.7c-.308-2.572,2.016-4.676,5.029-7.327C1523.522,182.355,1528.19,178.735,1529.151,179.636Z" transform="translate(-1510.206 -37.142)" fill="#ef9c06"/>
            <path id="Path_185" data-name="Path 185" d="M1568.77,203.585c-.078,0-.156,0-.232,0l-49.737-1.545a7.146,7.146,0,0,1-6.092-10.514,28.951,28.951,0,0,1,11.55-11.75c1.019-.554,10.277-5.351,20.622-2.651h0a23.062,23.062,0,0,1,4.283,1.606,61.911,61.911,0,0,0,6.6,2.63c2.628.9,4.092,1.3,5.272,1.612a22.361,22.361,0,0,1,3.687,1.237,25.4,25.4,0,0,1,9.715,7.871,7.154,7.154,0,0,1-5.67,11.507Zm-47.7-9.819,45.01,1.4a15.489,15.489,0,0,0-4.736-3.334,14.587,14.587,0,0,0-2.469-.807c-1.233-.331-2.922-.784-5.822-1.78a70.326,70.326,0,0,1-7.382-2.942,15.415,15.415,0,0,0-2.9-1.113h0c-7.365-1.919-14.462,1.872-14.532,1.909A20.217,20.217,0,0,0,1521.073,193.766Z" transform="translate(-1511.853 -38.385)"/>
            <path id="Path_186" data-name="Path 186" d="M1580.137,180.753a20.329,20.329,0,0,0,12.771-.168c7.734-2.838,13.122-10.814,13.81-20.315" transform="translate(-1485.249 -44.631)" fill="#d0e5f2"/>
          </g>
          <path id="Path_187" data-name="Path 187" d="M1692.682,363.1c-42.048.267-87.871-161.448-101.551-195.349-6.85-16.974-104.855,116.867-2.722,245.746" transform="translate(-1331.597 -42.285)" fill="#ff959e"/>
          <path id="Path_188" data-name="Path 188" d="M1669.89,363.737c-2.549,3.57-21.126-3.967-35-12.548-40.349-24.959-55.925-68.042-60.128-80.172-14.879-42.937-8.629-80.81-4.433-98.542,1.32-2.127,3.937-5.7,7.044-5.558,4.359.2,7.169,7.589,8.515,11.249,7.75,21.041,13.835,43.135,14.734,46.354,2.561,9.162,8.278,22.6,19.711,49.481,4.484,10.544,6.727,15.816,10.069,22.86,6.992,14.738,12.954,27.306,22.589,41.639C1664.246,355.245,1671.67,361.241,1669.89,363.737Z" transform="translate(-1322.564 -42.044)" fill="#ffabb9"/>
          <path id="Path_189" data-name="Path 189" d="M1430.128,358.72c0,31.149,0,78.222,22.934,101.173,18,18,48.275,19.824,77.015,19.824,3.716,0,7.405-.029,11.041-.06,3.373-.028,6.681-.056,9.893-.056h225.946c30.089,0,60.862-13.49,84.455-37.036,24.378-24.331,37.8-55.945,37.8-89.022,0-32.714-10.471-59.236-31.123-78.828-20.361-19.315-47.02-28.62-69.563-33.059a19.07,19.07,0,0,0-2.139-.482l-.01.071a201.876,201.876,0,0,0-43.242-3.421,137.9,137.9,0,0,1-69.562-19.468,146.036,146.036,0,0,0-30.327-13.383.035.035,0,0,1-.022-.022c-3.28-9.788-6.478-19.585-9.947-29.458-.891-2.508-1.8-5.016-2.807-7.582l-.19-.482-.094-.24-.275-.611a8.829,8.829,0,0,0-2.141-2.839,8.524,8.524,0,0,0-3.723-1.863,9.273,9.273,0,0,0-3.2-.1,12.257,12.257,0,0,0-3.858,1.255,18.951,18.951,0,0,0-2.48,1.513,42.009,42.009,0,0,0-6.8,6.332c-1.923,2.165-3.646,4.383-5.282,6.638a145.618,145.618,0,0,0-12.036,20.227.032.032,0,0,1-.029.018c-45.051,1.237-85.844,20.462-109.811,51.964a67.72,67.72,0,0,1-12.8,12.843q-3.083,2.349-5.979,4.868c-12.344,9.929-19.635,20.064-23.886,28.055A120.268,120.268,0,0,0,1430.128,358.72Zm161.021-147.5a2.056,2.056,0,0,1,2.1,2.8,201.123,201.123,0,0,0-13.261,86.786,197.106,197.106,0,0,0,4.854,31.922,172.567,172.567,0,0,0,10.39,30.48h0a3.4,3.4,0,0,1-3.367,4.79c-71.074-5.332-126.607-23.1-140.282-45.415-1.548-2.528-1.07-11.033,4.4-21.688l0,0a111.026,111.026,0,0,1,22.136-26.09c1.2-.959,2.443-1.912,3.742-2.86a84.348,84.348,0,0,0-6.833,38.856.035.035,0,0,0,.069,0,92.89,92.89,0,0,1,12.059-39.039,98.726,98.726,0,0,1,11.91-16.668,115.524,115.524,0,0,1,14.776-14.095c21.372-16.984,47.916-26.764,74.98-29.549Q1589.987,211.322,1591.15,211.216Zm240.886,78.226c2.97,43.82-59.225,63.263-96.586,70.954a.036.036,0,0,0-.026.04l1.038,5.046-1.044-5.047a.034.034,0,0,0-.038-.026,11.086,11.086,0,0,1-5.374-.411,20.421,20.421,0,0,1-5.525-2.883,36.6,36.6,0,0,1-5.222-4.526,69.647,69.647,0,0,1-4.8-5.451c-6.117-7.75-11.239-16.642-15.961-25.721-9.427-18.241-17.149-37.564-24.518-56.995-4.837-12.9-9.392-25.93-13.852-39.016a3.036,3.036,0,0,1,3.973-3.806q2.414.955,4.8,1.994a139.154,139.154,0,0,1,18.109,9.666c1.512.828,2.84,1.915,4.267,2.87l4.224,2.957h0l3.987,3.264c1.308,1.114,2.721,2.126,3.933,3.348a111.476,111.476,0,0,1,25,32.547.035.035,0,0,0,.064-.026c-4.361-13.276-12.1-25.489-21.733-35.911-1.3-1.4-2.64-2.754-4.01-4.081a144.147,144.147,0,0,0,50.525,9.324l.254-.007a199.327,199.327,0,0,1,44.021,3.978h.006c2.876,1.01,6.7,2.774,9.034,3.856l.771.356C1829.475,265.937,1832.021,289.212,1832.036,289.443ZM1439.855,358.72a112.4,112.4,0,0,1,2.494-23.6,3.189,3.189,0,0,1,5.5-1.408c10.337,11.625,29.048,21.464,55.822,29.3,26.4,7.725,58.9,12.932,94.375,15.155a9.414,9.414,0,0,1,7.459,4.455q2.632,4.3,5.521,8.422c1.515,2.186,3.079,4.334,4.675,6.453,1.627,2.1,3.3,4.159,4.991,6.195a149.365,149.365,0,0,0,10.621,11.424.036.036,0,0,0,.055-.044c-2.649-4.469-5.255-8.918-7.766-13.4-1.28-2.272-2.53-4.557-3.73-6.865-1.237-2.282-2.447-4.575-3.594-6.9a274.115,274.115,0,0,1-12.267-28.3c-7-19.2-11.676-39.188-12.715-59.51a192.3,192.3,0,0,1,6.506-60.339,163.168,163.168,0,0,1,10.106-28.662c.971-2.025,4.854-10.155,6.551-13.137a125.705,125.705,0,0,1,8.234-12.979c1.449-1.972,2.96-3.88,4.526-5.617.117-.129.233-.258.352-.385a2.159,2.159,0,0,1,3.616.748l.011.032c2.48,7.033,4.873,14.186,7.269,21.354h0a130.851,130.851,0,0,0,4.652,13.842h0c6.066,18.031,12.384,36.03,19.268,53.861,7.591,19.666,15.848,39.149,25.956,57.973a169.394,169.394,0,0,0,17.8,27.138,72.015,72.015,0,0,0,5.753,6.166,46.887,46.887,0,0,0,6.833,5.5,30.281,30.281,0,0,0,8.517,3.994,20.994,20.994,0,0,0,10.129.329h0c69.87-14.377,106.935-43.2,104.363-81.147a55.9,55.9,0,0,0-7.515-21.342,1.948,1.948,0,0,1,2.544-2.749,103.539,103.539,0,0,1,24.66,17.11c18.616,17.681,28.056,41.817,28.056,71.74,0,30.474-12.411,59.645-34.947,82.137-21.781,21.736-50.053,34.194-77.591,34.194H1551.01c-3.239,0-6.573.028-9.972.056-29.843.253-63.655.527-81.1-16.914C1439.855,432.916,1439.855,386.47,1439.855,358.72Z" transform="translate(-1375.257 -44.082)" fill="#001d27"/>
          <path id="Path_190" data-name="Path 190" d="M1572.737,169.1l.051.129C1572.758,169.162,1572.716,169.05,1572.737,169.1Z" transform="translate(-1319.698 -41.196)" fill="#001d27"/>
          <path id="Path_191" data-name="Path 191" d="M1669.148,249.234c3.65-.568,13.992,1.013,18.04,8.917a18.211,18.211,0,1,1-33.814,11.436C1652.109,259.611,1659.211,250.78,1669.148,249.234Z" transform="translate(-1288.337 -10.011)" fill="#ff959e"/>
          <g id="Group_85" data-name="Group 85" transform="translate(220.153 25.624)">
            <path id="Path_192" data-name="Path 192" d="M1577.878,103.992c-.02-.1-.044-.195-.067-.29l.01.011a7.027,7.027,0,0,0-.6-1.829c-.021-.049-.039-.1-.061-.147l-.011-.007a8.556,8.556,0,0,0-1.267-1.841,11.06,11.06,0,0,0-3.57-2.624,11.75,11.75,0,0,0-2.108-.767,15.32,15.32,0,0,0-2.182-.414,19.633,19.633,0,0,0-4.352.025c-.71.085-1.413.195-2.107.324-.689.145-1.38.3-2.04.47-1.32.343-2.561.689-3.78.884a11.308,11.308,0,0,1-1.807.138,7.442,7.442,0,0,1-1.78-.267,5.26,5.26,0,0,1-3.083-2.164,4.149,4.149,0,0,0,.784,2.022,6.025,6.025,0,0,0,1.663,1.534,7.619,7.619,0,0,0,2.115.9,10.108,10.108,0,0,0,2.258.283,22.5,22.5,0,0,0,4.251-.438c1.323-.232,2.6-.45,3.877-.588a19.7,19.7,0,0,1,7.437.343c.114.032.227.064.339.1a4.87,4.87,0,0,1,2.714,2.005,8.162,8.162,0,0,1,1.23,3.575,8,8,0,0,1-.11,2.316,4.323,4.323,0,0,0-4.914-2.8,4.2,4.2,0,0,0-.653.185.387.387,0,0,0-.179.566,1.175,1.175,0,0,1,.159.63,1.208,1.208,0,0,1-1.879.969.381.381,0,0,0-.563.157,4.315,4.315,0,0,0,3.746,6.055,7.76,7.76,0,0,1-1.277.528,8.194,8.194,0,0,1-10.518-6.214,9.013,9.013,0,0,1,.812-5.661.242.242,0,0,0-.249-.354,10.05,10.05,0,0,1-1.552.1.785.785,0,0,0-.738.481,10.492,10.492,0,1,0,20.055,1.8Z" transform="translate(-1549.07 -95.493)" fill="#192233"/>
            <path id="Path_193" data-name="Path 193" d="M1600.67,99.874a7.321,7.321,0,0,1-1.8.1,11.133,11.133,0,0,1-1.787-.306c-1.2-.307-2.4-.768-3.68-1.234-.641-.233-1.315-.45-1.987-.657s-1.367-.37-2.067-.521a19.723,19.723,0,0,0-4.33-.432,15.2,15.2,0,0,0-2.211.208,11.906,11.906,0,0,0-2.171.566,11.114,11.114,0,0,0-3.8,2.278,8.614,8.614,0,0,0-1.434,1.715l-.013.006-.074.142a7.047,7.047,0,0,0-.771,1.765l.011-.011c-.032.094-.065.188-.094.283a10.493,10.493,0,1,0,20.135.085.782.782,0,0,0-.69-.548,10.091,10.091,0,0,1-1.534-.246.241.241,0,0,0-.281.329,9.015,9.015,0,0,1,.277,5.713,8.194,8.194,0,0,1-11.053,5.2,8.065,8.065,0,0,1-1.223-.646,4.315,4.315,0,0,0,4.286-5.713.349.349,0,0,0-.5-.193,1.2,1.2,0,0,1-1.121.05,1.217,1.217,0,0,1-.691-1.17,1.189,1.189,0,0,1,.239-.645.351.351,0,0,0-.113-.531,4.313,4.313,0,0,0-5.823,2.062,8.032,8.032,0,0,1,.108-2.315,8.156,8.156,0,0,1,1.558-3.443,4.862,4.862,0,0,1,2.892-1.744q.171-.035.346-.067a19.683,19.683,0,0,1,7.436.354c1.262.257,2.51.593,3.806.949a22.722,22.722,0,0,0,4.191.834,10.189,10.189,0,0,0,2.275-.071,7.632,7.632,0,0,0,2.19-.7,6.051,6.051,0,0,0,1.8-1.372,4.155,4.155,0,0,0,.97-1.94A5.269,5.269,0,0,1,1600.67,99.874Z" transform="translate(-1539.347 -94.977)" fill="#192233"/>
            <path id="Path_194" data-name="Path 194" d="M1574.387,110.158c-2.393,4.138-8.865,4.983-10.421,5.117a.276.276,0,0,0-.229.377c2.027,5.464,18.714,6.708,21.34.981a.276.276,0,0,0-.2-.395c-1.573-.235-8.014-1.663-10.009-6.056A.269.269,0,0,0,1574.387,110.158Z" transform="translate(-1543.363 -89.832)" fill="#ef9c06"/>
            <g id="Group_84" data-name="Group 84" transform="translate(7.222 29.635)">
              <path id="Path_195" data-name="Path 195" d="M1558.946,129.15a4.63,4.63,0,0,1-.09,1.983l-.006.018a2.187,2.187,0,0,1-.447.848,1.224,1.224,0,0,1-.4.315,1.354,1.354,0,0,1-.586.129,2.18,2.18,0,0,1-.6-.129l-.028-.014a3.128,3.128,0,0,1-1.494-1.476,4.368,4.368,0,0,1-.434-1.153,4.766,4.766,0,0,1-.162-1.056,7.867,7.867,0,0,1-.018-.969c.01-.2.028-.4.054-.593a.217.217,0,0,1,.326-.157q.415.246.831.484a.216.216,0,0,1,.1.228,4.326,4.326,0,0,0-.068.588c-.013.258,0,.527.005.773v.022c.031.256.081.518.134.76a2.951,2.951,0,0,0,.244.684.367.367,0,0,1,.079.145.132.132,0,0,1,.04.039.181.181,0,0,0,.061.069c0,.022.019.031.039.061l.022.01.019.029a.11.11,0,0,1,.04.04c-.142.3,0,.021-.024.057l.024-.057.019.031a1.181,1.181,0,0,0,.231.115.46.46,0,0,0,.189.054.237.237,0,0,0,.151-.028.288.288,0,0,0,.157-.139,1.343,1.343,0,0,0,.258-.477,3.324,3.324,0,0,0,.1-.675,2.041,2.041,0,0,0-.031-.725,7.667,7.667,0,0,0-.481-1.618c-.231-.561-.525-1.128-.817-1.7s-.649-1.169-.959-1.8c-.154-.314-.308-.652-.44-.98a6.758,6.758,0,0,1-.375-1.02,7.179,7.179,0,0,1-.246-1.053,6.009,6.009,0,0,1-.1-1.03,4.381,4.381,0,0,1,.381-1.836,3.12,3.12,0,0,1,.517-.678.729.729,0,0,0,.175-.122,1,1,0,0,1,.2-.114.456.456,0,0,1,.2-.092l.109-.042.107-.042a2.163,2.163,0,0,1,1.042.043,2.261,2.261,0,0,1,.586.242,2.606,2.606,0,0,1,.6.441,3.057,3.057,0,0,1,.466.6,5.3,5.3,0,0,1,.293.645,6.165,6.165,0,0,1,.229,1.066,5.006,5.006,0,0,1-.093,1.969,4.424,4.424,0,0,1-.591,1.315.215.215,0,0,1-.331.031q-.386-.379-.77-.763a.219.219,0,0,1-.019-.283,3.57,3.57,0,0,0,.478-1.039,4.093,4.093,0,0,0,.068-1.444,5.586,5.586,0,0,0-.158-.753,1.153,1.153,0,0,0-.117-.249.476.476,0,0,0-.14-.19c-.042-.039-.1-.086-.165-.133a.979.979,0,0,0-.231-.074.946.946,0,0,0-.511-.014l-.043.006-.067.039a.334.334,0,0,0-.129.056l-.11.064a.337.337,0,0,1-.11.088,1.77,1.77,0,0,0-.331.417l-.015.032a2.927,2.927,0,0,0-.246,1.3,3.4,3.4,0,0,0,.068.791,6.048,6.048,0,0,0,.174.782l.005.017c.092.263.185.545.3.814s.252.554.409.843c.272.561.609,1.124.943,1.748.316.595.628,1.228.9,1.866A8.881,8.881,0,0,1,1558.946,129.15Z" transform="translate(-1554.267 -116.82)" fill="#fff"/>
              <path id="Path_196" data-name="Path 196" d="M1559.63,132.167q1.019.329,2.048.623a.218.218,0,0,1,.157.218l-.042.888a.219.219,0,0,1-.278.2q-1.153-.331-2.3-.707a1.625,1.625,0,0,1-1.049-1.484q.016-.688.032-1.374c.028-.591.036-1.212.064-1.825.036-1.21.093-2.436.15-3.639.129-2.325.279-4.641.5-6.933a.218.218,0,0,1,.3-.181c.285.114.571.224.857.332a.217.217,0,0,1,.139.221c-.214,2.319-.385,4.651-.5,7-.078,1.2-.135,2.4-.171,3.632-.026.591-.035,1.21-.04,1.808l-.029,1A.221.221,0,0,0,1559.63,132.167Z" transform="translate(-1552.746 -116.384)" fill="#fff"/>
              <path id="Path_197" data-name="Path 197" d="M1566.06,119.867a.22.22,0,0,1,.178.218q-.077,3.635-.278,7.247c-.058,1.246-.161,2.486-.286,3.72-.014.3-.05.6-.088.924v.015c-.058.314-.117.628-.2.957l-.006.021a3.57,3.57,0,0,1-.418.942l-.072.117c-.022.018-.024.04-.046.057l-.047.057-.095.113a.449.449,0,0,0-.115.108,1.725,1.725,0,0,1-.274.161.7.7,0,0,1-.158.075c-.045.012-.09.047-.135.058-.022,0-.045.012-.067.008l-.045.011c-.024.017-.067.007-.09.024-.067.007-.11,0-.176,0a.855.855,0,0,1-.353-.015,1.672,1.672,0,0,1-.76-.252,1.031,1.031,0,0,1-.192-.136,1.7,1.7,0,0,1-.169-.132,1.006,1.006,0,0,0-.169-.154l-.061-.083-.085-.088c-.018-.05-.082-.111-.1-.182l-.1-.16a1.312,1.312,0,0,1-.1-.182c-.019-.05-.061-.106-.081-.154a4.915,4.915,0,0,1-.315-1.238c-.047-.39-.074-.753-.1-1.114-.043-1.409-.022-2.778.04-4.113q.063-2.043.191-4.07c.079-1.24.158-2.5.254-3.735a.217.217,0,0,1,.278-.19q.436.127.873.247a.216.216,0,0,1,.157.227c-.1,1.284-.181,2.554-.261,3.826-.084,1.328-.149,2.686-.189,4.026s-.059,2.686-.012,4.027c.007.308.035.645.064.938l0,.018a3.705,3.705,0,0,0,.224.823.7.7,0,0,0,.162.284l.021.049.021.006c0,.022.021.028.042.054a.027.027,0,0,1,.021.028l.043.01a.455.455,0,0,0,.239.081.267.267,0,0,0,.132.008c.022.006.045-.011.067-.006l.024-.018.021.006a.643.643,0,0,0,.368-.29,2.461,2.461,0,0,0,.272-.646,4.647,4.647,0,0,0,.149-.807c.057-.275.072-.6.109-.882.122-1.21.2-2.432.282-3.652.132-2.361.223-4.752.275-7.152a.216.216,0,0,1,.259-.207C1565.47,119.757,1565.765,119.813,1566.06,119.867Z" transform="translate(-1551.633 -116.088)" fill="#fff"/>
              <path id="Path_198" data-name="Path 198" d="M1570.094,131.478a4.066,4.066,0,0,1,.064,1.017,4.861,4.861,0,0,1-.157.974,2.868,2.868,0,0,1-.47.963,1.81,1.81,0,0,1-.421.415,1.85,1.85,0,0,1-.6.277l-.032.007a2.166,2.166,0,0,1-.616.026l-.033-.006a2.762,2.762,0,0,1-.6-.192,2.35,2.35,0,0,1-.984-.875,3.186,3.186,0,0,1-.463-1.024,3.894,3.894,0,0,1-.177-1,7.026,7.026,0,0,1-.021-.952,6.439,6.439,0,0,1,.068-.688.216.216,0,0,1,.278-.17q.444.133.891.261a.218.218,0,0,1,.151.25,4.489,4.489,0,0,0-.064.56c-.011.258,0,.52.008.76v.026c.035.243.088.488.143.713a2.161,2.161,0,0,0,.261.611.257.257,0,0,1,.083.121.093.093,0,0,1,.043.029c.021.025.042.049.064.053,0,.022.022.025.043.05l.022,0,.021.025a.075.075,0,0,1,.043.028c-.149.332,0,.022-.025.063l.025-.063.021.025a1.036,1.036,0,0,0,.243.054.465.465,0,0,0,.2,0,.326.326,0,0,0,.16-.067.437.437,0,0,0,.164-.178,1.75,1.75,0,0,0,.271-.539,3.517,3.517,0,0,0,.1-.692,1.81,1.81,0,0,0-.035-.709,5.8,5.8,0,0,0-.51-1.473,15.845,15.845,0,0,0-.869-1.462c-.311-.486-.689-.984-1.02-1.523-.164-.27-.329-.563-.471-.852a5.027,5.027,0,0,1-.4-.907,5.569,5.569,0,0,1-.265-.976,5.227,5.227,0,0,1-.11-.992,4.742,4.742,0,0,1,.4-1.912,4.348,4.348,0,0,1,.549-.807,1.1,1.1,0,0,0,.185-.167,1.509,1.509,0,0,1,.208-.164.678.678,0,0,1,.207-.142l.21-.128.036-.018a2.569,2.569,0,0,1,1.085-.224,2.384,2.384,0,0,1,1.255.363,2.193,2.193,0,0,1,.491.475,3.773,3.773,0,0,1,.308.561,5.211,5.211,0,0,1,.152,2.963,5.643,5.643,0,0,1-.651,1.508.22.22,0,0,1-.308.065c-.261-.176-.521-.353-.782-.532a.22.22,0,0,1-.057-.3,4.492,4.492,0,0,0,.5-1.151,3.958,3.958,0,0,0,.068-1.445,4.488,4.488,0,0,0-.168-.7.881.881,0,0,0-.124-.214.341.341,0,0,0-.149-.151,1.835,1.835,0,0,0-.175-.089.97.97,0,0,0-.244-.011,1.143,1.143,0,0,0-.541.12l-.046.017-.068.056a.479.479,0,0,0-.138.089l-.117.093a.514.514,0,0,1-.117.114,2.5,2.5,0,0,0-.35.5l-.014.029a3.149,3.149,0,0,0-.259,1.353,2.919,2.919,0,0,0,.076.763,4.508,4.508,0,0,0,.185.724l.007.021c.1.233.2.488.317.724a6.728,6.728,0,0,0,.435.725c.289.482.646.95,1,1.48a17.21,17.21,0,0,1,.95,1.609A6.643,6.643,0,0,1,1570.094,131.478Z" transform="translate(-1550.038 -115.622)" fill="#fff"/>
              <path id="Path_199" data-name="Path 199" d="M1574.5,128.033c-.137,2.468-.211,4.916-.242,7.364a.216.216,0,0,1-.211.214c-.311.008-.621.014-.932.018a.22.22,0,0,1-.221-.222c.033-2.465.128-4.93.266-7.393.028-.6.056-1.191.1-1.79a.216.216,0,0,0-.206-.232q-.932-.035-1.859-.1a.219.219,0,0,0-.232.2c-.044.606-.072,1.212-.1,1.819-.138,2.462-.231,4.908-.264,7.355a.216.216,0,0,1-.224.214c-.3-.01-.6-.021-.906-.035a.219.219,0,0,1-.208-.222c.032-2.475.128-4.944.243-7.412.136-2.462.3-4.922.535-7.376a.219.219,0,0,1,.245-.195q.45.058.9.108a.216.216,0,0,1,.19.235q-.175,1.88-.3,3.764a.22.22,0,0,0,.2.233q.934.063,1.868.1a.216.216,0,0,0,.225-.2c.082-1.281.183-2.564.3-3.862a.218.218,0,0,1,.232-.2c.307.021.616.039.923.056a.215.215,0,0,1,.2.236C1574.79,123.152,1574.633,125.593,1574.5,128.033Z" transform="translate(-1548.428 -115.487)" fill="#fff"/>
              <path id="Path_200" data-name="Path 200" d="M1577.7,120.288q.456.01.913.017a.216.216,0,0,1,.213.247c-.35,2.414-.723,4.827-1.116,7.261-.214,1.238-.429,2.5-.688,3.757-.05.264-.117.528-.172.792l-.114.524-.133.536,0,.014c-.049.133-.079.285-.129.438a7.09,7.09,0,0,1-.263.845,2.093,2.093,0,0,1-.34.609,1.093,1.093,0,0,1-.327.3,1.274,1.274,0,0,1-.182.074l-.089,0-.068.025-.089,0-.111-.018c-.043-.019-.065-.019-.11-.039s-.11-.04-.153-.061a.773.773,0,0,1-.275-.318,3.8,3.8,0,0,1-.354-1.477l-.046-.459-.026-.392-.022-.481c-.031-.306-.036-.634-.044-.939-.053-1.245-.062-2.492-.049-3.738-.017-2.423.03-4.85.1-7.276a.215.215,0,0,1,.21-.21c.3-.01.6-.021.906-.035a.216.216,0,0,1,.227.22c-.047,2.4-.095,4.809-.1,7.2.008,1.245.018,2.468.05,3.689.008.306.015.611.047.914l.021.5.111-.463c.081-.31.141-.618.2-.927.257-1.212.471-2.446.686-3.7.395-2.4.77-4.827,1.1-7.251A.215.215,0,0,1,1577.7,120.288Z" transform="translate(-1546.613 -115.468)" fill="#fff"/>
              <path id="Path_201" data-name="Path 201" d="M1579.1,127.639c-.139,2.479-.234,4.932-.265,7.376a.218.218,0,0,1-.184.213q-.452.069-.9.131a.219.219,0,0,1-.249-.22c.033-2.444.128-4.9.243-7.35.137-2.479.3-4.959.539-7.45a.218.218,0,0,1,.2-.2c.3-.017.6-.036.894-.057a.216.216,0,0,1,.231.235C1579.388,122.767,1579.211,125.205,1579.1,127.639Z" transform="translate(-1545.218 -115.547)" fill="#fff"/>
              <path id="Path_202" data-name="Path 202" d="M1580.946,133.582q.95-.16,1.9-.352a.216.216,0,0,1,.259.222l-.042.888a.217.217,0,0,1-.175.2q-1.18.24-2.369.434a.983.983,0,0,1-1.183-1.027c.008-.417.018-.835.028-1.252.028-.591.035-1.2.064-1.813.033-1.2.092-2.426.147-3.63.134-2.372.288-4.748.524-7.137a.217.217,0,0,1,.2-.195c.3-.029.59-.061.886-.095a.216.216,0,0,1,.239.235c-.211,2.337-.383,4.666-.492,6.986-.078,1.208-.135,2.411-.17,3.632-.028.591-.035,1.2-.04,1.787l-.025.891A.219.219,0,0,0,1580.946,133.582Z" transform="translate(-1544.501 -115.647)" fill="#fff"/>
              <path id="Path_203" data-name="Path 203" d="M1583.99,132.948q.921-.221,1.841-.474a.217.217,0,0,1,.274.22l-.042.878a.219.219,0,0,1-.16.2q-1.167.323-2.34.6a.919.919,0,0,1-1.188-.962q.012-.613.028-1.226c.028-.591.035-1.2.063-1.811.035-1.2.093-2.425.149-3.628.133-2.379.288-4.762.524-7.163a.219.219,0,0,1,.181-.193q.435-.073.871-.153a.216.216,0,0,1,.254.232c-.211,2.337-.379,4.665-.489,6.977-.078,1.209-.134,2.412-.169,3.632-.028.592-.035,1.2-.041,1.784l-.025.87A.218.218,0,0,0,1583.99,132.948Z" transform="translate(-1543.316 -115.88)" fill="#fff"/>
              <path id="Path_204" data-name="Path 204" d="M1586.312,118.806q1.7-.5,3.377-1.089a.216.216,0,0,1,.289.213l-.04.845a.218.218,0,0,1-.145.2q-1.207.431-2.425.812v.022l-.032.225-.062.882c-.049.575-.1,1.151-.146,1.748l-.008.175q1.082-.325,2.155-.692a.216.216,0,0,1,.286.214l-.042.868a.216.216,0,0,1-.147.2q-1.092.367-2.192.692a.215.215,0,0,0-.156.192c-.046.613-.073,1.219-.1,1.826q-.115,1.749-.163,3.48c-.006.561-.032,1.131-.039,1.715l-.018.846-.01.22v.022q1.178-.367,2.346-.78a.216.216,0,0,1,.289.213l-.041.845a.219.219,0,0,1-.144.2q-1.73.619-3.485,1.133a.218.218,0,0,1-.279-.214l.021-1.2v-.863c.026-.57.032-1.153.06-1.745.033-1.153.088-2.312.142-3.473s.132-2.347.229-3.52c.05-.6.077-1.166.125-1.762l.086-.888.121-1.36A.216.216,0,0,1,1586.312,118.806Z" transform="translate(-1542.147 -116.475)" fill="#fff"/>
            </g>
          </g>
          <path id="Path_205" data-name="Path 205" d="M1692.685,229s-11.485-23.056-19.242-28.608a13.349,13.349,0,0,0-12.262-1.715c-8.982,3.209-25.449,22.355-25.449,22.355s10.529,17.659,26.256,19.859S1692.685,229,1692.685,229Z" transform="translate(-1295.153 -29.97)" fill="#ecc00b"/>
          <path id="Path_206" data-name="Path 206" d="M1687.371,228.328c-.685-1.962-6.788.775-14.7-2.9-1.3-.6-7.55-3.5-10.5-9.738-3.892-8.211,1.184-15.343-1.583-17.071-4.141-2.589-16.995,12.48-18.107,13.8-6.042,7.154-5.936,9.82-5.824,10.79.577,4.965,6.271,7.96,12.364,11.161,5.907,3.1,11.11,5.839,18.076,5.531C1678.534,239.392,1688.289,230.958,1687.371,228.328Z" transform="translate(-1294.807 -29.806)" fill="#ef9c06"/>
          <path id="Path_207" data-name="Path 207" d="M1667.047,247.354a29.326,29.326,0,0,1-4.058-.278c-17.833-2.5-29.283-21.383-29.76-22.186l-1.794-3.007,2.283-2.654c1.772-2.059,17.591-20.224,27.5-23.764a18.222,18.222,0,0,1,16.728,2.34c8.5,6.079,19.536,27.923,20.767,30.395l1.611,3.234-2.632,2.476C1697.064,234.5,1683.207,247.354,1667.047,247.354Zm-23.483-24.575c3.449,4.616,11.12,13.312,20.772,14.663,9.5,1.34,19.256-4.843,23.9-8.343-4.542-8.575-11.636-20.3-15.951-23.384a8.487,8.487,0,0,0-7.793-1.089C1659.537,206.4,1649.933,215.76,1643.565,222.779Z" transform="translate(-1296.827 -31.333)" fill="#001d27"/>
          <path id="Path_208" data-name="Path 208" d="M1711.324,156.459c5.177,4.345,4.706,11.981-1.052,17.055-.176.157-.374.315-.589.475.267-.022.52-.033.756-.032,7.675.024,13.059,5.46,12.027,12.14s-8.092,12.077-15.765,12.052-28.818-12.192-28.818-12.192l.132-.063-.14.039s7.89-23.083,13.649-28.156S1706.146,152.112,1711.324,156.459Z" transform="translate(-1278.734 -47.25)" fill="#ecc00b"/>
          <path id="Path_209" data-name="Path 209" d="M1707.7,203.522h-.065c-7.411-.024-22.762-8.258-29.019-11.8a6.557,6.557,0,0,1-2.961-7.88c2.375-6.784,8.5-23.092,14.06-27.992,7.419-6.537,18.782-7.122,25.325-1.306h0c5.777,5.135,5.2,12.117,2.337,17.929,5.857,2.23,10.847,7.019,10.189,15.162C1726.869,196.26,1717.778,203.52,1707.7,203.522ZM1684.019,185.2c9.138,5.068,19.86,9.976,23.64,9.988h.039c5.707,0,11.208-3.909,11.557-8.22.453-5.6-5.046-7.145-8.364-7.565a4.586,4.586,0,0,1-3.036-7.38c1.381-1.759,5.572-7.751,1.644-11.24-3.387-3.01-10.058-2.389-14.274,1.328C1692.39,164.6,1687.555,175.361,1684.019,185.2Z" transform="translate(-1279.745 -48.423)" fill="#001d27"/>
          <path id="Path_210" data-name="Path 210" d="M1650.543,152.628c6.687.994,10.283,7.746,8.032,15.083-.068.225-.154.464-.254.713.217-.158.427-.3.628-.422,6.552-4,13.985-2.184,16.6,4.048s-.571,14.525-7.123,18.522-30.935,4.7-30.935,4.7l.079-.124-.1.107s-5.36-23.8-3.11-31.134S1643.856,151.636,1650.543,152.628Z" transform="translate(-1295.902 -47.656)" fill="#00caf6"/>
          <path id="Path_211" data-name="Path 211" d="M1640.627,200.494a6.6,6.6,0,0,1-6.452-5.2c-1.524-7.016-4.834-24.1-2.664-31.174,2.9-9.452,12.265-15.9,20.9-14.37,7.608,1.349,10.768,7.6,11.376,14.052,6.156-1.167,12.917.3,16.618,7.586,3.928,7.73-.041,18.707-8.668,23.969-6.318,3.853-23.688,4.876-30.865,5.136Q1640.748,200.494,1640.627,200.494Zm9.171-42.636c-4.193,0-8.807,3.784-10.316,8.7-1,3.26.043,13.64,2.537,25.54,12.144-.529,22.462-2.09,25.371-3.864,4.885-2.979,7.543-9.21,5.578-13.073-2.547-5.014-8.042-3.446-11.085-2.069a4.585,4.585,0,0,1-6.452-4.705c.257-2.214.69-9.515-4.482-10.432h0A6.615,6.615,0,0,0,1649.8,157.858Zm13.917,11.484v0Z" transform="translate(-1297.077 -48.819)" fill="#001d27"/>
        </g>
        <path id="Path_212" data-name="Path 212" d="M1669.611,271.726a4.163,4.163,0,0,1,1.06-3.782,19.678,19.678,0,0,0-5.661-31.331,4.169,4.169,0,0,1,3.624-7.509,28.016,28.016,0,0,1,8.06,44.608,4.171,4.171,0,0,1-7.083-1.984Z" transform="translate(-1284.665 -17.976)" fill="#192233"/>
      </g>
      <g id="Group_113" data-name="Group 113" transform="translate(1004.553 2352)">
        <g id="Group_93" data-name="Group 93" transform="translate(0)">
          <path id="Path_213" data-name="Path 213" d="M896.5,739.69c-8.768-22.7.061-45.444.738-47.12a65.548,65.548,0,0,1,23.617-29.1,7.917,7.917,0,0,1,12.307,5.426q9.525,65.459,19.049,130.916a7.934,7.934,0,0,1-11.889,7.981c-10.641-6.467-16.468-13.56-19.909-19.424-3.347-5.707-3.16-8.077-9.776-21.967C902.2,748.676,899.621,747.758,896.5,739.69Z" transform="translate(-456.213 -460.072)" fill="#ebbf0b"/>
          <path id="Path_214" data-name="Path 214" d="M894.315,705.163c1.691,1.448,5.436-3.234,11.561-3.137,8.409.133,14.654,9.162,17.449,13.316,9.78,14.533,10.359,28.834,13.006,51.711,1.207,10.435,3.222,25.925,6.586,45.008,2.97-.706,6.717-2.154,8.863-5.459,4.156-6.4-.4-15.567-3.295-23.3-.808-2.156-2.724-16.456-6.556-45.055-3.053-22.776-3.022-26.992-5.865-45.147-1.656-10.571-3.238-19.178-4.309-24.761a13.59,13.59,0,0,0-7.879-2.923c-7.2-.063-12.3,7-18.7,16.132C900.106,688.784,891.535,702.783,894.315,705.163Z" transform="translate(-455.882 -459.084)" fill="#ee9b06"/>
          <path id="Path_215" data-name="Path 215" d="M1018.361,783.927c0,32.011-.527,76.691-21.5,97.674s-62.424,18.272-94.448,18.272H676.806c-58.052.114-117.517-52.973-117.518-121.118,0-118.221,141-110.787,141-110.787A142.361,142.361,0,0,0,772.4,647.842c21.372-12.569,47.652-19.98,76.065-19.98,46.7,0,87.645,20.026,110.508,50.08A72.493,72.493,0,0,0,972.685,691.7,115.718,115.718,0,0,1,1018.361,783.927Z" transform="translate(-554.428 -470.148)" fill="#00c9f5"/>
          <path id="Path_216" data-name="Path 216" d="M910.649,768c.535-24.331,17.357-42,18.622-43.291a65.532,65.532,0,0,1,32.92-17.92,7.916,7.916,0,0,1,9.313,9.7Q955.39,780.64,939.274,844.8a7.934,7.934,0,0,1-14.031,2.855c-7.378-10.031-10.066-18.808-11.015-25.542-.922-6.551.153-8.673-.676-24.035C912.495,778.473,910.459,776.643,910.649,768Z" transform="translate(-450.913 -446.951)" fill="#ebbf0b"/>
          <path id="Path_217" data-name="Path 217" d="M628.256,672.027c-23.743,10.945-27.182,35.271-27.487,37.769-2.517,20.522,11.91,35.926,17.353,41.737,36.113,38.562,111.185,41.32,201.448,44.636,50.8,1.867,86.273-.891,120.719-13.912,39.833-15.058,47.957-32.372,49.684-36.476,1.318-3.133.834-12.159-5.463-25.868-4.8-10.446-11.446-17.6-24.305-27.1-3.908-2.888-.36-5.674-13.019-14.32-17.622-12.035-18.986-13.6-25.685-17.857-6.852-4.359-13.558-16.522-29.847-21.706-16.442-5.232-35.668-7.144-51.563-7.655-15.97-.513-36.007,4.847-58.9,11.5-14.849,4.314-14.039,6.85-34.054,13.693a272.473,272.473,0,0,1-44.105,10.955C659.07,674.31,648.474,662.707,628.256,672.027Z" transform="translate(-542.293 -469.152)" fill="#fff"/>
          <path id="Path_218" data-name="Path 218" d="M575.2,701.343a50.094,50.094,0,0,0,12.7,28.752c15.592,16.934,37.438,15.982,40.553,15.794A48.906,48.906,0,0,1,614.858,726.8c-5.8-14.834-2.282-28-.843-33.1a57.629,57.629,0,0,1,14.857-25.076,77.571,77.571,0,0,0-19.558,5.291A81.146,81.146,0,0,0,575.2,701.343Z" transform="translate(-549.741 -458.138)" fill="#00ddf4"/>
          <path id="Path_219" data-name="Path 219" d="M569.26,707.155c4.887,143.5,229,143.6,255.156,106.833,6.9-9.7,6.484-19.158,18.2-28.517,11.438-9.137,21.682-7.989,46.314-10.8,0,0,47.893-5.471,87.241-23.018,19.51-8.7,25.333-16.407,27-18.755,4.007-5.656,5.976-11.421,8.567-11.1,3.35.419,4.754,10.646,5.65,19.571,2.264,22.563,3.721,37.074.383,60.824-3.345,23.8-5.017,35.706-14.572,48.107a62.96,62.96,0,0,1-49.053,24.9c-38.238,1.925-57.357,2.887-71.678,1.31-57.82-6.366-98.592,1.247-205.64,0a107.224,107.224,0,0,1-18.072-1.653A117.06,117.06,0,0,1,622.443,861.4a128.441,128.441,0,0,1-48.337-49.074,122.046,122.046,0,0,1-12.65-34.671,118.517,118.517,0,0,1,7.8-70.5Z" transform="translate(-554.442 -446.786)" fill="#00b0e5"/>
          <path id="Path_220" data-name="Path 220" d="M919.216,735.516c1.012,1.982,6.257-.92,11.885,1.5,7.724,3.325,10.062,14.052,11.065,18.957,3.51,17.162-1.4,30.607-7.663,52.769-2.856,10.108-6.89,25.2-11.046,44.125,3.015.478,7.031.564,10.274-1.674,6.279-4.333,5.555-14.546,5.824-22.8.074-2.3,3.747-16.253,11.091-44.157,5.849-22.223,7.483-26.109,11.767-43.98,2.494-10.4,4.307-18.968,5.443-24.537a13.58,13.58,0,0,0-6.172-5.7c-6.635-2.8-14.039,1.79-23.434,7.8C930.806,722.575,917.551,732.257,919.216,735.516Z" transform="translate(-448.428 -446.191)" fill="#ee9b06"/>
          <path id="Path_221" data-name="Path 221" d="M688.021,698.669c9.224-10.413,15.577-15.868,22.392-20.92,15.295-11.337,44.534-18.056,48.37-20.007,7.216-3.672,10.507-15.99,6.719-19.625-.623-.6-2.921-2.387-14.76,1.959-7.677,2.817-19.619,8.306-33.509,20.293a116.351,116.351,0,0,0-20.425,22.4A140.475,140.475,0,0,0,688.021,698.669Z" transform="translate(-516.5 -467.384)" fill="#cfe4f1"/>
          <path id="Path_222" data-name="Path 222" d="M795.924,754.116c6.25-.146,85.019-18.171,83.115-38.323-2.213-23.406-61.917-36.95-81.807-41.667-2.11-.5,2.817,7.528-2.677-7.766-10.185-28.354-12.272-31.664-10.2-34.568,4.683-6.559,23.13-.6,41.719,5.405,28.933,9.346,46.235,14.933,57.331,31.257,5.426,7.98,5.909,13.439,14.458,22.221,8.792,9.027,11.548,6.614,22.244,16.534,0,0,15.38,14.263,19.006,31.782a17.524,17.524,0,0,1,.182,6.984c-.342,1.816-1.595,6.75-7.985,12.041-24.05,19.911-57.371,28.432-57.371,28.432-29.669,7.588-25.548,1.345-64.438,9.75-13.081,2.827-27.137,6.47-29.339,2.246-1.576-3.023,4.263-7.492,9.242-17.244A62,62,0,0,0,795.924,754.116Z" transform="translate(-489.43 -469.833)" fill="#cfe4f1"/>
          <g id="Group_88" data-name="Group 88" transform="translate(460.254 253.781)">
            <path id="Path_223" data-name="Path 223" d="M970.57,705.715a12.607,12.607,0,0,0-11.908-3.279,70.731,70.731,0,0,0-34.884,20.087,75.973,75.973,0,0,0-11.236,16.529,6.394,6.394,0,0,1,1.188,3.817c.047,8.491.495,16.971.88,25.451.522-22.034,15.616-38.458,16.271-39.158a61.016,61.016,0,0,1,30.1-17.283,2.864,2.864,0,0,1,2.778.774,3.076,3.076,0,0,1,.86,2.912L935.4,844.592a3.09,3.09,0,0,1-2.382,2.343,2.892,2.892,0,0,1-2.992-1.056c-5.782-7.488-9.368-15.258-10.661-23.1a45,45,0,0,1-.511-7.856c-.027-3.3-.063-7.83-.677-15.743a180.438,180.438,0,0,0-2.566-20.342c-.315-1.758-.575-3.209-.755-4.7.172,4.364.3,8.73.324,13.1.065,14.544-3.174,28.315-4.136,42.7a64.009,64.009,0,0,0,11.288,21.873,12.534,12.534,0,0,0,9.97,4.917,13.091,13.091,0,0,0,2.813-.309,12.728,12.728,0,0,0,9.767-9.688L974.1,717.711A12.757,12.757,0,0,0,970.57,705.715Z" transform="translate(-911.046 -702.066)" fill="#001d27"/>
          </g>
          <g id="Group_89" data-name="Group 89" transform="translate(433.549 199.046)">
            <path id="Path_224" data-name="Path 224" d="M937.133,670.707a12.763,12.763,0,0,0-7.659-9.886,12.6,12.6,0,0,0-12.283,1.283,70.73,70.73,0,0,0-25.167,31.417c-.236.592-.87,2.262-1.6,4.759a5.44,5.44,0,0,1,5.079,3.427c.941,1.99,1.822,4,2.669,6.019a61.938,61.938,0,0,1,2.888-10.612,61.024,61.024,0,0,1,21.733-27.061,2.839,2.839,0,0,1,1.66-.544,3.116,3.116,0,0,1,1.21.254,3.076,3.076,0,0,1,1.862,2.4l9.408,62.17a22.677,22.677,0,0,1,9.232-3.968Z" transform="translate(-890.419 -659.787)" fill="#001d27"/>
          </g>
          <g id="Group_90" data-name="Group 90" transform="translate(207.07)">
            <path id="Path_225" data-name="Path 225" d="M802.021,652.572,767,654.054a41.839,41.839,0,0,1-43.572-40.035l1.067-93.223a8.249,8.249,0,0,1,7.9-8.147l92.035-3.9a8.249,8.249,0,0,1,8.559,7.44L842.055,609A41.839,41.839,0,0,1,802.021,652.572Z" transform="translate(-713.14 -505.242)" fill="#fff"/>
            <path id="Path_226" data-name="Path 226" d="M742.979,618.7c-9.016-1.553-16.746,3.383-17.313,3.756a24.646,24.646,0,0,0-8.981,10.857,2.976,2.976,0,0,0,2.91,4.135l49.659-2.66a2.983,2.983,0,0,0,2.062-4.973,20.938,20.938,0,0,0-8.631-5.9c-2.351-.812-3.211-.567-8.819-1.978C746.711,620.134,746.182,619.251,742.979,618.7Z" transform="translate(-715.198 -472.936)" fill="#ebbf0b"/>
            <path id="Path_227" data-name="Path 227" d="M811.647,615.893c8.851-2.308,16.97,1.956,17.567,2.281a24.637,24.637,0,0,1,9.866,10.059,2.976,2.976,0,0,1-2.55,4.365l-49.707,1.544a2.983,2.983,0,0,1-2.475-4.78,20.943,20.943,0,0,1,8.1-6.61c2.275-1.007,3.152-.836,8.621-2.716C808.048,617.638,808.5,616.714,811.647,615.893Z" transform="translate(-695.373 -473.875)" fill="#ebbf0b"/>
            <path id="Path_228" data-name="Path 228" d="M783.811,598a292.42,292.42,0,0,0,30.11-3.294c8.726-1.274,18.459-.5,26.9-2.805l-7.663-78.414a8.249,8.249,0,0,0-8.559-7.44l-92.035,3.894a8.251,8.251,0,0,0-7.9,8.148l-.887,77.535C743.592,597.459,763.915,598.82,783.811,598Z" transform="translate(-713.037 -506.039)" fill="#d9006d"/>
            <path id="Path_229" data-name="Path 229" d="M772.63,569.576a124.522,124.522,0,0,1-48.821,21.192,111.809,111.809,0,0,0,18.42,5.617c13.12,2.791,24.911,2.8,53.992-.542,11.956-1.375,27.192-3.358,44.9-6.252-7.139-22.794-7.458-40.276-6.2-52.489.768-7.471,2.871-20.231-3.789-25.275-2.446-1.853-5.756-2.2-12.377-2.887C809.86,508.013,824.745,531.321,772.63,569.576Z" transform="translate(-713.027 -505.192)" fill="#c10076"/>
            <path id="Path_230" data-name="Path 230" d="M765.491,655.617a43.136,43.136,0,0,1-43.023-41.261l1.067-93.292a9.487,9.487,0,0,1,9.088-9.373l92.033-3.9a9.515,9.515,0,0,1,9.847,8.56l9.069,92.806a43.078,43.078,0,0,1-41.217,44.932l-35.022,1.482C766.717,655.6,766.1,655.617,765.491,655.617Zm59.571-145.346c-.1,0-.2,0-.3.005l-92.033,3.9a7.009,7.009,0,0,0-6.713,6.921l-1.067,93.223a40.617,40.617,0,0,0,42.28,38.78l35.022-1.482A40.6,40.6,0,0,0,841.1,609.335L832.033,516.6A7.011,7.011,0,0,0,825.062,510.271Z" transform="translate(-713.422 -505.524)"/>
            <path id="Path_231" data-name="Path 231" d="M728.326,618.355c.614.514-.822,2.122-.422,4.288.55,2.974,4.126,4.649,5.767,5.392,5.739,2.6,10.845,1.948,19.116,1.519,3.773-.2,9.386-.409,16.355-.357a5.08,5.08,0,0,1-1.406,3.47c-2.02,1.856-5.544.788-8.46.225-.812-.158-6,.018-16.369.37-8.26.281-9.754.544-16.363.621-3.848.045-6.995,0-9.039-.047A4.886,4.886,0,0,1,716,631.217c-.454-2.549,1.746-4.78,4.6-7.6C722.863,621.389,727.315,617.512,728.326,618.355Z" transform="translate(-715.345 -472.983)" fill="#ee9b06"/>
            <path id="Path_232" data-name="Path 232" d="M764.236,580.2c-25.753,0-40.12-2.522-40.292-2.553l.44-2.443c.2.036,20.992,3.679,57.526,2.132,37.714-1.6,58.653-6.977,58.86-7.031l.629,2.4c-.21.054-21.373,5.5-59.384,7.11C775.6,580.086,769.664,580.2,764.236,580.2Z" transform="translate(-712.987 -487.106)"/>
            <path id="Path_233" data-name="Path 233" d="M719.712,638.975a4.21,4.21,0,0,1-3.477-1.823,4.152,4.152,0,0,1-.405-4.052,26.008,26.008,0,0,1,9.436-11.4c.874-.575,8.811-5.556,18.205-3.942h0a20.3,20.3,0,0,1,3.9,1.106,65,65,0,0,0,7.08,2.148c2.79.7,4.4.992,5.582,1.2a19.589,19.589,0,0,1,3.339.807,22.485,22.485,0,0,1,9.14,6.234,4.146,4.146,0,0,1,.787,4.411,4.2,4.2,0,0,1-3.7,2.641l-49.66,2.66C719.867,638.974,719.79,638.975,719.712,638.975Zm19.994-19.052a26.114,26.114,0,0,0-13.077,3.853,23.526,23.526,0,0,0-8.523,10.313,1.665,1.665,0,0,0,.167,1.647,1.751,1.751,0,0,0,1.538.755l49.659-2.661a1.727,1.727,0,0,0,1.53-1.1,1.666,1.666,0,0,0-.313-1.793,20.057,20.057,0,0,0-8.125-5.569,17.236,17.236,0,0,0-2.966-.708c-1.214-.218-2.878-.517-5.751-1.239a66.979,66.979,0,0,1-7.319-2.222,18.017,18.017,0,0,0-3.477-.994h0A19.634,19.634,0,0,0,739.706,619.923Z" transform="translate(-715.48 -473.219)"/>
            <path id="Path_234" data-name="Path 234" d="M824.487,615.557c-.584.548.941,2.071.663,4.258-.379,3-3.855,4.874-5.45,5.709-5.582,2.921-10.717,2.561-19,2.6-3.778.018-9.4.126-16.35.572a5.088,5.088,0,0,0,1.6,3.384c2.122,1.739,5.58.473,8.459-.255.8-.2,5.99-.322,16.365-.559,8.262-.189,9.768-.01,16.37-.308,3.844-.173,6.983-.4,9.021-.559a4.883,4.883,0,0,0,1.357-2.7c.308-2.572-2.014-4.674-5.026-7.324C830.112,618.276,825.448,614.657,824.487,615.557Z" transform="translate(-695.19 -473.814)" fill="#ee9b06"/>
            <path id="Path_235" data-name="Path 235" d="M787.008,635.671a4.206,4.206,0,0,1-3.771-2.323,4.149,4.149,0,0,1,.412-4.461,22.475,22.475,0,0,1,8.581-6.984,19.794,19.794,0,0,1,3.258-1.086c1.156-.309,2.741-.734,5.461-1.669a65.375,65.375,0,0,0,6.873-2.738,20.423,20.423,0,0,1,3.793-1.432h0c9.249-2.416,17.558,1.89,18.474,2.391a25.992,25.992,0,0,1,10.363,10.559,4.157,4.157,0,0,1-.061,4.073,4.218,4.218,0,0,1-3.543,2.123l-49.706,1.545Zm25.235-18.292a17.983,17.983,0,0,0-3.383,1.284,67.1,67.1,0,0,1-7.1,2.831c-2.8.963-4.434,1.4-5.625,1.721a17.3,17.3,0,0,0-2.9.958,20.025,20.025,0,0,0-7.624,6.235,1.665,1.665,0,0,0-.162,1.814,1.8,1.8,0,0,0,1.617.966l49.707-1.545a1.75,1.75,0,0,0,1.468-.882,1.667,1.667,0,0,0,.028-1.655,23.524,23.524,0,0,0-9.365-9.557c-.333-.18-8.187-4.376-16.663-2.171Z" transform="translate(-695.655 -474.159)"/>
            <path id="Path_236" data-name="Path 236" d="M762.773,615.264a20.3,20.3,0,0,1-12.761-.168c-7.73-2.834-13.114-10.806-13.8-20.3" transform="translate(-709.373 -479.89)" fill="#cfe4f1"/>
          </g>
          <path id="Path_237" data-name="Path 237" d="M681.262,797.944c42.022.267,87.817-161.349,101.488-195.228,6.845-16.962,104.789,116.794,2.72,245.592" transform="translate(-518.492 -477.986)" fill="#00c9f5"/>
          <path id="Path_238" data-name="Path 238" d="M691.944,798.621c2.547,3.568,21.113-3.964,34.978-12.54,40.324-24.942,55.89-68,60.091-80.121,14.869-42.91,8.623-80.759,4.43-98.481-1.32-2.127-3.936-5.7-7.04-5.555-4.356.2-7.164,7.584-8.511,11.241-7.745,21.028-13.825,43.108-14.725,46.327-2.558,9.154-8.271,22.586-19.7,49.449-4.483,10.538-6.724,15.807-10.063,22.846-6.988,14.729-12.946,27.289-22.576,41.614C697.583,790.135,690.165,796.127,691.944,798.621Z" transform="translate(-515.422 -477.791)" fill="#00ddf4"/>
          <path id="Path_239" data-name="Path 239" d="M1006.584,730.033c-4.246-7.987-11.534-18.116-23.869-28.038q-2.9-2.511-5.976-4.865A67.612,67.612,0,0,1,963.944,684.3C939.993,652.813,899.225,633.6,854.2,632.364a.034.034,0,0,1-.029-.018,145.7,145.7,0,0,0-12.028-20.214c-1.635-2.254-3.357-4.472-5.279-6.635a41.937,41.937,0,0,0-6.8-6.328,19.112,19.112,0,0,0-2.479-1.513,12.289,12.289,0,0,0-3.854-1.253,9.3,9.3,0,0,0-3.2.1,8.515,8.515,0,0,0-3.721,1.862,8.824,8.824,0,0,0-2.14,2.836l-.276.612-.094.24-.189.482c-1.01,2.565-1.915,5.071-2.805,7.577-3.466,9.866-6.663,19.658-9.941,29.44a.032.032,0,0,1-.021.022,145.9,145.9,0,0,0-30.308,13.376,137.827,137.827,0,0,1-69.52,19.456,201.7,201.7,0,0,0-43.213,3.419l-.01-.071a19.615,19.615,0,0,0-2.137.482c-22.529,4.435-49.172,13.735-69.52,33.039-20.64,19.58-31.1,46.086-31.1,78.779,0,33.056,13.417,64.651,37.78,88.966,23.579,23.531,54.331,37.015,84.4,37.013H903.522c3.209,0,6.516.027,9.886.056,3.634.03,7.321.06,11.034.06,28.721,0,58.979-1.825,76.967-19.813,22.92-22.935,22.92-69.979,22.92-101.11A120.176,120.176,0,0,0,1006.584,730.033ZM865.729,646.039c27.046,2.783,53.574,12.557,74.933,29.53a115.293,115.293,0,0,1,14.766,14.086,98.591,98.591,0,0,1,11.9,16.657,92.832,92.832,0,0,1,12.052,39.017.034.034,0,0,0,.069,0,84.276,84.276,0,0,0-6.828-38.831c1.3.946,2.54,1.9,3.74,2.857a110.956,110.956,0,0,1,22.122,26.074l0,0c5.463,10.647,5.941,19.149,4.394,21.673-13.667,22.3-69.164,40.059-140.195,45.388a3.4,3.4,0,0,1-3.365-4.787h0a172.558,172.558,0,0,0,10.384-30.461,197.013,197.013,0,0,0,4.851-31.9,200.991,200.991,0,0,0-13.253-86.733,2.054,2.054,0,0,1,2.1-2.8Q864.568,645.918,865.729,646.039ZM647.346,690.305l.77-.356c2.338-1.081,6.153-2.843,9.029-3.854h.005a199.252,199.252,0,0,1,43.994-3.976l.254.008a144.087,144.087,0,0,0,50.494-9.319q-2.057,1.989-4.008,4.078c-9.625,10.415-17.363,22.621-21.72,35.891a.034.034,0,0,0,.063.025,111.415,111.415,0,0,1,24.981-32.526c1.21-1.221,2.622-2.232,3.929-3.345l3.985-3.262h0l4.222-2.956c1.427-.954,2.754-2.04,4.264-2.869a139.33,139.33,0,0,1,18.1-9.659q2.379-1.041,4.791-1.992a3.034,3.034,0,0,1,3.971,3.8c-4.456,13.078-9.008,26.1-13.842,38.991-7.365,19.418-15.082,38.73-24.5,56.959-4.719,9.074-9.838,17.96-15.951,25.706a69.882,69.882,0,0,1-4.8,5.448,36.671,36.671,0,0,1-5.22,4.523,20.377,20.377,0,0,1-5.52,2.881,11.094,11.094,0,0,1-5.37.412.032.032,0,0,0-.038.026l-1.044,5.045,1.037-5.044a.034.034,0,0,0-.026-.04c-37.338-7.687-99.493-27.118-96.526-70.909C622.686,723.761,625.23,700.5,647.346,690.305ZM994.534,887.462c-17.431,17.43-51.222,17.155-81.046,16.9-3.4-.029-6.729-.056-9.966-.056h-225.8c-27.521,0-55.776-12.45-77.543-34.174-22.523-22.477-34.926-51.629-34.926-82.084,0-29.9,9.434-54.026,28.039-71.695a103.5,103.5,0,0,1,24.644-17.1A1.947,1.947,0,0,1,620.483,702a55.856,55.856,0,0,0-7.511,21.329c-2.57,37.927,34.472,66.727,104.3,81.1h0a20.965,20.965,0,0,0,10.121-.329,30.279,30.279,0,0,0,8.512-3.993,46.727,46.727,0,0,0,6.828-5.5,72.013,72.013,0,0,0,5.75-6.161,169.227,169.227,0,0,0,17.787-27.122c10.1-18.811,18.354-38.282,25.94-57.936,6.88-17.82,13.193-35.808,19.255-53.828h0a130.592,130.592,0,0,0,4.649-13.833h0c2.4-7.163,4.785-14.312,7.264-21.341l.012-.032a2.158,2.158,0,0,1,3.615-.747c.117.127.234.255.35.384,1.567,1.736,3.075,3.643,4.525,5.613a125.456,125.456,0,0,1,8.227,12.971c1.695,2.98,5.576,11.107,6.547,13.129a163.1,163.1,0,0,1,10.1,28.645,192.234,192.234,0,0,1,6.5,60.3c-1.038,20.31-5.709,40.289-12.707,59.474a273.694,273.694,0,0,1-12.26,28.277c-1.146,2.319-2.355,4.61-3.591,6.891-1.2,2.306-2.448,4.588-3.727,6.86-2.51,4.474-5.115,8.92-7.761,13.388a.035.035,0,0,0,.054.043,148.844,148.844,0,0,0,10.615-11.416c1.692-2.034,3.362-4.092,4.988-6.191,1.594-2.118,3.159-4.264,4.672-6.45q2.89-4.113,5.516-8.416a9.416,9.416,0,0,1,7.456-4.454c35.452-2.22,67.938-7.425,94.316-15.144,26.757-7.831,45.455-17.662,55.788-29.282a3.187,3.187,0,0,1,5.5,1.407,112.328,112.328,0,0,1,2.492,23.584C1014.607,820.957,1014.607,867.374,994.534,887.462Z" transform="translate(-555.534 -479.444)" fill="#001d27"/>
          <path id="Path_240" data-name="Path 240" d="M764.629,604.394l.052-.131A.638.638,0,0,1,764.629,604.394Z" transform="translate(-493.93 -477.104)" fill="#001d27"/>
          <path id="Path_241" data-name="Path 241" d="M670.7,690.228a18.1,18.1,0,0,0-8.282.887c1.352,3.908-.661,9.131-6.03,9.131a6.387,6.387,0,0,1-3.716-1.106,18.2,18.2,0,1,0,18.028-8.912Z" transform="translate(-527.64 -451.816)" fill="#ff949d"/>
          <g id="Group_92" data-name="Group 92" transform="translate(240.836 25.528)">
            <path id="Path_242" data-name="Path 242" d="M770.908,533.672c-.026-.1-.058-.19-.088-.285l.01.01a7.111,7.111,0,0,0-.737-1.777c-.025-.047-.048-.1-.073-.142l-.012-.006a8.545,8.545,0,0,0-1.4-1.739,11.093,11.093,0,0,0-3.754-2.347,11.873,11.873,0,0,0-2.159-.6,15.076,15.076,0,0,0-2.2-.25,19.734,19.734,0,0,0-4.334.352q-1.052.208-2.075.482c-.677.2-1.353.4-2,.621-1.289.441-2.5.879-3.7,1.164a11.2,11.2,0,0,1-1.79.273,7.378,7.378,0,0,1-1.793-.132,5.261,5.261,0,0,1-3.237-1.924,4.141,4.141,0,0,0,.933,1.955,6.014,6.014,0,0,0,1.772,1.4,7.634,7.634,0,0,0,2.175.739,10.131,10.131,0,0,0,2.272.114,22.637,22.637,0,0,0,4.2-.756c1.3-.331,2.554-.643,3.819-.878a19.689,19.689,0,0,1,7.438-.216c.115.023.23.047.344.073a4.859,4.859,0,0,1,2.856,1.8,8.16,8.16,0,0,1,1.494,3.47,8.01,8.01,0,0,1,.065,2.316,4.308,4.308,0,0,0-5.744-2.184.385.385,0,0,0-.135.576,1.181,1.181,0,0,1,.2.616,1.217,1.217,0,0,1-.712,1.157,1.2,1.2,0,0,1-1.087-.052.383.383,0,0,0-.55.2,4.315,4.315,0,0,0,4.189,5.753,7.92,7.92,0,0,1-1.234.621,8.188,8.188,0,0,1-10.947-5.4,9.009,9.009,0,0,1,.382-5.7.241.241,0,0,0-.274-.335,10.024,10.024,0,0,1-1.538.219.78.78,0,0,0-.7.535,10.485,10.485,0,1,0,20.12.287Z" transform="translate(-741.562 -525.534)" fill="#192233"/>
            <path id="Path_243" data-name="Path 243" d="M794.982,527.863a7.409,7.409,0,0,1-1.783.233,11.235,11.235,0,0,1-1.8-.171c-1.214-.216-2.448-.585-3.76-.953-.656-.185-1.344-.35-2.03-.506s-1.391-.265-2.1-.364a19.7,19.7,0,0,0-4.347-.106,15.43,15.43,0,0,0-2.188.374,11.787,11.787,0,0,0-2.121.728,11.089,11.089,0,0,0-3.616,2.554,8.561,8.561,0,0,0-1.3,1.816l-.012.008c-.023.048-.043.1-.065.146a7.111,7.111,0,0,0-.636,1.815l.01-.01c-.025.1-.051.192-.073.29a10.486,10.486,0,1,0,20.072-1.428.781.781,0,0,0-.729-.494,9.989,9.989,0,0,1-1.547-.131.241.241,0,0,0-.255.35,9.012,9.012,0,0,1,.7,5.672,8.187,8.187,0,0,1-10.624,6.015,8.029,8.029,0,0,1-1.267-.55,4.314,4.314,0,0,0,3.842-6.016.35.35,0,0,0-.515-.154,1.205,1.205,0,0,1-1.89-.98,1.184,1.184,0,0,1,.19-.66.351.351,0,0,0-.153-.52,4.248,4.248,0,0,0-.685-.212,4.32,4.32,0,0,0-4.961,2.7,8,8,0,0,1-.067-2.316,8.163,8.163,0,0,1,1.293-3.547,4.863,4.863,0,0,1,2.751-1.956c.113-.032.227-.063.339-.092a19.681,19.681,0,0,1,7.439-.206c1.276.162,2.545.4,3.863.659a22.473,22.473,0,0,0,4.24.517,10.175,10.175,0,0,0,2.26-.242,7.616,7.616,0,0,0,2.13-.861,6.034,6.034,0,0,0,1.691-1.5,4.14,4.14,0,0,0,.821-2.005A5.264,5.264,0,0,1,794.982,527.863Z" transform="translate(-733.502 -525.758)" fill="#192233"/>
            <path id="Path_244" data-name="Path 244" d="M768.95,541.054c-2.074,4.3-8.46,5.632-10,5.883a.275.275,0,0,0-.2.392c2.431,5.292,19.153,5.278,21.339-.627a.275.275,0,0,0-.23-.377c-1.586-.118-8.111-1.056-10.431-5.285A.269.269,0,0,0,768.95,541.054Z" transform="translate(-736.506 -521.296)" fill="#ee9b06"/>
            <g id="Group_91" data-name="Group 91" transform="translate(9.635 28.469)">
              <path id="Path_245" data-name="Path 245" d="M754.382,561.541a4.512,4.512,0,0,1,.137,1.037,4.645,4.645,0,0,1-.079.945l0,.019a2.179,2.179,0,0,1-.382.878,1.223,1.223,0,0,1-.377.344,1.345,1.345,0,0,1-.573.172,2.138,2.138,0,0,1-.609-.083l-.03-.012a3.141,3.141,0,0,1-1.6-1.359,4.428,4.428,0,0,1-.519-1.116,4.761,4.761,0,0,1-.241-1.04,7.641,7.641,0,0,1-.091-.966c-.005-.2,0-.4.009-.594a.217.217,0,0,1,.313-.181c.289.142.576.282.865.421a.212.212,0,0,1,.12.219,4.527,4.527,0,0,0-.023.59c.008.259.036.524.063.77l0,.022c.049.251.119.51.189.747a3.05,3.05,0,0,0,.3.663.346.346,0,0,1,.089.137.126.126,0,0,1,.044.036c.022.03.044.058.066.065,0,.022.022.03.044.058l.022.008.022.028a.1.1,0,0,1,.043.036c-.119.308,0,.022-.019.058a.425.425,0,0,0,.019-.058l.023.028a1.144,1.144,0,0,0,.237.1.477.477,0,0,0,.193.04.232.232,0,0,0,.149-.04.287.287,0,0,0,.146-.149,1.332,1.332,0,0,0,.221-.5,3.35,3.35,0,0,0,.045-.68,2.04,2.04,0,0,0-.085-.721,7.686,7.686,0,0,0-.6-1.576c-.272-.541-.607-1.085-.943-1.63s-.733-1.116-1.089-1.719c-.179-.3-.356-.625-.514-.943a6.824,6.824,0,0,1-.451-.989,7.28,7.28,0,0,1-.324-1.031,6,6,0,0,1-.176-1.02,4.382,4.382,0,0,1,.242-1.857,3.146,3.146,0,0,1,.465-.716.72.72,0,0,0,.164-.135,1,1,0,0,1,.188-.127.422.422,0,0,1,.188-.106l.1-.05.1-.049a2.131,2.131,0,0,1,1.041-.035,2.232,2.232,0,0,1,.6.2,2.668,2.668,0,0,1,.632.394,3.181,3.181,0,0,1,.509.567,5.483,5.483,0,0,1,.34.623,6.073,6.073,0,0,1,.308,1.043,5.025,5.025,0,0,1,.057,1.97,4.466,4.466,0,0,1-.491,1.354.217.217,0,0,1-.328.056q-.414-.35-.825-.7a.221.221,0,0,1-.042-.281,3.516,3.516,0,0,0,.4-1.072,4.121,4.121,0,0,0-.04-1.443,5.741,5.741,0,0,0-.214-.739,1.168,1.168,0,0,0-.136-.238.484.484,0,0,0-.154-.18c-.044-.035-.11-.078-.175-.122a1.049,1.049,0,0,0-.237-.054.94.94,0,0,0-.51.025l-.041.008-.063.044a.331.331,0,0,0-.126.065l-.1.072a.32.32,0,0,1-.1.094,1.779,1.779,0,0,0-.3.44l-.014.034a2.952,2.952,0,0,0-.146,1.315,3.29,3.29,0,0,0,.128.782,6.032,6.032,0,0,0,.231.768l.006.016c.113.255.225.529.359.79s.293.533.47.809c.313.538.691,1.074,1.072,1.671.359.568.719,1.178,1.037,1.793A8.777,8.777,0,0,1,754.382,561.541Z" transform="translate(-749.004 -547.251)" fill="#fff"/>
              <path id="Path_246" data-name="Path 246" d="M755.464,564.534q1.041.252,2.088.467a.218.218,0,0,1,.172.206l.025.888a.218.218,0,0,1-.261.22q-1.173-.243-2.341-.533a1.618,1.618,0,0,1-1.156-1.4c-.025-.458-.048-.915-.071-1.374-.017-.59-.056-1.209-.074-1.821-.056-1.211-.091-2.435-.124-3.639-.045-2.326-.071-4.646-.018-6.946a.216.216,0,0,1,.282-.2q.439.136.88.265a.217.217,0,0,1,.154.211c-.039,2.326-.034,4.662.032,7.014.013,1.2.047,2.4.1,3.633.017.59.056,1.209.094,1.8l.047,1A.218.218,0,0,0,755.464,564.534Z" transform="translate(-747.629 -546.97)" fill="#fff"/>
              <path id="Path_247" data-name="Path 247" d="M761.207,551.831a.216.216,0,0,1,.194.2q.2,3.629.267,7.242c.036,1.248.026,2.49-.005,3.729.009.3,0,.606-.017.928v.016c-.035.317-.069.633-.124.968l0,.022a3.553,3.553,0,0,1-.346.97l-.063.122c-.022.019-.021.041-.043.061l-.043.06-.085.119a.438.438,0,0,0-.106.117,1.856,1.856,0,0,1-.26.181.778.778,0,0,1-.153.088c-.044.016-.087.053-.131.067-.022,0-.043.016-.065.013l-.044.016c-.022.018-.066.012-.088.03-.065.013-.11.005-.176.018a.881.881,0,0,1-.352.01,1.683,1.683,0,0,1-.777-.193,1.037,1.037,0,0,1-.2-.122,1.736,1.736,0,0,1-.18-.119,1.009,1.009,0,0,0-.18-.141l-.067-.078-.091-.082c-.023-.048-.091-.1-.114-.174l-.114-.151a1.2,1.2,0,0,1-.115-.175c-.023-.048-.069-.1-.092-.148a4.81,4.81,0,0,1-.407-1.211c-.078-.385-.131-.743-.185-1.1-.149-1.4-.232-2.765-.269-4.1q-.091-2.043-.116-4.072c-.014-1.24-.03-2.5-.026-3.742a.216.216,0,0,1,.262-.211c.3.063.592.124.888.183a.215.215,0,0,1,.175.212c0,1.288.01,2.559.026,3.832.015,1.331.054,2.688.114,4.026s.142,2.682.29,4.015c.031.307.083.64.135.93l0,.018a3.766,3.766,0,0,0,.285.8.713.713,0,0,0,.184.271l.023.047.022,0c0,.022.023.026.045.052a.024.024,0,0,1,.023.025l.044.008a.47.47,0,0,0,.245.061.267.267,0,0,0,.132,0c.022,0,.043-.016.066-.012l.021-.018.022,0a.632.632,0,0,0,.344-.317,2.482,2.482,0,0,0,.224-.664,4.548,4.548,0,0,0,.087-.816c.036-.278.027-.606.041-.888.032-1.216.019-2.438.006-3.66-.045-2.363-.133-4.753-.263-7.149a.215.215,0,0,1,.242-.225C760.613,551.765,760.909,551.8,761.207,551.831Z" transform="translate(-746.759 -546.795)" fill="#fff"/>
              <path id="Path_248" data-name="Path 248" d="M766.466,563.2a4.014,4.014,0,0,1,.141,1.009,4.822,4.822,0,0,1-.084.983,2.838,2.838,0,0,1-.4,1,1.813,1.813,0,0,1-.388.447,1.842,1.842,0,0,1-.576.318l-.032.01a2.167,2.167,0,0,1-.611.073l-.034,0a2.791,2.791,0,0,1-.611-.146,2.343,2.343,0,0,1-1.046-.8,3.2,3.2,0,0,1-.539-.985,3.842,3.842,0,0,1-.25-.984,6.96,6.96,0,0,1-.093-.948,6.842,6.842,0,0,1,.015-.69.216.216,0,0,1,.264-.19q.454.1.908.194a.218.218,0,0,1,.171.237,4.423,4.423,0,0,0-.022.563c.008.259.036.518.065.757l0,.025a6.786,6.786,0,0,0,.2.7,2.156,2.156,0,0,0,.306.589.246.246,0,0,1,.092.115.1.1,0,0,1,.045.025.139.139,0,0,0,.069.049c0,.022.022.023.045.047h.022l.023.023a.077.077,0,0,1,.045.025c-.124.342,0,.021-.021.063l.021-.063.023.023a1.042,1.042,0,0,0,.246.036.5.5,0,0,0,.2-.012.324.324,0,0,0,.154-.079.428.428,0,0,0,.151-.189,1.792,1.792,0,0,0,.229-.558,3.588,3.588,0,0,0,.047-.7,1.832,1.832,0,0,0-.087-.7,5.8,5.8,0,0,0-.62-1.429,15.673,15.673,0,0,0-.975-1.392c-.347-.461-.76-.929-1.13-1.442-.185-.255-.37-.535-.533-.812a4.935,4.935,0,0,1-.469-.875,5.442,5.442,0,0,1-.338-.952,5.135,5.135,0,0,1-.184-.98,4.747,4.747,0,0,1,.256-1.937,4.452,4.452,0,0,1,.485-.845,1.244,1.244,0,0,0,.174-.18,1.352,1.352,0,0,1,.194-.179.624.624,0,0,1,.2-.157l.2-.144.035-.022a2.59,2.59,0,0,1,1.064-.3,2.086,2.086,0,0,1,.625.039,1.976,1.976,0,0,1,.653.229,2.2,2.2,0,0,1,.526.436,3.779,3.779,0,0,1,.35.537,5.227,5.227,0,0,1,.373,2.94,5.649,5.649,0,0,1-.535,1.552.22.22,0,0,1-.3.088q-.41-.233-.82-.473a.218.218,0,0,1-.08-.294,4.532,4.532,0,0,0,.412-1.185,3.924,3.924,0,0,0-.04-1.445,4.6,4.6,0,0,0-.22-.689.882.882,0,0,0-.14-.2.335.335,0,0,0-.159-.14,1.89,1.89,0,0,0-.181-.076.993.993,0,0,0-.245.008,1.133,1.133,0,0,0-.53.161l-.044.018-.065.061a.524.524,0,0,0-.131.1l-.109.1a.492.492,0,0,1-.107.123,2.54,2.54,0,0,0-.312.527l-.012.03a3.163,3.163,0,0,0-.155,1.368,2.9,2.9,0,0,0,.133.754,4.561,4.561,0,0,0,.238.708l.009.019c.115.227.233.473.37.7a6.745,6.745,0,0,0,.487.69c.325.46.716.9,1.108,1.4a17.221,17.221,0,0,1,1.069,1.533A6.625,6.625,0,0,1,766.466,563.2Z" transform="translate(-745.5 -546.553)" fill="#fff"/>
              <path id="Path_249" data-name="Path 249" d="M770.784,559.432c.049,2.469.159,4.914.313,7.355a.217.217,0,0,1-.194.23q-.464.047-.928.087a.219.219,0,0,1-.237-.2c-.153-2.46-.242-4.922-.291-7.387-.017-.6-.034-1.19-.035-1.791a.215.215,0,0,0-.221-.216q-.93.035-1.862.04a.216.216,0,0,0-.215.216c0,.607.018,1.214.035,1.82.048,2.465.139,4.908.29,7.351a.216.216,0,0,1-.206.229c-.3.013-.6.025-.908.032a.218.218,0,0,1-.224-.2c-.153-2.469-.245-4.938-.315-7.405-.048-2.464-.075-4.927-.021-7.39a.219.219,0,0,1,.229-.212q.454.023.906.04a.216.216,0,0,1,.208.219q-.033,1.887-.014,3.774a.221.221,0,0,0,.221.218q.934-.008,1.868-.041a.218.218,0,0,0,.21-.22c-.014-1.283-.01-2.569.01-3.871a.22.22,0,0,1,.216-.215c.308,0,.616-.006.924-.013a.213.213,0,0,1,.219.22C770.71,554.544,770.737,556.988,770.784,559.432Z" transform="translate(-744.075 -546.533)" fill="#fff"/>
              <path id="Path_250" data-name="Path 250" d="M773.879,551.484c.3-.014.607-.031.911-.05a.216.216,0,0,1,.23.23c-.168,2.431-.357,4.864-.567,7.32-.12,1.249-.24,2.519-.4,3.8-.03.267-.076.535-.111.8l-.075.531-.092.544,0,.014c-.04.136-.057.29-.1.447a6.857,6.857,0,0,1-.2.861,2.048,2.048,0,0,1-.294.632,1.07,1.07,0,0,1-.3.322,1.489,1.489,0,0,1-.176.088l-.088.01-.066.03-.089.01-.111-.009c-.045-.017-.067-.014-.111-.031s-.113-.031-.158-.049a.772.772,0,0,1-.3-.3,3.777,3.777,0,0,1-.465-1.445c-.026-.151-.053-.3-.08-.453l-.056-.39-.058-.478c-.053-.3-.084-.628-.115-.932-.146-1.238-.249-2.478-.329-3.722-.2-2.414-.334-4.835-.447-7.258a.214.214,0,0,1,.193-.225q.451-.049.9-.1a.215.215,0,0,1,.242.2c.133,2.39.267,4.8.443,7.182.1,1.24.2,2.457.326,3.673.031.3.062.607.115.909l.058.5.076-.47c.057-.315.093-.627.13-.939.166-1.227.285-2.473.405-3.74.214-2.425.4-4.87.554-7.311A.216.216,0,0,1,773.879,551.484Z" transform="translate(-742.751 -546.663)" fill="#fff"/>
              <path id="Path_251" data-name="Path 251" d="M775.94,558.626c.048,2.48.138,4.932.29,7.37a.216.216,0,0,1-.167.225c-.3.068-.594.135-.892.2a.219.219,0,0,1-.264-.2c-.15-2.439-.241-4.889-.311-7.343-.048-2.48-.076-4.965-.021-7.464a.216.216,0,0,1,.189-.211q.443-.058.886-.124a.216.216,0,0,1,.247.216C775.862,553.749,775.87,556.194,775.94,558.626Z" transform="translate(-741.48 -546.768)" fill="#fff"/>
              <path id="Path_252" data-name="Path 252" d="M778.365,564.381q.936-.231,1.865-.492a.214.214,0,0,1,.275.2l.026.888a.219.219,0,0,1-.159.216q-1.159.328-2.328.61a.983.983,0,0,1-1.257-.935l-.066-1.249c-.017-.592-.056-1.2-.072-1.812-.057-1.2-.091-2.424-.126-3.628-.045-2.374-.071-4.754-.014-7.151a.218.218,0,0,1,.18-.21q.439-.076.876-.159a.215.215,0,0,1,.256.215c-.036,2.345-.031,4.679.035,7,.012,1.209.047,2.412.1,3.633.017.59.057,1.2.094,1.784l.043.889A.219.219,0,0,0,778.365,564.381Z" transform="translate(-740.911 -546.892)" fill="#fff"/>
              <path id="Path_253" data-name="Path 253" d="M781.569,563.46q.9-.291,1.8-.611a.216.216,0,0,1,.289.2l.025.878a.22.22,0,0,1-.144.212q-1.138.408-2.288.772a.919.919,0,0,1-1.256-.87c-.022-.408-.043-.816-.065-1.222-.017-.592-.056-1.2-.073-1.811-.056-1.2-.091-2.422-.124-3.626-.047-2.381-.073-4.767-.017-7.177a.216.216,0,0,1,.164-.206q.429-.107.857-.219a.217.217,0,0,1,.272.212c-.035,2.345-.028,4.677.038,6.991.013,1.211.047,2.413.1,3.633.017.59.056,1.2.095,1.78l.04.869A.219.219,0,0,0,781.569,563.46Z" transform="translate(-739.965 -547.153)" fill="#fff"/>
              <path id="Path_254" data-name="Path 254" d="M783.012,549.107q1.657-.621,3.283-1.34a.217.217,0,0,1,.3.192l.023.844a.215.215,0,0,1-.129.206q-1.169.52-2.355.992v.022l-.014.227,0,.884c-.005.577-.01,1.155-.014,1.753l0,.176q1.055-.406,2.1-.852a.216.216,0,0,1,.3.192l.025.867a.217.217,0,0,1-.133.207q-1.06.449-2.132.853a.219.219,0,0,0-.14.2c0,.614.017,1.221.035,1.828q.017,1.752.1,3.479c.038.562.053,1.13.092,1.713l.044.845.006.219v.022q1.146-.452,2.279-.953a.216.216,0,0,1,.3.19l.023.845a.218.218,0,0,1-.129.206q-1.678.746-3.388,1.39a.22.22,0,0,1-.3-.193l-.069-1.2-.066-.86c-.017-.57-.054-1.152-.071-1.744-.054-1.151-.087-2.311-.12-3.471s-.045-2.35-.035-3.525c0-.6-.012-1.168-.008-1.766l.018-.892.018-1.365A.216.216,0,0,1,783.012,549.107Z" transform="translate(-739.037 -547.749)" fill="#fff"/>
            </g>
          </g>
          <path id="Path_255" data-name="Path 255" d="M653.127,666.246s11.479-23.042,19.232-28.59a13.338,13.338,0,0,1,12.252-1.714c8.977,3.208,25.433,22.341,25.433,22.341s-10.521,17.647-26.238,19.847S653.127,666.246,653.127,666.246Z" transform="translate(-526.781 -467.997)" fill="#ebbf0b"/>
          <path id="Path_256" data-name="Path 256" d="M656.977,665.6c.685-1.96,6.783.776,14.691-2.895,1.3-.6,7.545-3.5,10.5-9.732,3.89-8.207-1.182-15.333,1.581-17.06,4.139-2.588,16.985,12.471,18.1,13.786,6.038,7.149,5.933,9.815,5.821,10.784-.576,4.962-6.269,7.954-12.356,11.154-5.9,3.1-11.1,5.836-18.064,5.527C665.807,676.658,656.058,668.23,656.977,665.6Z" transform="translate(-525.665 -467.864)" fill="#ee9b06"/>
          <path id="Path_257" data-name="Path 257" d="M680.778,680.141c-14.764,0-27.654-11.962-28.24-12.512l-.783-.737.48-.963c.475-.953,11.731-23.429,19.685-29.12a14.787,14.787,0,0,1,13.583-1.9c9.232,3.3,25.362,21.967,26.043,22.759l.68.79-.533.9c-.444.744-11.064,18.27-27.282,20.538A26.144,26.144,0,0,1,680.778,680.141Zm-25.446-13.911c3.257,2.771,15.853,12.58,28.676,10.793,12.865-1.8,22.292-14.76,24.634-18.277-3.222-3.643-16.623-18.435-24.114-21.111a11.9,11.9,0,0,0-10.924,1.528C667.125,643.8,657.612,661.8,655.332,666.231Z" transform="translate(-527.185 -468.326)" fill="#001d27"/>
          <path id="Path_258" data-name="Path 258" d="M625.958,705.512c3.916,10.859,18.034,15.715,31.532,10.846s21.265-17.618,17.349-28.477-18.034-15.714-31.532-10.846S622.042,694.654,625.958,705.512Zm41.864-9.433a4.559,4.559,0,1,1-5.835-2.742A4.559,4.559,0,0,1,667.822,696.079Zm-12.516-6.493a8.322,8.322,0,1,1-10.652-5A8.322,8.322,0,0,1,655.306,689.587Z" transform="translate(-535.085 -456.217)"/>
        </g>
        <path id="Path_259" data-name="Path 259" d="M628.628,590.493c-5.175,4.343-4.7,11.974,1.05,17.045q.266.235.59.474c-.268-.021-.52-.032-.757-.031-7.669.023-13.05,5.455-12.018,12.132s8.085,12.07,15.756,12.045,28.8-12.185,28.8-12.185l-.131-.063.14.039s-7.886-23.068-13.64-28.139S633.8,586.149,628.628,590.493Z" transform="translate(-537.317 -482.014)" fill="#d9006d"/>
        <path id="Path_260" data-name="Path 260" d="M633.509,633.722c-8.61,0-16.36-6.028-16.939-13.186-.643-7.974,5.4-11.955,11.712-13.148-2.276-3.3-6.827-11.583-.164-17.5h0c5.475-4.864,15.091-4.275,21.432,1.313,5.317,4.685,11.949,23.1,13.226,26.748a3.627,3.627,0,0,1-1.642,4.363c-3.359,1.9-20.486,11.388-27.569,11.411Zm-3.743-41.979c-5.981,5.316.021,13.614,1.284,15.225a1.658,1.658,0,0,1-1.1,2.671c-2.729.346-11.593,2.141-10.9,10.7.471,5.832,7.251,10.937,14.515,10.9,5.011-.016,17.33-5.984,26.355-11.088a1.147,1.147,0,0,0,.519-1.381c-3.426-9.786-8.761-22.391-12.523-25.7-5.342-4.707-13.651-5.314-18.144-1.322Zm-.127,15.432h0Z" transform="translate(-537.565 -482.306)" fill="#001d27"/>
        <path id="Path_261" data-name="Path 261" d="M692.133,586.589c-6.682.992-10.275,7.74-8.027,15.073.069.225.154.464.254.712q-.324-.237-.628-.422c-6.547-3.994-13.975-2.183-16.591,4.046s.571,14.517,7.119,18.51,30.916,4.692,30.916,4.692l-.079-.123.1.108s5.356-23.784,3.107-31.116S698.815,585.6,692.133,586.589Z" transform="translate(-522.922 -482.344)" fill="#ff949d"/>
        <path id="Path_262" data-name="Path 262" d="M703.528,630.616H703.4c-3.857-.141-23.4-1.029-29.428-4.709-7.369-4.5-10.841-13.715-7.579-20.131,3.625-7.132,10.857-7.361,16.861-5.072-.212-4,.246-13.441,9.021-15h0c7.216-1.28,15.1,4.255,17.574,12.338,2.073,6.759-1.906,25.907-2.724,29.675A3.676,3.676,0,0,1,703.528,630.616ZM676.713,601.9a8.56,8.56,0,0,0-8.112,5c-2.65,5.215.461,13.106,6.659,16.887,4.268,2.6,17.872,3.969,28.224,4.347a1.257,1.257,0,0,0,1.21-.943c2.2-10.12,4.244-23.637,2.777-28.419-2.088-6.807-8.847-11.67-14.768-10.621h0c-7.88,1.4-7.11,11.609-6.876,13.643a1.657,1.657,0,0,1-2.333,1.7A17.394,17.394,0,0,0,676.713,601.9Z" transform="translate(-523.236 -482.622)" fill="#001d27"/>
      </g>
      <g id="Group_124" data-name="Group 124" transform="translate(759.523 2029)">
        <g id="Group_121" data-name="Group 121" transform="translate(0 0)">
          <path id="Path_313" data-name="Path 313" d="M1432.2,566.483c-59.225,34.839-140.133-13.446-203.361-62.609-62.215-40.278-119.3-97.978-71.275-198.594,28.729-60.2,98.511-70.15,162.692-73.136,74.629-2.986,150.751,28.358,180.6,101.5C1532.2,409.763,1506.826,524.691,1432.2,566.483Z" transform="translate(-1118.513 -212.337)" fill="#ffd84f"/>
          <g id="Group_120" data-name="Group 120">
            <path id="Path_314" data-name="Path 314" d="M1190.651,531.343a261.794,261.794,0,0,1-23.282-28.658,159.726,159.726,0,0,1-17.124-31.709c-8.832-22.092-10.884-46.269-8.008-69.829a158.406,158.406,0,0,1,23.865-66.523,136.363,136.363,0,0,1,53.473-48.009,104.247,104.247,0,0,0-34.27,15.561,125.819,125.819,0,0,0-27.7,26.412c-15.709,20.4-25.353,45.387-28.523,70.948a146.851,146.851,0,0,0,.325,38.655,123.8,123.8,0,0,0,11.344,37,141.308,141.308,0,0,0,21.547,31.519A163.169,163.169,0,0,0,1190.651,531.343Z" transform="translate(-1127.96 -264.132)" fill="#ffd84f"/>
            <path id="Path_315" data-name="Path 315" d="M1274.3,265.874c-5.288-3.55-10.533-6.629-15.75-9.736-5.225-3.078-10.434-6.109-15.714-9.073s-10.629-5.852-16.143-8.556a116.192,116.192,0,0,0-17.291-7.058,102.651,102.651,0,0,0,13.857,12.6,129.832,129.832,0,0,0,15.526,10.244,106.924,106.924,0,0,0,17.047,7.742A66.5,66.5,0,0,0,1274.3,265.874Z" transform="translate(-1062.214 101.032)" fill="#ffd84f"/>
            <path id="Path_316" data-name="Path 316" d="M1396.687,222.01c-9.806,9.81-19.4,19.183-29.736,27.375a156.712,156.712,0,0,1-32.85,20.554,123,123,0,0,1-37.028,9.8c-12.987,1.48-26.354,1.177-40.2.34a99.167,99.167,0,0,0,40.57,10.081,94.793,94.793,0,0,0,42.1-8.131,109.9,109.9,0,0,0,34.474-25.024A115.317,115.317,0,0,0,1396.687,222.01Z" transform="translate(-1023.888 93.752)" fill="#ffd84f"/>
            <path id="Path_317" data-name="Path 317" d="M1302.708,295.746a264.694,264.694,0,0,1,25.311,20.059,220.955,220.955,0,0,1,21.514,23.276,215.712,215.712,0,0,1,17.261,26.22l3.606,6.954c.633,1.142,1.182,2.326,1.7,3.524l1.6,3.571,1.63,3.557c.51,1.2.958,2.427,1.44,3.64.922,2.44,1.963,4.836,2.792,7.311l2.485,7.424c.855,2.467,1.406,5.028,2.138,7.535l1.066,3.772.849,3.826c.539,2.559,1.173,5.1,1.648,7.674l1.316,7.748c.447,2.579.748,5.212,1.1,7.826.631,5.241,1.077,10.511,1.426,15.8a325.513,325.513,0,0,1-2.814,64.206,184.97,184.97,0,0,0,13.24-64.358,193.09,193.09,0,0,0-1.86-33.3,181.82,181.82,0,0,0-8.1-32.593,178.64,178.64,0,0,0-14.394-30.384,172.37,172.37,0,0,0-20.256-26.732,164.354,164.354,0,0,0-25.376-21.586,147.216,147.216,0,0,0-14.3-8.337A133.083,133.083,0,0,0,1302.708,295.746Z" transform="translate(-986.886 -268.961)" fill="#ffd84f"/>
            <path id="Path_318" data-name="Path 318" d="M1239.306,428.944c7.587,1.413,15.028,2.326,22.425,3.313l22.065,2.926c7.329,1.019,14.645,2.091,22.006,3.213,7.372,1.1,14.751,2.3,22.425,3.145a94.384,94.384,0,0,0-20.919-9.485,130.587,130.587,0,0,0-22.376-5.08,135.342,135.342,0,0,0-22.9-1.206A101.4,101.4,0,0,0,1239.306,428.944Z" transform="translate(-1038.07 -425.699)" fill="#ffd84f"/>
          </g>
        </g>
        <g id="Group_123" data-name="Group 123" transform="translate(113.336 -5)">
          <g id="Group_122" data-name="Group 122" transform="translate(0 0)">
            <path id="Path_319" data-name="Path 319" d="M1177.007,253.142q3.4-4.451,7.074-3.935a5.884,5.884,0,0,1,4.977,3.935q1.3,3.4-2.1,7.855a29.994,29.994,0,0,0-4.713,8.124,52.211,52.211,0,0,0-2.36,8.124,14.286,14.286,0,0,1,10.087,4.189,13.756,13.756,0,0,1,3.8,9.958,14.286,14.286,0,0,1-3.927,10.35,13.6,13.6,0,0,1-10.222,4.061q-6.81,0-10.605-4.587t-3.8-13.233a65.99,65.99,0,0,1,2.489-17.289A47.451,47.451,0,0,1,1177.007,253.142Zm43.489,0q3.405-4.451,7.074-3.935a5.884,5.884,0,0,1,4.978,3.935q1.312,3.4-2.093,7.855a29.885,29.885,0,0,0-4.721,8.124,52.969,52.969,0,0,0-2.353,8.124,14.292,14.292,0,0,1,10.086,4.189,13.778,13.778,0,0,1,3.8,9.958,14.267,14.267,0,0,1-3.933,10.35,13.582,13.582,0,0,1-10.215,4.061q-6.823,0-10.612-4.587t-3.8-13.233a65.989,65.989,0,0,1,2.489-17.289A47.506,47.506,0,0,1,1220.5,253.142Z" transform="translate(-1165.218 -249.153)" fill="#fff" stroke="#2a0f3f" stroke-width="4"/>
          </g>
        </g>
      </g>
    </g>
    <text id="THANK_YOU_" data-name="THANK YOU!" transform="translate(815 2102)" fill="#2a0f3f" font-size="91" font-family="AllRoundGothicW01-Bold" font-weight="700"><tspan x="0" y="84">THANK </tspan><tspan x="0" y="159">YOU!</tspan></text>
  </g>
</svg>
