<svg xmlns="http://www.w3.org/2000/svg" xmlns:xlink="http://www.w3.org/1999/xlink" width="1920" height="204" viewBox="0 0 1920 204">
  <defs>
    <clipPath id="clip-path">
      <rect id="Rectangle_15" data-name="Rectangle 15" width="1920" height="204" fill="#fff"/>
    </clipPath>
  </defs>
  <g id="Mask_Group_1" data-name="Mask Group 1" clip-path="url(#clip-path)">
    <g id="Group_133" data-name="Group 133">
      <g id="Group_101" data-name="Group 101" transform="translate(10 27)">
        <circle id="Ellipse_3" data-name="Ellipse 3" cx="102" cy="102" r="102" transform="translate(516 -88)" fill="#e8c23d"/>
        <circle id="Ellipse_6" data-name="Ellipse 6" cx="113.13" cy="113.13" r="113.13" transform="translate(675.641 -56.639) rotate(-14)" fill="#e8c23d"/>
        <ellipse id="Ellipse_9" data-name="Ellipse 9" cx="106" cy="105.5" rx="106" ry="105.5" transform="translate(1012.251 -39.505) rotate(-14)" fill="#e8c23d"/>
        <circle id="Ellipse_12" data-name="Ellipse 12" cx="84" cy="84" r="84" transform="translate(1357 -30.157) rotate(-14)" fill="#e8c23d"/>
        <circle id="Ellipse_15" data-name="Ellipse 15" cx="84" cy="84" r="84" transform="translate(303 -30.157) rotate(-14)" fill="#e8c23d"/>
        <circle id="Ellipse_18" data-name="Ellipse 18" cx="84" cy="84" r="84" transform="translate(-1 -50.01) rotate(-14)" fill="#e8c23d"/>
        <circle id="Ellipse_21" data-name="Ellipse 21" cx="84" cy="84" r="84" transform="translate(1668 -59.157) rotate(-14)" fill="#e8c23d"/>
        <circle id="Ellipse_4" data-name="Ellipse 4" cx="84" cy="84" r="84" transform="translate(628 -39)" fill="#e8c23d"/>
        <circle id="Ellipse_7" data-name="Ellipse 7" cx="84" cy="84" r="84" transform="translate(720 -20)" fill="#e8c23d"/>
        <circle id="Ellipse_10" data-name="Ellipse 10" cx="84" cy="84" r="84" transform="translate(1273 -55)" fill="#e8c23d"/>
        <circle id="Ellipse_13" data-name="Ellipse 13" cx="84" cy="84" r="84" transform="translate(219 -55)" fill="#e8c23d"/>
        <circle id="Ellipse_16" data-name="Ellipse 16" cx="84" cy="84" r="84" transform="translate(-85 -74.853)" fill="#e8c23d"/>
        <circle id="Ellipse_19" data-name="Ellipse 19" cx="84" cy="84" r="84" transform="translate(1584 -84)" fill="#e8c23d"/>
        <circle id="Ellipse_5" data-name="Ellipse 5" cx="130.25" cy="130.25" r="130.25" transform="translate(802.109 -48.356) rotate(-14)" fill="#e8c23d"/>
        <circle id="Ellipse_8" data-name="Ellipse 8" cx="84" cy="84" r="84" transform="translate(1155.326 -7.157) rotate(-14)" fill="#e8c23d"/>
        <circle id="Ellipse_11" data-name="Ellipse 11" cx="84" cy="84" r="84" transform="translate(1468.326 -34.21) rotate(-14)" fill="#e8c23d"/>
        <circle id="Ellipse_14" data-name="Ellipse 14" cx="84" cy="84" r="84" transform="translate(414.326 -34.21) rotate(-14)" fill="#e8c23d"/>
        <circle id="Ellipse_17" data-name="Ellipse 17" cx="84" cy="84" r="84" transform="translate(110.326 -54.062) rotate(-14)" fill="#e8c23d"/>
        <circle id="Ellipse_20" data-name="Ellipse 20" cx="84" cy="84" r="84" transform="translate(1779.326 -63.21) rotate(-14)" fill="#e8c23d"/>
      </g>
      <g id="Group_99" data-name="Group 99" transform="translate(0 20)">
        <circle id="Ellipse_3-2" data-name="Ellipse 3" cx="102" cy="102" r="102" transform="translate(516 -88)" fill="#fff"/>
        <circle id="Ellipse_6-2" data-name="Ellipse 6" cx="113.13" cy="113.13" r="113.13" transform="translate(675.641 -56.639) rotate(-14)" fill="#fff"/>
        <ellipse id="Ellipse_9-2" data-name="Ellipse 9" cx="106" cy="105.5" rx="106" ry="105.5" transform="translate(1012.251 -39.505) rotate(-14)" fill="#fff"/>
        <circle id="Ellipse_12-2" data-name="Ellipse 12" cx="84" cy="84" r="84" transform="translate(1357 -30.157) rotate(-14)" fill="#fff"/>
        <circle id="Ellipse_15-2" data-name="Ellipse 15" cx="84" cy="84" r="84" transform="translate(303 -30.157) rotate(-14)" fill="#fff"/>
        <circle id="Ellipse_18-2" data-name="Ellipse 18" cx="84" cy="84" r="84" transform="translate(-1 -50.01) rotate(-14)" fill="#fff"/>
        <circle id="Ellipse_21-2" data-name="Ellipse 21" cx="84" cy="84" r="84" transform="translate(1668 -59.157) rotate(-14)" fill="#fff"/>
        <circle id="Ellipse_4-2" data-name="Ellipse 4" cx="84" cy="84" r="84" transform="translate(628 -39)" fill="#fff"/>
        <circle id="Ellipse_7-2" data-name="Ellipse 7" cx="84" cy="84" r="84" transform="translate(720 -20)" fill="#fff"/>
        <circle id="Ellipse_10-2" data-name="Ellipse 10" cx="84" cy="84" r="84" transform="translate(1273 -55)" fill="#fff"/>
        <circle id="Ellipse_13-2" data-name="Ellipse 13" cx="84" cy="84" r="84" transform="translate(219 -55)" fill="#fff"/>
        <circle id="Ellipse_16-2" data-name="Ellipse 16" cx="84" cy="84" r="84" transform="translate(-85 -74.853)" fill="#fff"/>
        <circle id="Ellipse_19-2" data-name="Ellipse 19" cx="84" cy="84" r="84" transform="translate(1584 -84)" fill="#fff"/>
        <circle id="Ellipse_5-2" data-name="Ellipse 5" cx="130.25" cy="130.25" r="130.25" transform="translate(802.109 -48.356) rotate(-14)" fill="#fff"/>
        <circle id="Ellipse_8-2" data-name="Ellipse 8" cx="84" cy="84" r="84" transform="translate(1155.326 -7.157) rotate(-14)" fill="#fff"/>
        <circle id="Ellipse_11-2" data-name="Ellipse 11" cx="84" cy="84" r="84" transform="translate(1468.326 -34.21) rotate(-14)" fill="#fff"/>
        <circle id="Ellipse_14-2" data-name="Ellipse 14" cx="84" cy="84" r="84" transform="translate(414.326 -34.21) rotate(-14)" fill="#fff"/>
        <circle id="Ellipse_17-2" data-name="Ellipse 17" cx="84" cy="84" r="84" transform="translate(110.326 -54.062) rotate(-14)" fill="#fff"/>
        <circle id="Ellipse_20-2" data-name="Ellipse 20" cx="84" cy="84" r="84" transform="translate(1779.326 -63.21) rotate(-14)" fill="#fff"/>
      </g>
    </g>
  </g>
</svg>
