<svg xmlns="http://www.w3.org/2000/svg" width="164.343" height="123.409" viewBox="0 0 164.343 123.409">
  <g id="Group_100" data-name="Group 100" transform="translate(-567.159 -245.005)">
    <g id="Group_97" data-name="Group 97" transform="translate(567.159 245.005)">
      <g id="Group_96" data-name="Group 96" transform="translate(0 0)">
        <path id="Path_265" data-name="Path 265" d="M641.3,264c-.061-.247-.136-.488-.2-.731l.026.028a17.961,17.961,0,0,0-1.747-4.57c-.059-.122-.112-.247-.173-.367l-.03-.016a21.723,21.723,0,0,0-3.437-4.523,28.172,28.172,0,0,0-9.375-6.234,29.961,29.961,0,0,0-5.444-1.694,38.643,38.643,0,0,0-5.587-.794,50.083,50.083,0,0,0-11.043.582c-1.8.3-3.566.663-5.312,1.076-1.733.447-3.467.917-5.122,1.433-3.309,1.029-6.418,2.055-9.489,2.693a28.357,28.357,0,0,1-4.571.565,18.732,18.732,0,0,1-4.549-.464,13.385,13.385,0,0,1-8.087-5.126,10.53,10.53,0,0,0,2.232,5.039,15.326,15.326,0,0,0,4.405,3.7,19.316,19.316,0,0,0,5.475,2.037,25.918,25.918,0,0,0,5.766.452,57.5,57.5,0,0,0,10.739-1.619c3.333-.747,6.54-1.452,9.773-1.955,6.421-1.035,12.824-1.384,18.921-.013q.436.1.871.208a12.372,12.372,0,0,1,7.129,4.769,20.754,20.754,0,0,1,3.548,8.929,20.37,20.37,0,0,1,0,5.892,10.987,10.987,0,0,0-12.806-6.516,10.79,10.79,0,0,0-1.637.548.981.981,0,0,0-.386,1.455,3.022,3.022,0,0,1,.477,1.582,3.067,3.067,0,0,1-4.654,2.681.971.971,0,0,0-1.412.466,10.968,10.968,0,0,0,10.234,14.926,20.261,20.261,0,0,1-3.181,1.492A20.821,20.821,0,0,1,595.211,275.4a22.9,22.9,0,0,1,1.383-14.468.613.613,0,0,0-.674-.87,25.448,25.448,0,0,1-3.925.443,1.99,1.99,0,0,0-1.817,1.309A26.663,26.663,0,1,0,641.3,264" transform="translate(-567.159 -245.005)" fill="#1a2133"/>
        <path id="Path_266" data-name="Path 266" d="M1061.465,250.981a18.733,18.733,0,0,1-4.549.464,28.339,28.339,0,0,1-4.57-.565c-3.071-.637-6.18-1.663-9.489-2.693-1.655-.516-3.389-.986-5.122-1.433q-2.618-.619-5.311-1.076a50.066,50.066,0,0,0-11.044-.582,38.616,38.616,0,0,0-5.587.794,29.987,29.987,0,0,0-5.444,1.694,28.175,28.175,0,0,0-9.375,6.234,21.7,21.7,0,0,0-3.436,4.523l-.03.016c-.061.121-.114.246-.173.368a17.96,17.96,0,0,0-1.747,4.57l.026-.028c-.068.244-.143.484-.2.731a26.665,26.665,0,1,0,51.123-2.182,1.989,1.989,0,0,0-1.816-1.309,25.42,25.42,0,0,1-3.926-.443.613.613,0,0,0-.674.87A22.9,22.9,0,0,1,1041.5,275.4a20.821,20.821,0,0,1-27.438,14.523,20.261,20.261,0,0,1-3.18-1.492,10.968,10.968,0,0,0,10.2-15.014.887.887,0,0,0-1.3-.428,3.067,3.067,0,0,1-4.733-2.629,3.015,3.015,0,0,1,.531-1.664.892.892,0,0,0-.351-1.335,10.774,10.774,0,0,0-1.726-.587,10.988,10.988,0,0,0-12.806,6.516,20.376,20.376,0,0,1,0-5.892,20.75,20.75,0,0,1,3.544-8.924,12.375,12.375,0,0,1,7.133-4.774q.434-.11.87-.208c6.1-1.372,12.5-1.022,18.921.012,3.233.5,6.44,1.208,9.773,1.955a57.482,57.482,0,0,0,10.739,1.619,25.925,25.925,0,0,0,5.766-.452,19.355,19.355,0,0,0,5.475-2.037,15.334,15.334,0,0,0,4.405-3.7,10.532,10.532,0,0,0,2.232-5.039,13.387,13.387,0,0,1-8.087,5.126" transform="translate(-905.209 -245.006)" fill="#1a2133"/>
        <path id="Path_267" data-name="Path 267" d="M855.29,476.682c-5.582,10.792-21.913,13.706-25.845,14.231a.7.7,0,0,0-.535.984c5.8,13.629,48.3,14.8,54.287-.052a.7.7,0,0,0-.56-.977c-4.023-.411-20.542-3.27-26.133-14.183a.683.683,0,0,0-1.213,0" transform="translate(-774.111 -427.931)" fill="#f29e05"/>
        <path id="Path_268" data-name="Path 268" d="M686.33,634.375a11.586,11.586,0,0,1,.274,2.647,11.756,11.756,0,0,1-.269,2.4c0,.016-.008.033-.012.049a5.539,5.539,0,0,1-1.033,2.2,3.1,3.1,0,0,1-.984.848,3.42,3.42,0,0,1-1.471.4,5.365,5.365,0,0,1-1.54-.256.708.708,0,0,1-.074-.029,8.743,8.743,0,0,1-1.482-.806,8.467,8.467,0,0,1-2.485-2.766,11.127,11.127,0,0,1-1.238-2.874,11.956,11.956,0,0,1-.538-2.661,19.264,19.264,0,0,1-.161-2.459c0-.5.022-1.014.066-1.513a.552.552,0,0,1,.81-.436q1.082.573,2.169,1.13a.547.547,0,0,1,.29.566,11.155,11.155,0,0,0-.1,1.5c0,.658.053,1.336.106,1.961,0,.019,0,.038.007.057.107.644.268,1.306.429,1.913a7.6,7.6,0,0,0,.7,1.705.9.9,0,0,1,.217.357.3.3,0,0,1,.108.094c.055.076.109.151.163.17,0,.056.054.076.108.15l.055.02.054.075a.264.264,0,0,1,.108.095c-.325.774,0,.055-.054.148l.054-.148.054.075a3.01,3.01,0,0,0,.6.268,1.209,1.209,0,0,0,.488.115.611.611,0,0,0,.381-.09.733.733,0,0,0,.38-.37,3.424,3.424,0,0,0,.6-1.243,8.582,8.582,0,0,0,.163-1.726,5.2,5.2,0,0,0-.163-1.837,19.539,19.539,0,0,0-1.415-4.05c-.652-1.4-1.466-2.8-2.277-4.211s-1.784-2.89-2.645-4.449c-.432-.779-.861-1.616-1.237-2.433a17.286,17.286,0,0,1-1.073-2.545,18.425,18.425,0,0,1-.75-2.644,15.393,15.393,0,0,1-.374-2.6,11.154,11.154,0,0,1,.749-4.7,7.89,7.89,0,0,1,1.232-1.785,1.984,1.984,0,0,0,.431-.33,2.355,2.355,0,0,1,.484-.311,1.1,1.1,0,0,1,.485-.257l.269-.119.269-.119a5.442,5.442,0,0,1,2.648-.015,5.752,5.752,0,0,1,1.518.543A6.689,6.689,0,0,1,683,605.115a7.957,7.957,0,0,1,1.254,1.478,13.5,13.5,0,0,1,.819,1.6,15.491,15.491,0,0,1,.71,2.677,12.815,12.815,0,0,1,0,5.011,11.329,11.329,0,0,1-1.344,3.406.55.55,0,0,1-.836.118q-1.024-.916-2.045-1.846a.558.558,0,0,1-.084-.716,9.025,9.025,0,0,0,1.091-2.7,10.459,10.459,0,0,0,0-3.674,14.51,14.51,0,0,0-.49-1.894,3.068,3.068,0,0,0-.327-.615,1.215,1.215,0,0,0-.38-.467c-.109-.094-.272-.207-.435-.321a2.619,2.619,0,0,0-.6-.158,2.4,2.4,0,0,0-1.3.027l-.108.016-.162.107a.862.862,0,0,0-.324.158l-.27.177a.847.847,0,0,1-.27.232,4.536,4.536,0,0,0-.788,1.1.745.745,0,0,0-.038.083,7.519,7.519,0,0,0-.469,3.333,8.548,8.548,0,0,0,.269,2,14.955,14.955,0,0,0,.532,1.967c0,.014.009.028.015.041.267.654.535,1.361.855,2.033s.7,1.375,1.136,2.091c.758,1.392,1.679,2.78,2.6,4.325.871,1.471,1.743,3.044,2.508,4.632a22.431,22.431,0,0,1,1.8,5.035" transform="translate(-651.12 -528.41)" fill="#1a2133"/>
        <path id="Path_269" data-name="Path 269" d="M749.37,655.9q2.628.715,5.273,1.339a.549.549,0,0,1,.423.534v2.26a.555.555,0,0,1-.682.54q-2.966-.7-5.909-1.524a4.122,4.122,0,0,1-2.841-3.64q-.04-1.748-.081-3.5c0-1.5-.054-3.079-.055-4.637-.055-3.078-.055-6.2-.055-9.257.052-5.916.156-11.817.455-17.659a.554.554,0,0,1,.733-.493q1.106.379,2.217.741a.546.546,0,0,1,.377.545c-.265,5.911-.423,11.85-.423,17.834-.055,3.046-.055,6.108,0,9.241,0,1.5.055,3.077.11,4.595q.024,1.276.048,2.552a.555.555,0,0,0,.408.525" transform="translate(-708.152 -541.431)" fill="#1a2133"/>
        <path id="Path_270" data-name="Path 270" d="M804.153,632.962a.552.552,0,0,1,.478.533q.24,9.237.157,18.427c0,3.173-.113,6.33-.281,9.478,0,.773-.055,1.538-.112,2.357,0,.013,0,.026,0,.039-.11.8-.22,1.607-.385,2.455,0,.018-.008.036-.013.053a9.01,9.01,0,0,1-.948,2.441l-.169.307c-.056.047-.056.1-.112.149l-.113.149-.225.3a1.172,1.172,0,0,0-.281.288,4.626,4.626,0,0,1-.674.444,1.913,1.913,0,0,1-.394.211c-.112.036-.224.128-.337.164-.056-.009-.111.036-.167.027l-.113.035c-.056.046-.168.026-.224.071-.168.026-.281.005-.448.031a2.194,2.194,0,0,1-.9,0,4.239,4.239,0,0,1-1.959-.547,2.532,2.532,0,0,1-.5-.324,4.271,4.271,0,0,1-.447-.315,2.629,2.629,0,0,0-.447-.371l-.167-.2-.224-.214c-.055-.123-.224-.27-.279-.449l-.279-.394a3.175,3.175,0,0,1-.279-.45c-.056-.124-.168-.259-.223-.383a12.411,12.411,0,0,1-.947-3.106c-.168-.984-.279-1.9-.39-2.816-.278-3.571-.389-7.048-.389-10.444q-.083-5.2,0-10.354c.052-3.156.1-6.362.2-9.514a.551.551,0,0,1,.682-.516q1.12.271,2.244.526a.549.549,0,0,1,.427.553c-.1,3.273-.156,6.508-.209,9.743-.056,3.384-.056,6.836,0,10.244s.168,6.826.448,10.224c.055.783.165,1.631.276,2.372,0,.016.005.031.009.047a9.436,9.436,0,0,0,.665,2.059,1.755,1.755,0,0,0,.448.7l.056.122.056.011c0,.055.056.066.111.133a.07.07,0,0,1,.057.066l.112.022a1.167,1.167,0,0,0,.616.174.676.676,0,0,0,.336.007c.056.011.112-.034.168-.024l.056-.045.057.01a1.624,1.624,0,0,0,.9-.782,6.289,6.289,0,0,0,.617-1.672,11.872,11.872,0,0,0,.281-2.067c.112-.7.112-1.539.169-2.254.168-3.088.224-6.2.281-9.3.054-6.01,0-12.09-.152-18.189a.548.548,0,0,1,.63-.556q1.129.17,2.26.324" transform="translate(-745.218 -549.866)" fill="#1a2133"/>
        <path id="Path_271" data-name="Path 271" d="M872.755,675.371a10.253,10.253,0,0,1,.284,2.575,12.328,12.328,0,0,1-.284,2.491,7.288,7.288,0,0,1-1.077,2.5,4.6,4.6,0,0,1-1.02,1.106,4.66,4.66,0,0,1-1.49.771c-.026.008-.054.016-.081.022a5.606,5.606,0,0,1-1.559.141.758.758,0,0,1-.086-.011,7.141,7.141,0,0,1-1.542-.413,5.971,5.971,0,0,1-2.6-2.106A8.141,8.141,0,0,1,862,679.9a9.86,9.86,0,0,1-.565-2.518,17.734,17.734,0,0,1-.169-2.415,16.986,16.986,0,0,1,.091-1.753.549.549,0,0,1,.684-.465q1.146.288,2.294.56a.55.55,0,0,1,.415.614,11.238,11.238,0,0,0-.095,1.432c0,.656.055,1.319.109,1.928,0,.022.005.043.009.065a17.876,17.876,0,0,0,.447,1.794,5.6,5.6,0,0,0,.736,1.519.635.635,0,0,1,.226.3.22.22,0,0,1,.114.066c.057.061.113.122.169.127,0,.056.057.061.114.122l.056.005.057.06a.2.2,0,0,1,.114.066c-.34.86,0,.056-.058.162l.058-.162.056.06a2.607,2.607,0,0,0,.622.11,1.234,1.234,0,0,0,.51-.014.824.824,0,0,0,.4-.19,1.1,1.1,0,0,0,.4-.47,4.509,4.509,0,0,0,.623-1.4,8.924,8.924,0,0,0,.17-1.769,4.656,4.656,0,0,0-.17-1.794,14.825,14.825,0,0,0-1.473-3.677,39.853,39.853,0,0,0-2.378-3.609c-.848-1.2-1.866-2.417-2.77-3.746-.451-.664-.9-1.387-1.3-2.1a12.684,12.684,0,0,1-1.129-2.258,14.124,14.124,0,0,1-.789-2.444,13.064,13.064,0,0,1-.4-2.5,12.023,12.023,0,0,1,.789-4.9,11.227,11.227,0,0,1,1.3-2.114,3.037,3.037,0,0,0,.451-.446,3.651,3.651,0,0,1,.508-.44,1.658,1.658,0,0,1,.508-.386l.517-.349.091-.052a6.525,6.525,0,0,1,2.728-.7,5.289,5.289,0,0,1,1.585.141,5.122,5.122,0,0,1,1.642.63,5.52,5.52,0,0,1,1.3,1.148,9.426,9.426,0,0,1,.85,1.389,13.278,13.278,0,0,1,.738,7.5,14.336,14.336,0,0,1-1.473,3.905.555.555,0,0,1-.773.2q-1.025-.622-2.049-1.258a.56.56,0,0,1-.183-.756,11.423,11.423,0,0,0,1.134-2.981,10.01,10.01,0,0,0,0-3.674,11.329,11.329,0,0,0-.51-1.765,2.18,2.18,0,0,0-.339-.529.854.854,0,0,0-.4-.366,4.445,4.445,0,0,0-.453-.206,2.55,2.55,0,0,0-.622,0,2.893,2.893,0,0,0-1.358.371l-.113.044-.169.15a1.277,1.277,0,0,0-.339.243l-.283.249a1.287,1.287,0,0,1-.283.3,6.463,6.463,0,0,0-.831,1.316c-.012.025-.023.05-.032.076a8.009,8.009,0,0,0-.493,3.466,7.345,7.345,0,0,0,.282,1.926,11.592,11.592,0,0,0,.556,1.819.428.428,0,0,0,.021.05c.279.581.558,1.215.893,1.8a17.12,17.12,0,0,0,1.187,1.79c.792,1.191,1.755,2.335,2.717,3.637a43.616,43.616,0,0,1,2.606,3.972,16.866,16.866,0,0,1,1.871,4.562" transform="translate(-798.09 -562.289)" fill="#1a2133"/>
        <path id="Path_272" data-name="Path 272" d="M947.123,669.134c-.056,6.281.05,12.5.265,18.719a.552.552,0,0,1-.511.57q-1.182.087-2.365.155a.557.557,0,0,1-.588-.536c-.21-6.264-.263-12.531-.208-18.8,0-1.536,0-3.027.04-4.554a.546.546,0,0,0-.549-.564q-2.366.02-4.733-.032a.55.55,0,0,0-.564.535c-.04,1.542-.04,3.086-.04,4.629-.056,6.268,0,12.485.207,18.7a.551.551,0,0,1-.542.57q-1.153.017-2.307.017a.556.556,0,0,1-.555-.537c-.212-6.287-.265-12.568-.265-18.847.055-6.266.164-12.529.481-18.786a.554.554,0,0,1,.6-.523q1.15.092,2.3.168a.547.547,0,0,1,.512.572q-.22,4.8-.306,9.591a.559.559,0,0,0,.545.568q2.377.05,4.753.031a.553.553,0,0,0,.548-.544c.056-3.263.158-6.529.307-9.839a.555.555,0,0,1,.565-.529q1.174.025,2.348.032a.547.547,0,0,1,.543.575c-.317,6.226-.425,12.442-.48,18.656" transform="translate(-857.59 -565.169)" fill="#1a2133"/>
        <path id="Path_273" data-name="Path 273" d="M1016.471,645.151q1.161-.024,2.32-.065a.551.551,0,0,1,.57.6c-.6,6.166-1.259,12.338-1.969,18.564-.394,3.166-.79,6.387-1.3,9.619-.1.676-.234,1.357-.342,2.033l-.229,1.344-.273,1.376c0,.012-.006.024-.01.036-.109.342-.165.732-.277,1.127a17.451,17.451,0,0,1-.565,2.175,5.239,5.239,0,0,1-.792,1.584,2.735,2.735,0,0,1-.791.8,4.262,4.262,0,0,1-.453.209l-.227.02-.169.071-.227.02-.283-.032c-.113-.045-.171-.04-.283-.087s-.283-.088-.4-.135a1.964,1.964,0,0,1-.735-.777,9.618,9.618,0,0,1-1.077-3.707c-.056-.385-.114-.771-.17-1.157l-.113-.994q-.056-.608-.114-1.217c-.113-.771-.169-1.6-.226-2.379-.283-3.154-.454-6.317-.567-9.483-.332-6.152-.5-12.315-.615-18.482a.551.551,0,0,1,.509-.559q1.149-.089,2.3-.2a.549.549,0,0,1,.6.531c.166,6.085.334,12.218.608,18.29.17,3.159.34,6.262.566,9.36.056.775.112,1.549.227,2.318q.056.635.113,1.271.114-.594.227-1.19c.168-.794.283-1.584.4-2.375.51-3.109.9-6.266,1.3-9.479.716-6.148,1.378-12.348,1.934-18.541a.547.547,0,0,1,.535-.5" transform="translate(-915.123 -561.4)" fill="#1a2133"/>
        <path id="Path_274" data-name="Path 274" d="M1076.755,659.437c-.056,6.309,0,12.547.208,18.757a.551.551,0,0,1-.442.559q-1.139.229-2.281.442a.556.556,0,0,1-.656-.528c-.207-6.211-.26-12.445-.259-18.687.055-6.309.164-12.626.483-18.975a.554.554,0,0,1,.5-.522q1.131-.117,2.26-.252a.548.548,0,0,1,.614.568c-.264,6.234-.421,12.449-.421,18.638" transform="translate(-967.448 -557.558)" fill="#1a2133"/>
        <path id="Path_275" data-name="Path 275" d="M1108.171,669.4q2.394-.521,4.777-1.117a.55.55,0,0,1,.684.533v2.258a.556.556,0,0,1-.419.539q-2.971.749-5.963,1.382a2.5,2.5,0,0,1-3.127-2.466q-.039-1.591-.077-3.183c0-1.5-.056-3.052-.056-4.61-.056-3.051-.056-6.168-.056-9.23.055-6.04.162-12.09.479-18.18a.554.554,0,0,1,.473-.519q1.121-.163,2.239-.343a.549.549,0,0,1,.636.567c-.26,5.957-.417,11.891-.417,17.792-.056,3.073-.056,6.135,0,9.241,0,1.5.056,3.05.111,4.541l.043,2.266a.555.555,0,0,0,.671.531" transform="translate(-991.655 -552.991)" fill="#1a2133"/>
        <path id="Path_276" data-name="Path 276" d="M1159.022,656.818q2.317-.675,4.618-1.422a.549.549,0,0,1,.721.522v2.236a.556.556,0,0,1-.382.528q-2.921.957-5.87,1.8a2.339,2.339,0,0,1-3.131-2.3q-.037-1.556-.074-3.113c0-1.5-.055-3.048-.056-4.606-.055-3.047-.055-6.165-.055-9.226.055-6.055.161-12.123.475-18.247a.553.553,0,0,1,.436-.512q1.1-.24,2.194-.495a.549.549,0,0,1,.674.559c-.257,5.959-.409,11.888-.409,17.773-.055,3.077-.055,6.139,0,9.241,0,1.5.055,3.046.109,4.533l.042,2.212a.555.555,0,0,0,.708.522" transform="translate(-1031.876 -543.114)" fill="#1a2133"/>
        <path id="Path_277" data-name="Path 277" d="M1205.6,595.615q4.254-1.46,8.442-3.169a.548.548,0,0,1,.757.507v2.15a.556.556,0,0,1-.344.514q-3.012,1.239-6.06,2.349v.056q-.027.288-.054.576-.027,1.124-.054,2.247c-.054,1.467-.109,2.934-.163,4.457,0,.111,0,.278,0,.446q2.707-.956,5.387-2.014a.549.549,0,0,1,.753.51v2.207a.556.556,0,0,1-.354.517q-2.724,1.06-5.479,2.015a.552.552,0,0,0-.372.507c-.042,1.559-.043,3.1-.043,4.648q-.081,4.454,0,8.851c.054,1.428.054,2.875.108,4.359q.027,1.076.054,2.152v.613q2.948-1.069,5.863-2.259a.549.549,0,0,1,.758.508v2.149a.557.557,0,0,1-.344.514q-4.319,1.777-8.714,3.29a.556.556,0,0,1-.734-.51q-.044-1.525-.088-3.051-.054-1.1-.108-2.19c0-1.448-.054-2.933-.055-4.435-.055-2.932-.055-5.883-.055-8.833s.054-5.975.164-8.962c.054-1.522.054-2.969.109-4.491q.055-1.132.11-2.264.074-1.733.147-3.467a.547.547,0,0,1,.37-.5" transform="translate(-1071.342 -519.738)" fill="#1a2133"/>
      </g>
    </g>
  </g>
</svg>
