<svg xmlns="http://www.w3.org/2000/svg" xmlns:xlink="http://www.w3.org/1999/xlink" width="934" height="823" viewBox="0 0 934 823">
  <defs>
    <clipPath id="clip-path">
      <rect id="Rectangle_16" data-name="Rectangle 16" width="934" height="823" transform="translate(0 -1)" fill="#fff" stroke="#707070" stroke-width="1"/>
    </clipPath>
  </defs>
  <g id="Mask_Group_2" data-name="Mask Group 2" transform="translate(0 1)" clip-path="url(#clip-path)">
    <g id="Group_128" data-name="Group 128" transform="translate(-1317.588 4.021)" opacity="0.27">
      <g id="Group_126" data-name="Group 126" transform="translate(1206.834 -4.021)" style="mix-blend-mode: multiply;isolation: isolate">
        <path id="Path_320" data-name="Path 320" d="M2161.394,105.788A1192.092,1192.092,0,0,1,2120.7,242.547c-7.237,19.879-15.268,40.013-29.242,55.9-35.721,40.6-98.232,41.868-151.586,33.048A629.175,629.175,0,0,1,1796.718,289.9c-45.432-19.295-89.369-44.19-138.048-52.364s-105.294,4.968-131.522,46.78c-15.606,24.879-18.09,56.366-11.993,85.094s20.073,55.165,35.587,80.1c17.76,28.549,38.385,57.454,41.052,90.972,2.759,34.7-16.416,70.187-46.949,86.9-43.44,23.771-96.621,8.863-145.335-.023-61.889-11.29-128.272-11.19-184.812,16.392s-100.247,87.526-94.446,150.167" transform="translate(-1119.734 91.065)" fill="none" stroke="#d9b945" stroke-miterlimit="10" stroke-width="1"/>
        <path id="Path_321" data-name="Path 321" d="M2148.632,100.559a1122.065,1122.065,0,0,1-39.984,133.58c-7.146,19.4-15.078,39.02-28.7,54.578-34.8,39.762-95.288,41.951-147.165,34.38q-18.474-2.694-36.763-6.522a610.346,610.346,0,0,1-102.769-31.164c-44.391-17.868-87.415-41.187-134.981-48.693s-101.212,6.2-128.912,45.072c-10.421,14.623-17.536,30.381-20.548,47.392a129.561,129.561,0,0,0-1.294,35.574,147.072,147.072,0,0,0,2.6,16.428c4.763,21.939,14.9,43.426,26,63.834q1.651,3.036,3.326,6.054c17.355,31.333,35.683,63.368,36.684,98.4.965,33.747-16.842,68.063-46.583,84.532-42.315,23.436-93.926,10.012-141.063,2.522q-5.574-.885-11.19-1.639c-56.573-7.565-115.731-4.478-166.211,21.625-53.818,27.828-94.928,86.467-88.416,147.332" transform="translate(-1117.947 86.92)" fill="none" stroke="#d9b945" stroke-miterlimit="10" stroke-width="1"/>
        <path id="Path_322" data-name="Path 322" d="M2135.883,95.33a1054.545,1054.545,0,0,1-39.276,130.4c-7.054,18.915-14.886,38.028-28.149,53.261-33.887,38.923-92.345,42.033-142.743,35.716q-17.952-2.248-35.743-5.6a591.615,591.615,0,0,1-100.17-28.186c-43.349-16.439-85.459-38.186-131.913-45.023s-97.447,7.377-126.3,43.363c-11.637,14.514-21.15,28.828-26.22,45.346A122.568,122.568,0,0,0,1499.9,360.1a128.338,128.338,0,0,0,1.05,17.127c3,23.194,13.079,46.658,23.968,68.827q1.619,3.294,3.254,6.577c16.95,34.117,33.025,69.142,32.317,105.837-.633,32.72-17.272,65.939-46.221,82.172-41.189,23.1-91.23,11.16-136.788,5.066q-5.389-.721-10.81-1.31c-54.632-5.923-111.252-1.445-159.18,24.891-51.1,28.072-89.611,85.407-82.387,144.5" transform="translate(-1116.172 82.776)" fill="none" stroke="#d9b945" stroke-miterlimit="10" stroke-width="1"/>
        <path id="Path_323" data-name="Path 323" d="M2123.15,90.1a990.811,990.811,0,0,1-38.568,127.222c-6.963,18.431-14.7,37.033-27.6,51.941-32.969,38.086-89.4,42.117-138.32,37.051q-17.428-1.8-34.723-4.677a572.786,572.786,0,0,1-97.569-25.209c-42.307-15.01-83.505-35.182-128.848-41.35-45.321-6.174-93.985,8.458-123.688,41.655-12.931,14.451-24.764,27.274-31.892,43.3a116.716,116.716,0,0,0-9.649,35.416,114.444,114.444,0,0,0-.5,17.825c1.246,24.449,11.258,49.892,21.936,73.818q1.589,3.555,3.186,7.1c16.541,36.9,30.423,74.8,27.946,113.266-2.038,31.639-17.7,63.818-45.855,79.811-40.065,22.764-88.536,12.31-132.516,7.614q-5.2-.557-10.43-.982c-52.687-4.285-106.774,1.585-152.147,28.156-48.378,28.317-84.294,84.348-76.36,141.664" transform="translate(-1114.414 78.631)" fill="none" stroke="#d9b945" stroke-miterlimit="10" stroke-width="1"/>
        <path id="Path_324" data-name="Path 324" d="M2110.434,84.872a929.532,929.532,0,0,1-37.86,124.042c-6.873,17.948-14.507,36.042-27.054,50.626-32.053,37.245-86.46,42.2-133.9,38.383q-16.9-1.353-33.7-3.752a554.774,554.774,0,0,1-94.968-22.231c-41.268-13.581-81.549-32.179-125.782-37.679-44.2-5.507-90.8,9.422-121.076,39.945-14.3,14.419-28.378,25.722-37.564,41.252a112.479,112.479,0,0,0-13.825,35.336,104.532,104.532,0,0,0-2.058,18.522c-.513,25.7,9.435,53.128,19.9,78.812q1.557,3.813,3.114,7.628c16.136,39.683,27.9,80.364,23.577,120.7-3.268,30.522-18.13,61.694-45.49,77.448-38.939,22.428-85.841,13.46-128.242,10.159q-5.015-.39-10.051-.654c-50.744-2.644-102.295,4.618-145.117,31.422-45.654,28.561-78.977,83.288-70.329,138.829" transform="translate(-1112.674 74.486)" fill="none" stroke="#d9b945" stroke-miterlimit="10" stroke-width="1"/>
        <path id="Path_325" data-name="Path 325" d="M2097.74,79.643a871.2,871.2,0,0,1-37.152,120.863c-6.782,17.466-14.317,35.049-26.507,49.306-31.135,36.408-83.516,42.282-129.479,39.719q-16.376-.906-32.681-2.831a536.754,536.754,0,0,1-92.367-19.252c-40.226-12.154-79.6-29.176-122.715-34.007-43.084-4.84-87.858,10.256-118.466,38.236-15.747,14.393-31.992,24.165-43.236,39.2a110.057,110.057,0,0,0-18,35.255,98.014,98.014,0,0,0-3.612,19.221c-2.272,26.958,7.612,56.36,17.873,83.8q1.525,4.074,3.042,8.155c15.731,42.465,25.456,85.863,19.21,128.129-4.342,29.384-18.56,59.569-45.126,75.085-37.815,22.091-83.147,14.61-123.97,12.7q-4.827-.223-9.672-.326c-48.8-1-97.815,7.651-138.084,34.688-42.933,28.807-73.66,82.229-64.3,136" transform="translate(-1110.954 70.341)" fill="none" stroke="#d9b945" stroke-miterlimit="10" stroke-width="1"/>
        <path id="Path_326" data-name="Path 326" d="M2085.068,74.414A815.857,815.857,0,0,1,2048.625,192.1c-6.69,16.982-14.124,34.056-25.96,47.989-30.218,35.567-80.573,42.363-125.056,41.051q-15.854-.457-31.662-1.906a519.295,519.295,0,0,1-89.764-16.274c-39.185-10.726-77.641-26.175-119.65-30.336-41.963-4.173-85.118,10.953-115.854,36.526-17.262,14.361-35.606,22.613-48.908,37.157a109.342,109.342,0,0,0-22.179,35.176,93.768,93.768,0,0,0-5.167,19.92c-4.03,28.212,5.789,59.594,15.842,88.8q1.492,4.332,2.972,8.678c15.324,45.249,23.108,91.316,14.84,135.561-5.276,28.24-18.988,57.447-44.76,72.722-36.691,21.756-80.452,15.76-119.7,15.252q-4.641-.059-9.291,0c-46.854.638-93.335,10.684-131.051,37.955-40.214,29.052-68.343,81.169-58.271,133.163" transform="translate(-1109.257 66.196)" fill="none" stroke="#d9b945" stroke-miterlimit="10" stroke-width="1"/>
        <path id="Path_327" data-name="Path 327" d="M2072.425,69.185a762.913,762.913,0,0,1-35.735,114.5c-6.6,16.5-13.935,33.064-25.413,46.671-29.3,34.728-77.627,42.447-120.635,42.386q-15.328-.013-30.641-.982a502.444,502.444,0,0,1-87.164-13.3c-38.143-9.3-75.686-23.172-116.582-26.666-40.845-3.5-87.173,6.443-113.243,34.819-21.08,10.733-39.22,21.059-54.58,35.11-10.511,9.578-19.983,21.222-26.356,35.1a91.3,91.3,0,0,0-6.721,20.62c-5.789,29.466,3.967,62.828,13.809,93.786q1.466,4.593,2.9,9.205c14.917,48.031,20.867,96.742,10.473,142.99-6.09,27.1-19.418,55.324-44.4,70.363-35.567,21.419-77.758,16.909-115.424,17.8q-4.456.108-8.913.33c-44.91,2.277-88.855,13.714-124.02,41.221-37.49,29.294-63.024,80.108-52.241,130.327" transform="translate(-1107.589 62.051)" fill="none" stroke="#d9b945" stroke-miterlimit="10" stroke-width="1"/>
        <path id="Path_328" data-name="Path 328" d="M2059.813,63.956a712.616,712.616,0,0,1-35.027,111.326c-6.51,16.016-13.745,32.069-24.867,45.353-28.382,33.889-74.683,42.53-116.213,43.718q-14.8.436-29.621-.059a485.64,485.64,0,0,1-84.563-10.317c-37.1-7.872-73.729-20.17-113.517-22.995-39.724-2.84-84.584,6.653-110.631,33.109-22.765,10.154-42.833,19.5-60.252,33.063-11.92,9.243-22.9,20.824-30.531,35.017a90.164,90.164,0,0,0-8.277,21.317c-7.547,30.721,2.144,66.062,11.778,98.779q1.433,4.854,2.831,9.731c14.512,50.816,18.741,102.165,6.1,150.423-6.8,25.964-19.847,53.2-44.03,68-34.441,21.084-75.063,18.058-111.152,20.342q-4.267.272-8.531.658c-42.967,3.917-84.378,16.747-116.989,44.487-34.769,29.54-57.707,79.049-46.212,127.493" transform="translate(-1105.952 57.906)" fill="none" stroke="#d9b945" stroke-miterlimit="10" stroke-width="1"/>
        <path id="Path_329" data-name="Path 329" d="M2047.241,58.727a664.592,664.592,0,0,1-34.319,108.146c-6.418,15.535-13.554,31.078-24.32,44.036-27.466,33.05-71.74,42.612-111.79,45.054q-14.279.882-28.6.864a469.36,469.36,0,0,1-81.962-7.341c-36.062-6.441-71.776-17.165-110.449-19.322-38.607-2.173-82,6.862-108.02,31.4-24.452,9.573-46.447,17.95-65.924,31.015-13.329,8.908-25.811,20.424-34.708,34.936a90.057,90.057,0,0,0-9.831,22.016c-9.306,31.976.321,69.3,9.747,103.772q1.4,5.112,2.761,10.254c14.1,53.6,16.74,107.6,1.735,157.855-7.418,24.843-20.277,51.077-43.666,65.638-33.317,20.749-72.369,19.209-106.878,22.889q-4.082.436-8.153.984c-41.022,5.559-79.9,19.781-109.956,47.754-32.05,29.786-52.391,77.989-40.183,124.658" transform="translate(-1104.355 53.761)" fill="none" stroke="#d9b945" stroke-miterlimit="10" stroke-width="1"/>
        <path id="Path_330" data-name="Path 330" d="M2034.714,53.5a619.332,619.332,0,0,1-33.609,104.967c-6.328,15.051-13.365,30.085-23.773,42.718-26.55,32.211-68.8,42.695-107.37,46.386q-13.757,1.331-27.581,1.789a453.649,453.649,0,0,1-79.361-4.363c-35.02-5.014-69.822-14.162-107.384-15.65-37.487-1.506-79.409,7.072-105.41,29.691-26.136,8.992-50.059,16.4-71.595,28.968-14.736,8.574-28.724,20.026-38.885,34.857a90.7,90.7,0,0,0-11.385,22.715c-11.064,33.229-1.5,72.529,7.716,108.762q1.369,5.373,2.689,10.781c13.7,56.38,14.876,113.068-2.633,165.284-7.961,23.742-20.706,48.955-43.3,63.277-32.191,20.413-69.673,20.358-102.6,25.435q-3.894.6-7.773,1.314c-39.079,7.2-75.418,22.812-102.926,51.018-29.327,30.029-47.072,76.93-34.152,121.824" transform="translate(-1102.803 49.616)" fill="none" stroke="#d9b945" stroke-miterlimit="10" stroke-width="1"/>
        <path id="Path_331" data-name="Path 331" d="M2022.242,48.269a575.752,575.752,0,0,1-32.9,101.787c-6.237,14.569-13.174,29.094-23.226,41.4-25.632,31.372-65.854,42.777-102.949,47.721q-13.23,1.777-26.558,2.711a438.728,438.728,0,0,1-76.761-1.384c-33.979-3.585-67.866-11.161-104.317-11.979-36.368-.839-76.82,7.284-102.8,27.982-27.821,8.411-53.673,14.843-77.267,26.921-16.145,8.239-31.637,19.626-43.062,34.778a91.981,91.981,0,0,0-12.94,23.413c-12.823,34.484-3.324,75.763,5.683,113.755q1.339,5.631,2.619,11.3c13.293,59.164,13.159,118.59-7,172.717-8.442,22.663-21.136,46.83-42.938,60.914-31.066,20.078-66.979,21.509-98.331,27.982q-3.711.766-7.395,1.64c-37.134,8.838-70.938,25.845-95.893,54.284-26.605,30.275-41.755,75.87-28.124,118.99" transform="translate(-1101.306 45.471)" fill="none" stroke="#d9b945" stroke-miterlimit="10" stroke-width="1"/>
        <path id="Path_332" data-name="Path 332" d="M2009.837,43.04a534.516,534.516,0,0,1-32.193,98.609c-6.147,14.085-12.984,28.1-22.679,40.083-24.714,30.533-62.911,42.86-98.526,49.055q-12.706,2.224-25.539,3.634a424.459,424.459,0,0,1-74.16,1.594c-32.937-2.158-65.91-8.159-101.251-8.309-35.248-.17-74.23,7.5-100.186,26.274-29.506,7.832-57.287,13.289-82.939,24.874-17.554,7.9-34.552,19.228-47.239,34.7a93.719,93.719,0,0,0-14.494,24.11c-14.582,35.739-5.147,79,3.652,118.748q1.307,5.892,2.549,11.832c12.886,61.946,11.593,124.18-11.371,180.147-8.867,21.609-21.564,44.708-42.573,58.553-29.942,19.739-64.284,22.656-94.059,30.526q-3.523.933-7.015,1.968c-35.191,10.48-66.459,28.877-88.86,57.551-23.886,30.519-36.438,74.811-22.095,116.156" transform="translate(-1099.875 41.326)" fill="none" stroke="#d9b945" stroke-miterlimit="10" stroke-width="1"/>
        <path id="Path_333" data-name="Path 333" d="M1997.514,37.811a495.4,495.4,0,0,1-31.485,95.428c-6.056,13.6-12.794,27.107-22.133,38.765-23.8,29.694-59.967,42.942-94.1,50.389q-12.181,2.67-24.519,4.557a410.766,410.766,0,0,1-71.559,4.573c-31.9-.73-63.956-5.156-98.184-4.638-34.131.5-69.115,12.45-97.576,24.565-29.464,12.542-60.9,11.735-88.611,22.826-18.963,7.569-37.465,18.829-51.416,34.619a95.859,95.859,0,0,0-16.048,24.809c-16.34,36.994-6.97,82.231,1.62,123.74q1.274,6.15,2.478,12.355c12.479,64.73,10.2,129.864-15.738,187.58-9.252,20.585-21.993,42.583-42.209,56.19-28.818,19.4-61.59,23.807-89.787,33.072q-3.334,1.1-6.635,2.3c-33.245,12.12-61.979,31.91-81.829,60.817-21.163,30.764-31.119,73.753-16.064,113.321" transform="translate(-1098.527 37.181)" fill="none" stroke="#d9b945" stroke-miterlimit="10" stroke-width="1"/>
        <path id="Path_334" data-name="Path 334" d="M1985.294,32.582a458.267,458.267,0,0,1-30.777,92.25c-5.964,13.121-12.6,26.114-21.586,37.448-22.878,28.853-57.024,43.025-89.683,51.723q-11.657,3.117-23.5,5.48a398.107,398.107,0,0,1-68.958,7.549c-30.856.7-62-2.151-95.118-.964-33.011,1.163-66.989,12.275-94.964,22.855-31.378,11.868-64.515,10.182-94.283,20.781-20.372,7.233-40.38,18.429-55.593,34.538a98.272,98.272,0,0,0-17.6,25.508c-18.1,38.247-8.792,85.465-.412,128.731q1.245,6.408,2.408,12.882c12.074,67.513,8.979,135.66-20.107,195.009-9.6,19.592-22.421,40.461-41.843,53.829-27.693,19.069-58.9,24.956-85.513,35.619q-3.149,1.261-6.255,2.625c-31.3,13.759-57.5,34.941-74.8,64.081-18.441,31.01-25.8,72.694-10.035,110.487" transform="translate(-1097.281 33.036)" fill="none" stroke="#d9b945" stroke-miterlimit="10" stroke-width="1"/>
        <path id="Path_335" data-name="Path 335" d="M1973.2,27.353a423.109,423.109,0,0,1-30.069,89.072c-5.873,12.637-12.413,25.121-21.039,36.128-21.962,28.016-54.08,43.107-85.26,53.056q-11.133,3.566-22.479,6.405A386.287,386.287,0,0,1,1748,222.541c-29.814,2.126-60.046.85-92.051,2.707-31.892,1.829-64.849,12.025-92.352,21.145-33.312,11.047-68.13,8.628-99.955,18.734-21.781,6.9-43.294,18.031-59.77,34.459a101.065,101.065,0,0,0-19.157,26.207c-19.856,39.5-10.615,88.7-2.443,133.724q1.213,6.666,2.338,13.406c11.667,70.3,7.941,141.592-24.477,202.441-9.926,18.631-22.85,38.338-41.477,51.466-26.568,18.734-56.2,26.105-81.241,38.165q-2.961,1.428-5.875,2.953c-29.359,15.4-53.022,37.975-67.766,67.348-15.72,31.254-20.487,71.634-4.007,107.653" transform="translate(-1096.163 28.891)" fill="none" stroke="#d9b945" stroke-miterlimit="10" stroke-width="1"/>
        <path id="Path_336" data-name="Path 336" d="M1961.268,22.124a389.678,389.678,0,0,1-29.361,85.891c-5.781,12.156-12.222,24.13-20.492,34.812-21.045,27.175-51.137,43.189-80.838,54.39q-10.608,4.012-21.458,7.327a375.329,375.329,0,0,1-63.755,13.506c-28.773,3.555-58.092,3.853-88.986,6.377-30.771,2.5-62.676,11.712-89.74,19.438-35.255,10.066-71.744,7.074-105.627,16.686-23.188,6.565-46.207,17.633-63.947,34.378a103.992,103.992,0,0,0-20.711,26.9c-21.614,40.759-12.438,91.933-4.474,138.717q1.18,6.927,2.266,13.931c11.262,73.081,7.1,147.684-28.845,209.874-10.232,17.706-23.28,36.214-41.113,49.1-25.444,18.4-53.506,27.256-76.967,40.71q-2.778,1.595-5.5,3.281c-27.414,17.041-48.542,41.006-60.734,70.614-13,31.5-15.168,70.575,2.024,104.818" transform="translate(-1095.205 24.746)" fill="none" stroke="#d9b945" stroke-miterlimit="10" stroke-width="1"/>
        <path id="Path_337" data-name="Path 337" d="M1949.54,16.9a358.12,358.12,0,0,1-28.652,82.713c-5.692,11.672-12.031,23.136-19.944,33.493-20.128,26.338-48.195,43.272-76.419,55.724q-10.081,4.461-20.437,8.252a365.816,365.816,0,0,1-61.154,16.484c-27.731,4.982-56.136,6.855-85.918,10.048-29.655,3.164-60.462,11.335-87.13,17.728-37.2,8.919-75.356,5.521-111.3,14.639-24.6,6.23-49.122,17.235-68.124,34.3a107.076,107.076,0,0,0-22.265,27.6c-23.373,42.012-14.261,95.167-6.506,143.709q1.148,7.185,2.194,14.456c10.854,75.863,6.443,153.958-33.213,217.3-10.53,16.821-23.708,34.093-40.748,46.743-24.32,18.063-50.812,28.405-72.7,43.258q-2.589,1.759-5.116,3.609a147.21,147.21,0,0,0-53.7,73.879c-10.278,31.745-9.851,69.515,8.053,101.984" transform="translate(-1094.453 20.601)" fill="none" stroke="#d9b945" stroke-miterlimit="10" stroke-width="1"/>
        <path id="Path_338" data-name="Path 338" d="M1938.072,11.666A328.226,328.226,0,0,1,1910.128,91.2a207.514,207.514,0,0,1-19.4,32.177c-19.21,25.5-45.249,43.354-72,57.058q-9.56,4.9-19.417,9.173a357.083,357.083,0,0,1-58.553,19.463c-26.691,6.411-54.182,9.858-82.853,13.719-28.534,3.831-58.189,10.909-84.518,16.019-39.127,7.6-78.97,3.967-116.971,12.592-26.007,5.894-52.035,16.835-72.3,34.219a110.265,110.265,0,0,0-23.818,28.3c-25.134,43.267-16.084,98.4-8.54,148.7q1.119,7.446,2.124,14.982c10.449,78.647,5.986,160.44-37.58,224.735-10.824,15.975-24.138,31.969-40.385,44.382-23.192,17.726-48.116,29.554-68.42,45.8q-2.4,1.925-4.738,3.937A145.35,145.35,0,0,0,1156.1,873.6c-7.556,31.989-4.534,68.456,14.082,99.15" transform="translate(-1093.959 16.456)" fill="none" stroke="#d9b945" stroke-miterlimit="10" stroke-width="1"/>
        <path id="Path_339" data-name="Path 339" d="M1926.929,6.437a300.039,300.039,0,0,1-27.236,76.354,222.36,222.36,0,0,1-18.85,30.858c-18.293,24.66-42.306,43.439-67.573,58.392q-9.035,5.354-18.4,10.1a349.769,349.769,0,0,1-55.953,22.441c-25.648,7.838-52.226,12.859-79.785,17.391-27.416,4.5-55.85,10.437-81.906,14.309-41.026,6.1-82.584,2.413-122.644,10.545-27.416,5.561-54.948,16.437-76.478,34.142a113.636,113.636,0,0,0-25.372,29c-26.892,44.521-17.907,101.635-10.572,153.694q1.087,7.7,2.054,15.507c10.043,81.428,5.717,167.15-41.951,232.166a216.649,216.649,0,0,1-40.02,42.019c-22.068,17.391-45.422,30.7-64.148,48.349q-2.216,2.089-4.358,4.263a144.711,144.711,0,0,0-39.638,80.411c-4.835,32.234.783,67.4,20.112,96.316" transform="translate(-1093.791 12.311)" fill="none" stroke="#d9b945" stroke-miterlimit="10" stroke-width="1"/>
        <path id="Path_340" data-name="Path 340" d="M1916.178,1.208a273.506,273.506,0,0,1-26.528,73.174,243.5,243.5,0,0,1-18.3,29.542c-17.375,23.819-39.362,43.519-63.153,59.725q-8.508,5.8-17.375,11.021a343.926,343.926,0,0,1-53.352,25.417c-24.608,9.268-50.272,15.863-76.72,21.064-26.3,5.165-53.433,9.928-79.294,12.6-42.879,4.432-86.2.859-128.315,8.5-28.825,5.226-57.863,16.037-80.655,34.061a117.111,117.111,0,0,0-26.926,29.7c-28.651,45.776-19.73,104.869-12.6,158.685q1.054,7.965,1.983,16.032c9.636,84.212,5.629,174.113-46.318,239.6a260.825,260.825,0,0,1-39.656,39.656c-20.944,17.054-42.727,31.854-59.876,50.894q-2.03,2.253-3.976,4.591c-19.639,23.6-30.626,53.135-32.607,83.677-2.113,32.478,6.1,66.337,26.141,93.482" transform="translate(-1094.015 8.166)" fill="none" stroke="#d9b945" stroke-miterlimit="10" stroke-width="1"/>
        <path id="Path_341" data-name="Path 341" d="M1905.879-4.021c-14.1,69.8-59.793,131.162-118.662,171.222s-130,59.876-201.088,64.022c-44.676,2.607-89.812-.694-133.988,6.452s-89.014,26.8-113.312,64.377c-30.409,47.029-21.554,108.1-14.634,163.678,11.376,91.391,11.217,193.706-48.776,263.585-29.88,34.807-72.159,58.092-98.49,95.656-36.508,52.081-33.674,128.36,6.6,177.589" transform="translate(-1094.691 4.021)" fill="none" stroke="#d9b945" stroke-miterlimit="10" stroke-width="1"/>
      </g>
      <g id="Group_127" data-name="Group 127" transform="translate(1009.855 19.058)" style="mix-blend-mode: multiply;isolation: isolate">
        <path id="Path_342" data-name="Path 342" d="M1009.855,152.941a1192.621,1192.621,0,0,1,108.779-92.334c16.92-12.7,34.644-25.178,55.025-30.852,52.1-14.5,105.154,18.579,145.03,55.109a629.14,629.14,0,0,1,97.2,113.024c27.518,40.976,50.728,85.827,87.039,119.26s90.916,53.347,135.725,32.647c26.659-12.318,45.939-37.336,56.52-64.73s13.314-57.172,13.94-86.533c.715-33.617-.776-69.1,15.3-98.628,16.64-30.573,52.083-49.828,86.788-47.148,49.37,3.813,85.776,45.348,121.729,79.4,45.678,43.259,101.341,79.43,163.768,87.205s131.777-18.565,161.131-74.207" transform="translate(-1009.855 4.949)" fill="none" stroke="#d9b945" stroke-miterlimit="10" stroke-width="1"/>
        <path id="Path_343" data-name="Path 343" d="M1012.127,159.486a1102.365,1102.365,0,0,1,107.163-90.413c16.7-12.366,34.187-24.477,54.216-30.063,40.235-11.22,81.087,5.722,115.962,30.424a328.982,328.982,0,0,1,27.054,21.489,613.132,613.132,0,0,1,97.051,108.472c27.643,39.482,50.964,83.012,87.024,115.412,20.214,18.164,45.452,32.69,71.722,39.287,22.884,5.738,46.7,5.339,68.319-4.274a91.383,91.383,0,0,0,11.147-5.91c21.989-13.66,37.949-36.175,47.583-60.462A192.5,192.5,0,0,0,1707,259.572c5.328-21.127,7.648-43.073,9.067-64.668,2.295-34.255,3.455-69.558,20.81-98.786,17.237-29.029,51.283-47.816,85.192-45.369,48.245,3.48,84.147,42.913,119.542,74.931q4.184,3.786,8.478,7.483c43.26,37.238,94.5,66.961,151.043,72.665,60.281,6.084,126.743-20.584,154.531-75.126" transform="translate(-1008.054 12.25)" fill="none" stroke="#d9b945" stroke-miterlimit="10" stroke-width="1"/>
        <path id="Path_344" data-name="Path 344" d="M1014.4,166.034a1020.415,1020.415,0,0,1,105.545-88.491c16.48-12.031,33.729-23.775,53.411-29.275,39.52-11.045,79.683,4.846,114.162,28.285a325.692,325.692,0,0,1,26.838,20.431,597.328,597.328,0,0,1,96.9,103.92c27.769,37.989,51.23,80.171,87.008,111.561,21.057,18.474,46.924,33.538,73.925,40.712,23.47,6.217,48.091,6.244,70.437-3.331a92.789,92.789,0,0,0,11.561-5.946c22.835-13.843,39.213-37.06,49.378-62.068a211,211,0,0,0,8.16-24.508c5.83-21.643,8.913-44.088,11.3-66.044,3.876-34.893,7.631-69.983,26.322-98.946,17.746-27.5,50.484-45.8,83.6-43.589,47.119,3.148,82.518,40.479,117.353,70.465q4.12,3.544,8.339,7c42.526,34.8,92.4,61.975,146.936,66.088,58.135,4.394,121.711-22.6,147.933-76.044" transform="translate(-1006.252 19.549)" fill="none" stroke="#d9b945" stroke-miterlimit="10" stroke-width="1"/>
        <path id="Path_345" data-name="Path 345" d="M1016.672,175.809A945.721,945.721,0,0,1,1120.6,89.24c16.26-11.7,33.274-23.072,52.606-28.486,38.8-10.869,78.278,3.967,112.364,26.146a322.458,322.458,0,0,1,26.62,19.374,581.613,581.613,0,0,1,96.744,99.369c27.894,36.5,51.524,77.3,86.994,107.712,21.9,18.778,48.392,34.384,76.125,42.135,24.056,6.7,49.478,7.149,72.554-2.39a93.116,93.116,0,0,0,11.975-5.98c23.683-14.028,40.481-37.948,51.172-63.675a230.741,230.741,0,0,0,8.687-25.141c6.332-22.161,10.179-45.1,13.538-67.421,5.455-35.531,11.751-70.381,31.833-99.1,18.167-25.983,49.683-43.79,82-41.811,45.993,2.815,80.888,38.044,115.165,66q4.052,3.3,8.2,6.518c41.795,32.365,90.308,56.988,142.829,59.512,55.989,2.7,116.679-24.617,141.336-76.964" transform="translate(-1004.451 23.621)" fill="none" stroke="#d9b945" stroke-miterlimit="10" stroke-width="1"/>
        <path id="Path_346" data-name="Path 346" d="M1018.944,187.3a877.377,877.377,0,0,1,102.311-84.647c16.041-11.36,32.817-22.369,51.8-27.7,38.091-10.692,76.876,3.091,110.568,24.008a320.079,320.079,0,0,1,26.4,18.316,566.342,566.342,0,0,1,96.592,94.817c28.018,35,51.839,74.413,86.976,103.861,22.764,19.078,49.864,35.232,78.328,43.561,24.641,7.178,50.866,8.055,74.671-1.447a93.885,93.885,0,0,0,12.389-6.016c24.529-14.212,41.745-38.835,52.967-65.281A253.284,253.284,0,0,0,1721.162,261c6.832-22.678,11.445-46.115,15.772-68.8,7.036-36.169,15.812-70.757,37.345-99.261,18.5-24.494,48.883-41.777,80.406-40.031,44.869,2.479,79.26,35.608,112.975,61.53q3.988,3.066,8.062,6.038c41.062,29.929,88.211,52,138.722,52.936,53.844,1.009,111.647-26.634,134.737-77.883" transform="translate(-1002.65 25.976)" fill="none" stroke="#d9b945" stroke-miterlimit="10" stroke-width="1"/>
        <path id="Path_347" data-name="Path 347" d="M1021.217,198.794a814.161,814.161,0,0,1,100.694-82.725c15.821-11.025,32.36-21.666,50.993-26.908,37.374-10.516,75.472,2.212,108.768,21.867,9.121,5.351,17.885,11.215,26.186,17.26a551.234,551.234,0,0,1,96.44,90.266c28.143,33.507,52.178,71.5,86.962,100.011,23.631,19.372,51.332,36.08,80.529,44.986,25.225,7.658,52.253,8.96,76.786-.5a95.062,95.062,0,0,0,12.8-6.052c25.377-14.4,43.01-39.721,54.763-66.885a277.385,277.385,0,0,0,9.74-26.408c7.334-23.2,12.665-47.141,18.008-70.175,8.542-36.825,19.813-71.125,42.86-99.421,18.757-23.031,48.082-39.764,78.808-38.251,43.744,2.148,77.631,33.174,110.786,57.065q3.92,2.826,7.922,5.556c40.33,27.493,86.117,47.015,134.616,46.359,51.7-.681,106.613-28.651,128.138-78.8" transform="translate(-1000.849 28.329)" fill="none" stroke="#d9b945" stroke-miterlimit="10" stroke-width="1"/>
        <path id="Path_348" data-name="Path 348" d="M1023.489,210.287a756.336,756.336,0,0,1,99.077-80.8c15.6-10.69,31.9-20.964,50.186-26.121,36.661-10.338,74.069,1.337,106.972,19.73,9.024,5.007,17.715,10.511,25.969,16.2a536.353,536.353,0,0,1,96.285,85.716c28.269,32.012,52.539,68.565,86.946,96.16,24.508,19.655,52.8,36.926,82.732,46.409,25.809,8.139,53.641,9.865,78.9.439a95.905,95.905,0,0,0,13.216-6.088c26.225-14.58,44.276-40.608,56.558-68.491,3.908-8.888,7.271-17.966,10.268-27.041,7.836-23.712,13.927-48.157,20.243-71.552,10.114-37.469,23.751-71.494,48.37-99.579,18.938-21.6,47.282-37.75,77.213-36.472,42.617,1.814,76,30.739,108.6,52.6q3.856,2.584,7.784,5.073c39.6,25.056,84.02,42.028,130.509,39.783,49.552-2.374,101.58-30.668,121.539-79.721" transform="translate(-999.048 30.681)" fill="none" stroke="#d9b945" stroke-miterlimit="10" stroke-width="1"/>
        <path id="Path_349" data-name="Path 349" d="M1025.761,221.783a703.131,703.131,0,0,1,97.459-78.882c15.381-10.353,31.447-20.259,49.382-25.331,35.945-10.161,72.665.459,105.172,17.592,8.929,4.663,17.545,9.808,25.754,15.145a521.815,521.815,0,0,1,96.131,81.164c28.394,30.519,52.915,65.612,86.931,92.309,25.391,19.931,54.272,37.774,84.932,47.834,26.4,8.617,55.03,10.77,81.021,1.382a97.056,97.056,0,0,0,13.631-6.124c27.072-14.763,45.54-41.494,58.352-70.1,4.071-9.105,7.607-18.4,10.8-27.672,8.336-24.23,15.19-49.175,22.477-72.93,11.69-38.111,27.627-71.874,53.883-99.736,19.047-20.213,46.481-35.739,75.617-34.694,41.492,1.483,74.372,28.3,106.409,48.134q3.789,2.342,7.646,4.591c38.864,22.622,81.923,37.041,126.4,33.206,47.406-4.064,96.547-32.683,114.94-80.641" transform="translate(-997.247 33.032)" fill="none" stroke="#d9b945" stroke-miterlimit="10" stroke-width="1"/>
        <path id="Path_350" data-name="Path 350" d="M1028.034,236.429a653.431,653.431,0,0,1,95.841-76.96c15.163-10.018,30.992-19.558,48.575-24.542,35.232-9.985,71.229-.35,103.375,15.451,8.824,4.338,17.375,9.107,25.535,14.089a507.7,507.7,0,0,1,95.979,76.612c28.518,29.025,53.309,62.642,86.915,88.46,26.288,20.195,55.742,38.62,87.135,49.258,26.982,9.1,56.416,11.676,83.138,2.325a98.225,98.225,0,0,0,14.044-6.16c27.917-14.947,46.807-42.381,60.148-71.7,4.232-9.322,7.94-18.838,11.321-28.3,8.838-24.748,16.457-50.192,24.712-74.307,13.27-38.753,31.44-72.281,59.4-99.894,19.092-18.863,45.681-33.726,74.022-32.914,40.366,1.147,72.742,25.869,104.22,43.665q3.724,2.106,7.506,4.111c38.132,20.186,79.828,32.055,122.3,26.63,45.258-5.756,91.513-34.7,108.341-81.56" transform="translate(-995.445 32.233)" fill="none" stroke="#d9b945" stroke-miterlimit="10" stroke-width="1"/>
        <path id="Path_351" data-name="Path 351" d="M1030.306,253.436a607.678,607.678,0,0,1,94.225-75.038c14.942-9.682,30.535-18.856,47.768-23.753,34.517-9.81,69.824-1.223,101.578,13.313,8.727,4,17.2,8.4,25.318,13.029a494.067,494.067,0,0,1,95.826,72.063c28.642,27.532,53.714,59.654,86.9,84.61,27.191,20.451,57.214,39.468,89.339,50.683,27.566,9.578,57.8,12.581,85.255,3.268a99.415,99.415,0,0,0,14.458-6.2c28.764-15.132,48.071-43.268,61.941-73.31,4.4-9.539,8.277-19.273,11.85-28.938,9.338-25.264,17.723-51.206,26.948-75.682,14.849-39.4,35.189-72.724,64.906-100.055,19.083-17.55,44.882-31.713,72.427-31.134,39.242.816,71.114,23.434,102.031,39.2q3.657,1.863,7.368,3.628c37.4,17.749,77.731,27.068,118.188,20.053,43.114-7.447,86.483-36.716,101.744-82.478" transform="translate(-993.644 29.072)" fill="none" stroke="#d9b945" stroke-miterlimit="10" stroke-width="1"/>
        <path id="Path_352" data-name="Path 352" d="M1032.578,270.443a565.2,565.2,0,0,1,92.609-73.117c14.723-9.347,30.078-18.153,46.961-22.964,33.8-9.632,68.421-2.1,99.779,11.174,8.632,3.652,17.034,7.7,25.1,11.972a480.58,480.58,0,0,1,95.674,67.511c28.767,26.037,54.136,56.649,86.883,80.761,28.1,20.693,58.682,40.314,91.54,52.106,28.151,10.059,59.191,13.486,87.37,4.211a100.367,100.367,0,0,0,14.872-6.231c29.611-15.315,49.337-44.154,63.737-74.915,4.56-9.758,8.612-19.711,12.375-29.572,9.842-25.782,18.99-52.223,29.183-77.059,16.432-40.036,38.876-73.217,70.419-100.213,19.024-16.283,44.081-29.7,70.833-29.355,38.114.482,69.483,21,99.84,34.733q3.592,1.624,7.23,3.146c36.666,15.313,75.635,22.081,114.082,13.477,40.968-9.139,81.449-38.735,95.145-83.4" transform="translate(-991.843 25.912)" fill="none" stroke="#d9b945" stroke-miterlimit="10" stroke-width="1"/>
        <path id="Path_353" data-name="Path 353" d="M1034.851,287.45a525.846,525.846,0,0,1,90.99-71.195c14.5-9.012,29.622-17.45,46.156-22.176,33.086-9.456,67.02-2.97,97.981,9.035,8.537,3.309,16.862,7,24.884,10.914a467.5,467.5,0,0,1,95.52,62.959c28.893,24.544,54.568,53.628,86.867,76.91,29.029,20.924,60.154,41.162,93.743,53.532,28.735,10.539,60.579,14.394,89.487,5.154a101.776,101.776,0,0,0,15.285-6.265c30.46-15.5,50.6-45.043,65.532-76.523,4.724-9.975,8.949-20.144,12.9-30.205,10.342-26.3,20.257-53.238,31.417-78.436,18.015-40.676,42.5-73.773,75.931-100.371,18.924-15.059,43.281-27.686,69.237-27.577,36.989.151,67.854,18.567,97.651,30.268q3.528,1.382,7.09,2.664c35.935,12.877,73.54,17.1,109.977,6.9,38.822-10.83,76.415-40.75,88.546-84.316" transform="translate(-990.041 22.752)" fill="none" stroke="#d9b945" stroke-miterlimit="10" stroke-width="1"/>
        <path id="Path_354" data-name="Path 354" d="M1037.123,304.456a489.163,489.163,0,0,1,89.373-69.271c14.284-8.677,29.165-16.747,45.351-21.387,32.371-9.281,65.618-3.847,96.183,6.895,8.44,2.967,16.692,6.294,24.666,9.858a454.9,454.9,0,0,1,95.368,58.408c29.018,23.05,55.011,50.593,86.852,73.061,29.959,21.138,61.622,42.008,95.943,54.955,29.321,11.018,61.966,15.3,91.6,6.1a102.9,102.9,0,0,0,15.7-6.3c31.306-15.684,51.866-45.931,67.326-78.129,4.887-10.191,9.284-20.58,13.431-30.838,10.842-26.817,21.575-54.229,33.652-79.812,19.677-41.278,46.065-74.407,81.442-100.53,18.791-13.875,42.481-25.673,67.642-25.8,35.863-.185,66.224,16.131,95.464,25.8q3.458,1.14,6.95,2.182c35.2,10.441,71.444,12.108,105.869.324,36.677-12.522,71.383-42.768,81.948-85.235" transform="translate(-988.24 19.591)" fill="none" stroke="#d9b945" stroke-miterlimit="10" stroke-width="1"/>
        <path id="Path_355" data-name="Path 355" d="M1039.4,321.463a455.072,455.072,0,0,1,87.758-67.35c14.064-8.341,28.708-16.045,44.543-20.6,31.657-9.1,64.218-4.724,94.385,4.758,8.345,2.623,16.522,5.591,24.451,8.8a442.924,442.924,0,0,1,95.213,53.856c29.144,21.557,55.463,47.546,86.836,69.21,30.9,21.34,63.094,42.856,98.146,56.38,29.906,11.5,63.354,16.2,93.722,7.038a104.182,104.182,0,0,0,16.113-6.335c32.154-15.869,53.133-46.816,69.123-79.735,5.048-10.408,9.618-21.016,13.956-31.471,11.346-27.333,22.842-55.242,35.888-81.189,21.258-41.917,49.572-75.133,86.954-100.688,18.632-12.737,41.682-23.66,66.047-24.017,34.739-.516,64.594,13.7,93.275,21.333q3.393.9,6.81,1.7c34.47,8.006,69.348,7.122,101.764-6.251,34.529-14.212,66.349-44.783,75.349-86.153" transform="translate(-986.439 16.431)" fill="none" stroke="#d9b945" stroke-miterlimit="10" stroke-width="1"/>
        <path id="Path_356" data-name="Path 356" d="M1041.668,338.47a423.22,423.22,0,0,1,86.139-65.428c13.845-8.006,28.253-15.342,43.738-19.811,30.942-8.926,62.816-5.6,92.587,2.619,8.25,2.277,16.351,4.889,24.232,7.743a431.44,431.44,0,0,1,95.061,49.3c29.269,20.064,55.921,44.484,86.822,65.36,31.856,21.525,64.562,43.7,100.348,57.805,30.492,11.979,64.741,17.109,95.837,7.981a105.274,105.274,0,0,0,16.529-6.371c33-16.054,54.4-47.7,70.915-81.342,5.213-10.625,9.955-21.451,14.485-32.1,11.846-27.851,24.106-56.258,38.122-82.568,22.839-42.555,53.024-75.967,92.467-100.846,18.454-11.64,40.881-21.649,64.451-22.238,33.613-.85,62.966,11.262,91.087,16.867q3.326.662,6.672,1.217c33.737,5.57,67.251,2.137,97.655-12.827,32.385-15.9,61.319-46.8,68.751-87.073" transform="translate(-984.637 13.27)" fill="none" stroke="#d9b945" stroke-miterlimit="10" stroke-width="1"/>
        <path id="Path_357" data-name="Path 357" d="M1043.94,355.477a393.578,393.578,0,0,1,84.522-63.506c13.625-7.671,27.8-14.641,42.931-19.022,30.227-8.75,61.417-6.484,90.791.479,8.155,1.934,16.179,4.186,24.015,6.687a420.509,420.509,0,0,1,94.909,44.754c29.391,18.569,56.385,41.406,86.8,61.509,32.821,21.69,66.034,44.55,102.551,59.229,31.076,12.459,66.129,18.015,97.954,8.924a106.77,106.77,0,0,0,16.941-6.407c33.848-16.236,55.663-48.591,72.712-82.946,5.374-10.844,10.29-21.889,15.01-32.736,12.348-28.369,25.374-57.271,40.359-83.945,24.416-43.193,56.423-76.924,97.978-101.006,18.266-10.584,40.081-19.634,62.855-20.458,32.487-1.181,61.337,8.827,88.9,12.4q3.261.422,6.534.735c33,3.135,65.156-2.85,93.548-19.4,30.239-17.6,56.285-48.817,62.153-87.991" transform="translate(-982.836 10.11)" fill="none" stroke="#d9b945" stroke-miterlimit="10" stroke-width="1"/>
        <path id="Path_358" data-name="Path 358" d="M1046.213,372.484a365.85,365.85,0,0,1,82.9-61.584c13.406-7.336,27.34-13.938,42.126-18.233,29.511-8.573,60.018-7.368,88.991-1.66,8.06,1.588,16.01,3.483,23.8,5.629a410.208,410.208,0,0,1,94.756,40.2c29.517,17.075,56.859,38.319,86.789,57.658,33.8,21.837,67.5,45.4,104.75,60.654,31.663,12.94,67.518,18.92,100.072,9.867a108.067,108.067,0,0,0,17.357-6.443c34.694-16.421,56.927-49.477,74.506-84.552,5.537-11.061,10.625-22.324,15.537-33.369,12.848-28.886,26.639-58.286,42.593-85.321,26-43.831,59.781-78.02,103.49-101.163,18.076-9.569,39.281-17.622,61.26-18.678,31.361-1.517,59.707,6.391,86.709,7.934q3.194.18,6.395.253c32.272.7,63.06-7.838,89.443-25.98,28.093-19.288,51.251-50.834,55.554-88.91" transform="translate(-981.034 6.949)" fill="none" stroke="#d9b945" stroke-miterlimit="10" stroke-width="1"/>
        <path id="Path_359" data-name="Path 359" d="M1048.485,389.491a340,340,0,0,1,81.288-59.662c13.185-7,26.883-13.235,41.318-17.445,28.8-8.4,58.619-8.254,87.195-3.8,7.965,1.241,15.838,2.78,23.581,4.571a400.717,400.717,0,0,1,94.6,35.651c29.642,15.58,57.335,35.221,86.773,53.809,34.782,21.96,68.974,46.244,106.954,62.077,32.247,13.418,68.9,19.825,102.189,10.81a109.38,109.38,0,0,0,17.769-6.479c35.542-16.6,58.192-50.364,76.3-86.159,5.7-11.278,10.961-22.76,16.066-34,13.35-29.4,27.905-59.3,44.826-86.7,27.579-44.469,63.1-79.266,109-101.321,17.887-8.6,38.482-15.609,59.664-16.9,30.235-1.848,58.078,3.956,84.52,3.467q3.13-.056,6.256-.228a147.194,147.194,0,0,0,85.336-32.557c25.947-20.978,46.219-52.85,48.955-89.828" transform="translate(-979.233 3.789)" fill="none" stroke="#d9b945" stroke-miterlimit="10" stroke-width="1"/>
        <path id="Path_360" data-name="Path 360" d="M1050.757,406.5a315.9,315.9,0,0,1,79.671-57.741,230.813,230.813,0,0,1,40.513-16.656c28.083-8.221,57.224-9.191,85.4-5.939,7.87.882,15.668,2.078,23.362,3.515a391.853,391.853,0,0,1,94.45,31.1c29.768,14.087,57.816,32.111,86.759,49.959,35.778,22.064,70.442,47.092,109.155,63.5,32.831,13.9,70.291,20.731,104.3,11.753a110.543,110.543,0,0,0,18.183-6.515c36.39-16.789,59.46-51.251,78.1-87.765,5.864-11.495,11.3-23.2,16.591-34.635,13.852-29.92,29.172-60.313,47.063-88.073,29.158-45.109,66.4-80.678,114.515-101.482,17.71-7.657,37.679-13.6,58.067-15.12,29.112-2.182,56.448,1.522,82.331-1q3.066-.3,6.118-.71a145.353,145.353,0,0,0,81.229-39.133c23.8-22.67,41.185-54.867,42.356-90.748" transform="translate(-977.432 0.628)" fill="none" stroke="#d9b945" stroke-miterlimit="10" stroke-width="1"/>
        <path id="Path_361" data-name="Path 361" d="M1053.03,423.5a293.33,293.33,0,0,1,78.052-55.817,244.614,244.614,0,0,1,39.706-15.867c27.369-8.044,55.821-10.068,83.6-8.078,7.775.538,15.5,1.375,23.147,2.458a383.785,383.785,0,0,1,94.3,26.548c29.893,12.594,58.3,28.99,86.743,46.11,36.79,22.141,71.914,47.938,111.358,64.926,33.416,14.379,71.679,21.636,106.421,12.7a111.966,111.966,0,0,0,18.6-6.55c37.236-16.973,60.724-52.137,79.891-89.371,6.027-11.712,11.631-23.629,17.118-35.268,14.352-30.436,30.438-61.328,49.3-89.45,30.74-45.748,69.678-82.265,120.028-101.64a211.5,211.5,0,0,1,56.471-13.341c27.986-2.513,54.821-.911,80.142-5.464q3-.54,5.979-1.192A144.7,144.7,0,0,0,2181,108.493c21.654-24.361,36.153-56.884,35.757-91.666" transform="translate(-975.631 -2.532)" fill="none" stroke="#d9b945" stroke-miterlimit="10" stroke-width="1"/>
        <path id="Path_362" data-name="Path 362" d="M1055.3,440.511a272.235,272.235,0,0,1,76.435-53.9,253.626,253.626,0,0,1,120.7-25.295q11.517.29,22.928,1.4a376.594,376.594,0,0,1,94.145,22c30.017,11.1,58.786,25.86,86.727,42.259,37.811,22.194,73.382,48.786,113.558,66.351,34,14.86,73.068,22.541,108.54,13.639a113.386,113.386,0,0,0,19.01-6.586c38.084-17.156,61.989-53.024,81.686-90.975,6.19-11.93,11.968-24.067,17.645-35.9,14.854-30.954,31.705-62.341,51.533-90.827,32.319-46.386,72.959-84.032,125.54-101.8a256.626,256.626,0,0,1,54.878-11.561c26.858-2.849,53.189-3.347,77.952-9.932q2.934-.78,5.84-1.674c29.341-9.046,54.676-27.783,73.015-52.286,19.51-26.053,31.121-58.9,29.16-92.585" transform="translate(-973.83 -5.693)" fill="none" stroke="#d9b945" stroke-miterlimit="10" stroke-width="1"/>
        <path id="Path_363" data-name="Path 363" d="M1057.574,457.518C1107.5,406.748,1179.3,380.3,1250.491,378.9s141.6,20.845,203.413,56.2c38.847,22.217,74.854,49.634,115.761,67.776s89.2,26.168,130.081,7.96c51.158-22.787,77.095-78.783,101.653-129.117,40.386-82.77,96.4-168.389,184.819-194.159,44.041-12.837,92.175-9.25,134.748-26.336,59.026-23.689,98.313-89.133,91.469-152.366" transform="translate(-972.029 -8.853)" fill="none" stroke="#d9b945" stroke-miterlimit="10" stroke-width="1"/>
      </g>
    </g>
  </g>
</svg>
