<svg xmlns="http://www.w3.org/2000/svg" width="45.523" height="87.863" viewBox="0 0 45.523 87.863">
  <g id="Group_112" data-name="Group 112" transform="translate(-3374.844 114.997)">
    <path id="Path_303" data-name="Path 303" d="M3416.487-77.844c0,3.785.054,7.571-.007,11.355-.159,9.827-7.681,17.606-16.919,17.553-9.1-.052-16.562-7.794-16.679-17.472q-.138-11.511,0-23.025c.123-9.856,7.65-17.6,16.9-17.553,9.1.049,16.493,7.755,16.688,17.471C3416.549-85.626,3416.484-81.734,3416.487-77.844Z" transform="translate(2.319 -4.955)" fill="#d94935"/>
    <path id="Path_301" data-name="Path 301" d="M3420.366-80.59c-.263,5.235.014,10.567-.9,15.685a22.3,22.3,0,0,1-24.087,17.992,22.779,22.779,0,0,1-20.455-22.193q-.159-11.821,0-23.646A22.677,22.677,0,0,1,3397.272-115a22.723,22.723,0,0,1,22.817,22.1c.095,4.1.015,8.2.015,12.3Zm-5.285-.209c0-3.89.068-7.782-.014-11.67a17.66,17.66,0,0,0-17.449-17.471,17.614,17.614,0,0,0-17.67,17.553q-.151,11.511,0,23.024a17.625,17.625,0,0,0,17.44,17.472,17.681,17.681,0,0,0,17.692-17.553C3415.141-73.228,3415.088-77.014,3415.082-80.8Z"/>
    <path id="Path_302" data-name="Path 302" d="M3406.23,13.222c1.6-1.9,2.7-3.653,4.225-4.834.772-.6,2.332-.161,3.535-.192-.043,1.21.385,2.8-.218,3.562a37.151,37.151,0,0,1-5.969,6,3.649,3.649,0,0,1-3.484.121,39.352,39.352,0,0,1-6.2-6.207c-.584-.732-.074-2.345-.066-3.554,1.2.083,2.692-.25,3.549.342C3403.118,9.5,3404.248,11.113,3406.23,13.222Z" transform="translate(-8.482 -45.398)"/>
    <path id="Path_304" data-name="Path 304" d="M3406.781-86.6a14.245,14.245,0,0,1,.1-4.045c.273-.883,1.524-2.134,2.2-2.054.942.113,2.4,1.238,2.5,2.068a36.687,36.687,0,0,1,.01,8.124c-.084.8-1.515,2.117-2.194,2.037a3.7,3.7,0,0,1-2.513-2.093C3406.451-83.758,3406.78-85.237,3406.781-86.6Z" transform="translate(-11.737 -8.226)"/>
  </g>
</svg>
