<svg xmlns="http://www.w3.org/2000/svg" width="415.225" height="390.973" viewBox="0 0 415.225 390.973">
  <g id="Group_133" data-name="Group 133" transform="translate(-759.523 -2021.997)">
    <path id="Path_318" data-name="Path 318" d="M1239.306,428.944c7.587,1.413,15.028,2.326,22.425,3.313l22.065,2.926c7.329,1.019,14.645,2.091,22.006,3.213,7.372,1.1,14.751,2.3,22.425,3.145a94.384,94.384,0,0,0-20.919-9.485,130.587,130.587,0,0,0-22.376-5.08,135.342,135.342,0,0,0-22.9-1.206A101.4,101.4,0,0,0,1239.306,428.944Z" transform="translate(-278.547 1603.301)" fill="#ffd84f"/>
    <g id="Group_132" data-name="Group 132">
      <path id="Path_313" data-name="Path 313" d="M1432.2,566.483c-59.225,34.839-140.133-13.446-203.361-62.609-62.215-40.278-119.3-97.978-71.275-198.594,28.729-60.2,98.511-70.15,162.692-73.136,74.629-2.986,150.751,28.358,180.6,101.5C1532.2,409.763,1506.826,524.691,1432.2,566.483Z" transform="translate(-358.99 1816.663)" fill="#ffd84f"/>
      <path id="Path_314" data-name="Path 314" d="M1190.651,531.343a261.794,261.794,0,0,1-23.282-28.658,159.726,159.726,0,0,1-17.124-31.709c-8.832-22.092-10.884-46.269-8.008-69.829a158.406,158.406,0,0,1,23.865-66.523,136.363,136.363,0,0,1,53.473-48.009,104.247,104.247,0,0,0-34.27,15.561,125.819,125.819,0,0,0-27.7,26.412c-15.709,20.4-25.353,45.387-28.523,70.948a146.851,146.851,0,0,0,.325,38.655,123.8,123.8,0,0,0,11.344,37,141.308,141.308,0,0,0,21.547,31.519A163.169,163.169,0,0,0,1190.651,531.343Z" transform="translate(-368.437 1764.868)" fill="#ffd84f"/>
      <path id="Path_315" data-name="Path 315" d="M1274.3,265.874c-5.288-3.55-10.533-6.629-15.75-9.736-5.225-3.078-10.434-6.109-15.714-9.073s-10.629-5.852-16.143-8.556a116.192,116.192,0,0,0-17.291-7.058,102.651,102.651,0,0,0,13.857,12.6,129.832,129.832,0,0,0,15.526,10.244,106.924,106.924,0,0,0,17.047,7.742A66.5,66.5,0,0,0,1274.3,265.874Z" transform="translate(-302.691 2130.032)" fill="#ffd84f"/>
      <path id="Path_316" data-name="Path 316" d="M1396.687,222.01c-9.806,9.81-19.4,19.183-29.736,27.375a156.712,156.712,0,0,1-32.85,20.554,123,123,0,0,1-37.028,9.8c-12.987,1.48-26.354,1.177-40.2.34a99.167,99.167,0,0,0,40.57,10.081,94.793,94.793,0,0,0,42.1-8.131,109.9,109.9,0,0,0,34.474-25.024A115.317,115.317,0,0,0,1396.687,222.01Z" transform="translate(-264.365 2122.752)" fill="#ffd84f"/>
      <path id="Path_317" data-name="Path 317" d="M1302.708,295.746a264.694,264.694,0,0,1,25.311,20.059,220.955,220.955,0,0,1,21.514,23.276,215.712,215.712,0,0,1,17.261,26.22l3.606,6.954c.633,1.142,1.182,2.326,1.7,3.524l1.6,3.571,1.63,3.557c.51,1.2.958,2.427,1.44,3.64.922,2.44,1.963,4.836,2.792,7.311l2.485,7.424c.855,2.467,1.406,5.028,2.138,7.535l1.066,3.772.849,3.826c.539,2.559,1.173,5.1,1.648,7.674l1.316,7.748c.447,2.579.748,5.212,1.1,7.826.631,5.241,1.077,10.511,1.426,15.8a325.513,325.513,0,0,1-2.814,64.206,184.97,184.97,0,0,0,13.24-64.358,193.09,193.09,0,0,0-1.86-33.3,181.82,181.82,0,0,0-8.1-32.593,178.64,178.64,0,0,0-14.394-30.384,172.37,172.37,0,0,0-20.256-26.732,164.354,164.354,0,0,0-25.376-21.586,147.216,147.216,0,0,0-14.3-8.337A133.083,133.083,0,0,0,1302.708,295.746Z" transform="translate(-227.363 1760.039)" fill="#ffd84f"/>
      <path id="Path_319" data-name="Path 319" d="M1177.007,253.142q3.4-4.451,7.074-3.935a5.884,5.884,0,0,1,4.977,3.935q1.3,3.4-2.1,7.855a29.994,29.994,0,0,0-4.713,8.124,52.211,52.211,0,0,0-2.36,8.124,14.286,14.286,0,0,1,10.087,4.189,13.756,13.756,0,0,1,3.8,9.958,14.286,14.286,0,0,1-3.927,10.35,13.6,13.6,0,0,1-10.222,4.061q-6.81,0-10.605-4.587t-3.8-13.233a65.99,65.99,0,0,1,2.489-17.289A47.451,47.451,0,0,1,1177.007,253.142Zm43.489,0q3.405-4.451,7.074-3.935a5.884,5.884,0,0,1,4.978,3.935q1.312,3.4-2.093,7.855a29.885,29.885,0,0,0-4.721,8.124,52.969,52.969,0,0,0-2.353,8.124,14.292,14.292,0,0,1,10.086,4.189,13.778,13.778,0,0,1,3.8,9.958,14.267,14.267,0,0,1-3.933,10.35,13.582,13.582,0,0,1-10.215,4.061q-6.823,0-10.612-4.587t-3.8-13.233a65.989,65.989,0,0,1,2.489-17.289A47.506,47.506,0,0,1,1220.5,253.142Z" transform="translate(-292.359 1774.847)" fill="#fff" stroke="#2a0f3f" stroke-width="4"/>
      <text id="THANK_YOU_" data-name="THANK YOU!" transform="translate(815 2102)" fill="#2a0f3f" font-size="91" font-family="AllRoundGothicW01-Bold" font-weight="700"><tspan x="0" y="84">THANK </tspan><tspan x="0" y="159">YOU!</tspan></text>
    </g>
  </g>
</svg>
